{"glyphs":{"0":{"ha":868,"x_min":90,"x_max":842,"o":"m 144 661 q 299 903 196 808 q 539 996 400 996 q 761 894 681 996 q 842 618 842 793 q 792 314 842 461 q 639 72 740 165 q 396 -22 536 -22 q 172 76 254 -22 q 90 351 90 178 q 144 661 90 513 m 278 158 q 401 94 321 94 q 561 178 492 94 q 621 270 596 218 q 664 385 646 322 q 699 629 699 503 q 656 814 699 750 q 533 878 613 878 q 378 797 446 878 q 271 593 308 715 q 233 343 233 468 q 278 158 233 224 z "},"1":{"ha":521,"x_min":96,"x_max":535,"o":"m 125 774 q 413 972 310 792 l 535 972 l 329 0 l 188 0 l 331 672 l 351 757 q 249 669 315 704 q 96 635 181 635 l 125 774 z "},"2":{"ha":794,"x_min":1,"x_max":804,"o":"m 1 0 q 88 200 24 118 q 278 358 151 282 l 435 454 q 604 582 556 528 q 663 724 663 646 q 615 836 663 793 q 494 878 569 878 q 285 675 308 878 l 283 657 l 133 657 l 135 682 q 256 917 154 836 q 500 996 357 996 q 722 922 636 996 q 804 724 804 847 q 656 447 804 567 q 576 390 619 419 q 483 332 533 361 l 382 271 q 211 131 231 182 l 699 131 l 672 0 l 1 0 z "},"3":{"ha":829,"x_min":53,"x_max":817,"o":"m 196 319 l 196 303 q 393 94 196 94 q 549 151 488 94 q 607 292 607 207 q 557 404 607 363 q 425 444 508 444 l 375 444 l 400 567 l 465 567 q 617 615 556 567 q 676 739 676 663 q 629 840 676 801 q 506 878 581 878 q 303 721 332 878 l 150 721 q 517 996 193 996 q 731 929 644 996 q 817 751 817 860 q 756 596 817 664 q 586 503 692 525 q 747 282 747 442 q 574 18 747 101 q 389 -22 493 -22 q 144 64 238 -22 q 53 286 53 149 q 54 319 53 315 l 196 319 z "},"4":{"ha":860,"x_min":17,"x_max":832,"o":"m 600 972 l 781 972 l 653 369 l 832 369 l 804 244 l 625 244 l 575 0 l 433 0 l 485 244 l 17 244 l 46 382 l 600 972 m 607 822 l 551 757 l 186 369 l 513 369 l 607 822 z "},"5":{"ha":808,"x_min":47,"x_max":822,"o":"m 47 292 l 188 292 q 242 147 190 199 q 379 94 292 94 q 544 161 479 94 q 607 338 607 225 q 557 481 607 424 q 424 535 504 535 q 247 450 311 535 l 97 450 l 271 972 l 822 972 l 794 840 l 354 840 l 292 657 q 263 572 282 625 q 463 649 343 649 q 667 564 586 649 q 749 350 749 478 q 646 78 749 181 q 375 -22 543 -22 q 86 126 172 -22 q 47 285 47 194 l 47 292 z "},"6":{"ha":847,"x_min":89,"x_max":849,"o":"m 89 351 q 133 622 89 482 q 253 846 178 758 q 557 996 383 996 q 772 918 694 996 q 849 713 849 842 l 849 703 l 706 703 l 706 708 q 551 878 706 878 q 257 557 346 878 l 246 511 q 496 638 335 638 q 693 558 615 638 q 771 353 771 476 q 593 25 771 125 q 407 -22 513 -22 q 199 50 279 -22 q 97 247 118 118 q 89 351 89 297 m 233 278 q 281 144 233 192 q 407 94 326 94 q 564 164 499 94 q 629 343 629 236 q 583 469 629 421 q 457 519 535 519 q 263 399 326 519 q 233 278 233 342 z "},"7":{"ha":728,"x_min":133,"x_max":829,"o":"m 829 972 l 796 822 q 486 488 604 685 q 307 0 367 293 l 146 0 q 214 249 172 133 q 315 469 256 365 q 586 792 431 674 q 663 840 626 824 l 133 840 l 163 972 l 829 972 z "},"8":{"ha":839,"x_min":51,"x_max":828,"o":"m 122 415 q 306 518 192 492 q 174 714 174 581 q 342 961 174 885 q 513 996 415 996 q 743 924 654 996 q 828 746 828 853 q 765 583 828 654 q 599 488 703 514 q 713 404 669 464 q 754 274 754 343 q 650 58 754 139 q 390 -22 549 -22 q 146 53 242 -22 q 51 235 51 126 q 122 415 51 338 m 251 140 q 392 94 307 94 q 550 150 486 94 q 613 289 613 204 q 557 403 613 360 q 421 446 501 446 q 260 392 324 446 q 194 258 194 339 q 251 140 194 186 m 313 703 q 361 601 313 642 q 490 563 410 563 q 631 611 569 563 q 689 735 689 658 q 639 840 689 800 q 513 878 590 878 q 369 829 426 878 q 313 703 313 781 z "},"9":{"ha":847,"x_min":79,"x_max":810,"o":"m 79 272 l 221 272 q 264 142 221 189 q 382 94 307 94 q 567 183 496 94 q 653 410 638 271 l 663 463 q 415 349 578 349 q 215 429 296 349 q 135 638 135 510 q 307 950 135 853 q 488 996 388 996 q 783 771 718 996 q 810 581 810 693 q 779 344 810 458 q 742 237 764 286 q 693 147 721 188 q 379 -22 578 -22 q 156 57 232 -22 q 79 263 79 133 l 79 272 m 322 518 q 450 467 369 467 q 608 529 546 467 q 669 686 669 590 q 621 826 669 771 q 494 881 572 881 q 336 815 397 881 q 275 647 275 750 q 322 518 275 565 z "},"\u0000":{"ha":0,"x_min":0,"x_max":0,"o":""},"\r":{"ha":347,"x_min":0,"x_max":0,"o":""}," ":{"ha":321,"x_min":0,"x_max":0,"o":""},"!":{"ha":354,"x_min":22,"x_max":389,"o":"m 131 274 l 172 669 l 236 972 l 389 972 l 324 669 l 196 274 l 131 274 m 22 0 l 58 172 l 226 172 l 190 0 l 22 0 z "},"\"":{"ha":500,"x_min":157,"x_max":561,"o":"m 428 972 l 561 972 l 536 847 l 465 638 l 383 638 l 401 847 l 428 972 m 201 972 l 335 972 l 310 847 l 239 638 l 157 638 l 175 847 l 201 972 z "},"#":{"ha":869,"x_min":33,"x_max":901,"o":"m 219 375 l 299 604 l 150 604 l 172 710 l 336 710 l 428 972 l 543 972 l 451 710 l 639 710 l 732 972 l 847 972 l 756 710 l 901 710 l 881 604 l 718 604 l 638 375 l 783 375 l 761 269 l 601 269 l 510 0 l 392 0 l 486 269 l 296 269 l 206 0 l 88 0 l 181 269 l 33 269 l 57 375 l 219 375 m 524 375 l 603 604 l 414 604 l 335 375 l 524 375 z "},"$":{"ha":864,"x_min":50,"x_max":861,"o":"m 50 346 l 189 346 q 335 107 189 157 l 408 451 l 396 456 q 167 713 167 536 q 268 917 167 838 q 515 996 365 996 l 524 996 l 551 1128 l 664 1128 l 633 982 q 861 672 861 921 l 861 667 l 718 667 l 718 674 q 607 863 718 814 l 539 544 l 563 536 q 789 274 789 460 q 688 58 789 139 q 426 -22 586 -22 l 418 -22 l 390 -154 l 279 -154 l 310 -10 q 117 115 185 22 q 50 340 50 207 l 50 346 m 443 92 q 593 142 532 93 q 653 263 653 188 q 513 417 653 364 l 443 92 m 499 881 q 358 835 414 878 q 303 725 303 792 q 435 581 303 633 l 499 881 z "},"%":{"ha":1197,"x_min":100,"x_max":1158,"o":"m 635 179 q 706 372 635 293 q 888 453 778 453 q 1026 400 974 453 q 1079 260 1079 344 q 1007 67 1079 144 q 826 -14 935 -14 q 688 39 740 -14 q 635 179 635 92 m 250 906 q 432 986 322 986 q 571 933 518 986 q 624 793 624 878 q 551 600 624 676 q 369 521 478 521 q 231 574 283 521 q 179 713 179 625 q 250 906 179 826 m 1158 972 l 243 0 l 100 0 l 1015 972 l 1158 972 m 750 186 q 835 86 750 86 q 928 138 890 86 q 965 254 965 189 q 881 358 965 358 q 788 306 825 358 q 750 186 750 253 m 379 621 q 472 672 435 621 q 508 789 508 725 q 485 864 508 833 q 424 892 461 892 q 332 840 367 892 q 294 721 294 788 q 379 621 294 621 z "},"&":{"ha":890,"x_min":38,"x_max":849,"o":"m 319 554 l 313 564 q 246 757 246 678 q 322 926 246 858 q 519 996 400 996 q 689 939 619 996 q 756 783 756 881 q 517 514 756 611 l 501 507 l 611 328 q 640 282 624 304 l 664 332 q 685 392 675 360 q 703 463 696 424 l 849 463 q 707 172 819 290 l 815 0 l 658 0 l 610 79 q 339 -22 496 -22 q 124 51 210 -22 q 38 243 38 126 q 293 543 38 446 l 319 554 m 181 247 q 226 138 181 179 q 349 94 274 94 q 547 179 461 94 l 379 456 l 353 444 q 229 364 276 410 q 181 247 181 315 m 440 604 l 456 610 q 618 778 618 674 q 590 851 618 824 q 515 878 563 878 q 425 844 460 878 q 388 753 388 808 q 436 611 388 693 l 440 604 z "},"'":{"ha":274,"x_min":157,"x_max":335,"o":"m 157 638 l 175 847 l 201 972 l 335 972 l 310 847 l 239 638 l 157 638 z "},"(":{"ha":406,"x_min":58,"x_max":525,"o":"m 149 639 q 388 1014 238 851 l 525 1014 q 189 211 189 619 q 263 -179 189 33 l 142 -179 q 58 219 58 14 q 149 639 58 421 z "},")":{"ha":404,"x_min":-85,"x_max":382,"o":"m -85 -179 q 250 624 250 214 q 178 1014 250 814 l 299 1014 q 382 615 382 819 q 292 196 382 414 q 51 -179 201 -21 l -85 -179 z "},"*":{"ha":542,"x_min":144,"x_max":599,"o":"m 260 557 l 192 606 l 292 729 l 144 728 l 163 813 l 310 811 l 258 943 l 338 982 l 382 847 l 483 982 l 551 935 l 450 811 l 599 813 l 579 728 l 432 729 l 485 597 l 406 557 l 360 694 l 260 557 z "},"+":{"ha":772,"x_min":74,"x_max":732,"o":"m 342 754 l 465 754 l 465 474 l 732 474 l 732 357 l 465 357 l 465 75 l 342 75 l 342 357 l 74 357 l 74 474 l 342 474 l 342 754 z "},",":{"ha":346,"x_min":-26,"x_max":238,"o":"m -8 -150 q 101 -25 81 -132 l 107 0 l 22 0 l 60 178 l 238 178 l 193 -26 q -26 -235 154 -218 l -8 -150 z "},"-":{"ha":529,"x_min":76,"x_max":463,"o":"m 76 296 l 103 424 l 463 424 l 436 296 l 76 296 z "},".":{"ha":344,"x_min":19,"x_max":236,"o":"m 19 0 l 58 178 l 236 178 l 199 0 l 19 0 z "},"/":{"ha":610,"x_min":-22,"x_max":692,"o":"m -22 0 l 554 972 l 692 972 l 115 0 l -22 0 z "},":":{"ha":346,"x_min":11,"x_max":319,"o":"m 11 0 l 50 178 l 228 178 l 190 0 l 11 0 m 103 433 l 142 611 l 319 611 l 282 433 l 103 433 z "},";":{"ha":347,"x_min":-35,"x_max":321,"o":"m -17 -150 q 93 -25 72 -132 l 99 0 l 14 0 l 51 178 l 229 178 l 185 -26 q -35 -235 146 -218 l -17 -150 m 143 611 l 321 611 l 283 433 l 104 433 l 143 611 z "},"<":{"ha":790,"x_min":74,"x_max":693,"o":"m 693 604 l 331 461 q 264 435 293 446 q 215 417 235 424 l 258 400 q 304 383 285 390 q 338 369 324 375 l 693 232 l 693 88 l 74 347 l 74 485 l 693 744 l 693 604 z "},"=":{"ha":907,"x_min":136,"x_max":796,"o":"m 796 226 l 136 226 l 136 344 l 796 344 l 796 226 m 136 606 l 796 606 l 796 488 l 136 488 l 136 606 z "},">":{"ha":789,"x_min":129,"x_max":749,"o":"m 608 417 q 557 435 585 424 q 496 460 529 446 l 129 604 l 129 744 l 749 485 l 749 347 l 129 88 l 129 232 l 608 417 z "},"?":{"ha":729,"x_min":124,"x_max":764,"o":"m 124 693 q 232 915 140 836 q 476 996 325 996 q 683 929 601 996 q 764 757 764 861 q 599 507 764 599 l 538 471 q 454 394 481 436 q 411 274 428 357 l 271 274 q 297 375 282 331 q 332 453 313 419 q 458 568 372 521 l 507 596 q 622 751 622 661 q 469 878 622 878 q 271 693 293 878 l 124 693 m 236 172 l 404 172 l 368 0 l 200 0 l 236 172 z "},"@":{"ha":1088,"x_min":63,"x_max":1044,"o":"m 138 581 q 343 792 214 714 q 633 868 474 868 q 993 669 882 868 q 1044 461 1044 576 q 914 144 1044 250 q 774 93 854 93 q 644 183 669 93 q 475 93 582 93 q 347 151 394 93 q 301 293 301 206 q 440 567 301 469 q 579 611 506 611 q 703 533 671 611 l 724 596 l 835 596 l 739 289 q 732 250 732 261 q 783 190 732 190 q 892 276 847 190 q 933 461 933 357 q 849 678 933 597 q 628 761 763 761 q 233 524 360 761 q 174 283 174 414 q 264 46 174 136 q 507 -47 353 -47 q 769 32 642 -47 l 815 -54 q 496 -154 674 -154 q 181 -31 301 -154 q 63 283 63 89 q 138 581 63 444 m 499 193 q 617 265 567 193 q 663 408 663 332 q 582 511 663 511 q 464 443 515 511 q 414 300 414 378 q 499 193 414 193 z "},"A":{"ha":961,"x_min":-71,"x_max":886,"o":"m 700 972 l 886 0 l 733 0 l 686 281 l 261 281 l 96 0 l -71 0 l 533 972 l 700 972 m 593 847 l 544 761 l 335 404 l 667 404 l 593 847 z "},"B":{"ha":921,"x_min":49,"x_max":903,"o":"m 256 972 l 624 972 q 826 913 750 972 q 903 747 903 853 q 689 500 903 564 q 844 290 844 440 q 742 78 844 157 q 485 0 640 0 l 49 0 l 256 972 m 479 124 q 697 299 697 124 q 649 406 697 365 q 513 446 600 446 l 290 446 l 222 124 l 479 124 m 564 569 q 701 611 649 569 q 756 728 756 653 q 601 849 756 849 l 375 849 l 315 569 l 564 569 z "},"C":{"ha":1014,"x_min":89,"x_max":1007,"o":"m 89 401 q 158 706 89 569 q 351 919 228 842 q 626 996 474 996 q 964 817 868 996 q 1007 644 1007 735 l 1006 617 l 858 617 l 858 626 q 794 801 858 733 q 619 871 729 871 q 290 646 394 871 q 240 407 240 539 q 319 183 240 264 q 525 101 397 101 q 706 154 628 101 q 808 297 781 206 l 963 297 q 810 64 931 149 q 511 -22 686 -22 q 143 175 253 -22 q 89 401 89 271 z "},"D":{"ha":1001,"x_min":49,"x_max":972,"o":"m 256 972 l 517 972 q 857 864 740 972 q 972 554 972 756 q 714 72 972 218 q 422 0 592 0 l 49 0 l 256 972 m 414 125 q 774 335 669 125 q 822 554 822 436 q 751 771 822 693 q 504 849 678 849 l 376 849 l 224 125 l 414 125 z "},"E":{"ha":842,"x_min":49,"x_max":893,"o":"m 49 0 l 256 972 l 893 972 l 867 849 l 375 849 l 315 561 l 783 561 l 757 436 l 289 436 l 222 125 l 731 125 l 704 0 l 49 0 z "},"F":{"ha":818,"x_min":49,"x_max":901,"o":"m 49 0 l 256 972 l 901 972 l 875 849 l 375 849 l 314 557 l 788 557 l 763 433 l 288 433 l 196 0 l 49 0 z "},"G":{"ha":1036,"x_min":92,"x_max":1014,"o":"m 165 715 q 363 922 239 850 q 625 996 486 996 q 906 900 799 996 q 1014 651 1011 807 l 867 651 q 801 811 867 750 q 626 871 738 871 q 296 653 406 871 q 242 411 242 549 q 321 183 242 268 q 521 101 399 101 q 719 165 639 101 q 825 332 803 229 l 831 354 l 542 354 l 567 479 l 990 479 l 889 0 l 761 0 l 765 26 q 773 58 768 38 q 788 111 778 79 q 499 -22 688 -22 q 208 90 318 -22 q 92 411 92 208 q 165 715 92 579 z "},"H":{"ha":1022,"x_min":49,"x_max":1038,"o":"m 403 972 l 317 568 l 806 568 l 892 972 l 1038 972 l 831 0 l 685 0 l 779 443 l 290 443 l 196 0 l 49 0 l 256 972 l 403 972 z "},"I":{"ha":386,"x_min":49,"x_max":403,"o":"m 256 972 l 403 972 l 196 0 l 49 0 l 256 972 z "},"J":{"ha":756,"x_min":15,"x_max":781,"o":"m 167 336 q 165 306 165 321 q 164 275 164 290 q 304 101 164 101 q 494 318 446 101 l 633 972 l 781 972 l 633 286 q 294 -22 568 -22 q 88 54 160 -22 q 15 264 15 128 q 17 296 15 278 q 21 336 18 314 l 167 336 z "},"K":{"ha":874,"x_min":50,"x_max":989,"o":"m 257 972 l 401 972 l 313 553 q 344 583 326 567 q 383 618 361 599 l 790 972 l 989 972 l 501 550 l 825 0 l 654 0 l 393 457 l 269 350 l 194 0 l 50 0 l 257 972 z "},"L":{"ha":772,"x_min":49,"x_max":721,"o":"m 49 0 l 256 972 l 403 972 l 224 125 l 721 125 l 694 0 l 49 0 z "},"M":{"ha":1276,"x_min":49,"x_max":1292,"o":"m 485 972 l 590 276 l 604 165 l 665 279 l 1053 972 l 1292 972 l 1086 0 l 942 0 l 1092 701 l 1121 829 l 660 0 l 493 0 l 367 829 l 192 0 l 49 0 l 256 972 l 485 972 z "},"N":{"ha":1072,"x_min":49,"x_max":1088,"o":"m 256 972 l 453 972 l 776 186 l 800 317 l 942 972 l 1088 972 l 882 0 l 706 0 l 368 821 l 343 696 l 196 0 l 49 0 l 256 972 z "},"O":{"ha":1064,"x_min":93,"x_max":1035,"o":"m 351 922 q 617 996 471 996 q 919 875 803 996 q 1035 567 1035 756 q 778 51 1035 208 q 513 -22 658 -22 q 208 96 322 -22 q 93 407 93 215 q 351 922 93 761 m 318 183 q 518 101 393 101 q 779 232 675 101 q 885 567 885 363 q 811 789 885 707 q 611 871 736 871 q 292 647 394 871 q 243 407 243 538 q 318 183 243 264 z "},"P":{"ha":876,"x_min":49,"x_max":924,"o":"m 621 972 q 840 904 760 972 q 924 718 924 835 q 824 489 924 572 q 569 410 728 410 l 283 410 l 196 0 l 49 0 l 256 972 l 621 972 m 564 533 q 775 711 775 533 q 731 811 775 775 q 603 849 685 849 l 376 849 l 310 533 l 564 533 z "},"Q":{"ha":1065,"x_min":93,"x_max":1035,"o":"m 93 407 q 351 922 93 761 q 617 996 471 996 q 919 875 803 996 q 1035 567 1035 756 q 803 68 1035 229 l 875 -49 l 768 -117 l 690 8 q 513 -22 607 -22 q 146 182 251 -22 q 93 407 93 281 m 318 183 q 518 101 393 101 q 622 118 572 101 l 525 275 l 633 343 l 733 182 q 885 567 885 313 q 811 789 885 707 q 611 871 736 871 q 292 647 394 871 q 243 407 243 538 q 318 183 243 264 z "},"R":{"ha":922,"x_min":49,"x_max":924,"o":"m 610 972 q 846 907 764 972 q 924 735 924 844 q 856 560 924 628 q 690 467 786 490 q 814 307 814 435 q 806 232 814 271 l 756 0 l 610 0 l 658 228 q 667 297 667 267 q 511 414 667 414 l 285 414 l 196 0 l 49 0 l 256 972 l 610 972 m 571 539 q 718 586 663 539 q 776 710 776 632 q 589 849 776 849 l 375 849 l 310 539 l 571 539 z "},"S":{"ha":892,"x_min":47,"x_max":888,"o":"m 200 349 l 200 343 q 267 164 200 228 q 449 101 331 101 q 608 144 549 101 q 671 265 671 188 q 524 411 671 361 l 386 454 q 158 710 158 528 q 264 915 158 835 q 522 996 365 996 q 789 908 690 996 q 888 665 885 822 l 735 665 q 676 817 733 763 q 514 871 618 871 q 365 829 424 871 q 306 721 306 788 q 444 586 306 629 l 593 536 q 819 281 819 464 q 718 58 819 139 q 444 -22 617 -22 q 153 78 257 -22 q 47 349 47 175 l 200 349 z "},"T":{"ha":829,"x_min":119,"x_max":953,"o":"m 953 972 l 926 849 l 596 849 l 417 0 l 269 0 l 450 849 l 119 849 l 146 972 l 953 972 z "},"U":{"ha":986,"x_min":110,"x_max":1011,"o":"m 110 282 q 122 397 110 336 l 243 972 l 392 972 l 269 400 q 261 344 264 368 q 258 300 258 319 q 457 101 258 101 q 742 399 678 101 l 864 972 l 1011 972 l 882 365 q 450 -22 799 -22 q 199 58 288 -22 q 110 282 110 139 z "},"V":{"ha":935,"x_min":143,"x_max":1065,"o":"m 401 268 q 411 205 407 236 q 419 142 415 174 l 490 268 l 896 972 l 1065 972 l 485 0 l 306 0 l 143 972 l 296 972 l 401 268 z "},"W":{"ha":1357,"x_min":153,"x_max":1475,"o":"m 325 293 q 329 150 329 189 l 349 194 l 378 260 l 710 972 l 913 972 l 939 293 l 943 150 l 1006 293 l 1315 972 l 1475 972 l 1014 0 l 825 0 l 789 850 q 763 788 778 822 q 731 714 749 754 l 396 0 l 201 0 l 153 972 l 304 972 l 325 293 z "},"X":{"ha":881,"x_min":-72,"x_max":989,"o":"m 397 519 l 172 972 l 329 972 l 467 683 q 496 617 479 658 l 806 972 l 989 972 l 561 496 l 807 0 l 649 0 l 461 397 l 111 0 l -72 0 l 397 519 z "},"Y":{"ha":856,"x_min":149,"x_max":982,"o":"m 301 972 l 463 538 q 501 590 481 564 q 543 643 521 615 l 804 972 l 982 972 l 518 413 l 429 0 l 283 0 l 371 415 l 149 972 l 301 972 z "},"Z":{"ha":839,"x_min":-26,"x_max":914,"o":"m 6 143 l 629 768 q 672 810 651 790 q 713 849 693 831 l 181 849 l 207 972 l 914 972 l 886 839 l 265 215 q 171 125 204 154 l 751 125 l 725 0 l -26 0 l 6 143 z "},"[":{"ha":426,"x_min":4,"x_max":521,"o":"m 4 -179 l 254 1015 l 521 1015 l 500 910 l 364 910 l 157 -74 l 292 -74 l 269 -179 l 4 -179 z "},"\\":{"ha":572,"x_min":172,"x_max":461,"o":"m 340 0 l 172 972 l 293 972 l 461 0 l 340 0 z "},"]":{"ha":411,"x_min":-75,"x_max":443,"o":"m 443 1015 l 192 -179 l -75 -179 l -54 -74 l 83 -74 l 290 910 l 154 910 l 176 1015 l 443 1015 z "},"^":{"ha":694,"x_min":99,"x_max":681,"o":"m 322 972 l 457 972 l 681 475 l 535 475 l 435 717 q 417 760 428 731 q 388 833 406 789 q 369 785 381 814 q 343 717 358 756 l 242 475 l 99 475 l 322 972 z "},"_":{"ha":810,"x_min":-39,"x_max":664,"o":"m -39 -172 l -12 -50 l 664 -50 l 639 -172 l -39 -172 z "},"`":{"ha":388,"x_min":207,"x_max":422,"o":"m 315 781 l 207 969 l 369 969 l 422 781 l 315 781 z "},"a":{"ha":814,"x_min":51,"x_max":789,"o":"m 531 186 q 592 390 592 276 q 551 526 592 474 q 426 585 507 585 q 250 488 317 585 q 190 285 190 401 q 229 149 190 201 q 353 86 272 86 q 531 186 461 86 m 118 65 q 51 276 51 146 q 146 563 51 440 q 411 694 250 694 q 629 557 567 694 l 636 604 l 651 672 l 789 672 l 646 0 l 508 0 l 526 72 q 314 -22 453 -22 q 118 65 189 -22 z "},"b":{"ha":817,"x_min":26,"x_max":764,"o":"m 369 972 l 301 650 l 289 600 q 500 694 376 694 q 686 611 611 694 q 764 396 764 525 q 596 35 764 153 q 410 -22 514 -22 q 186 111 246 -22 l 164 0 l 26 0 l 232 972 l 369 972 m 271 139 q 392 86 317 86 q 556 174 489 86 q 624 390 624 263 q 579 529 624 472 q 458 585 536 585 q 257 433 325 585 q 225 279 225 358 q 271 139 225 193 z "},"c":{"ha":753,"x_min":53,"x_max":717,"o":"m 239 642 q 435 694 325 694 q 643 622 571 694 q 717 417 717 549 l 581 417 l 581 422 q 432 585 581 585 q 258 494 328 585 q 192 281 192 407 q 238 139 192 190 q 364 86 286 86 q 540 219 500 86 l 682 219 q 571 42 656 106 q 356 -22 486 -22 q 136 58 217 -22 q 53 276 53 138 q 239 642 53 529 z "},"d":{"ha":813,"x_min":51,"x_max":851,"o":"m 51 274 q 224 636 51 514 q 411 694 304 694 q 628 558 567 694 q 644 644 629 583 l 714 972 l 851 972 l 644 0 l 508 0 l 513 22 l 526 72 q 314 -22 444 -22 q 86 115 157 -22 q 51 274 51 179 m 190 283 q 233 143 190 196 q 354 86 278 86 q 521 176 450 86 q 592 390 592 265 q 547 532 592 476 q 426 585 501 585 q 222 435 286 585 q 190 283 190 363 z "},"e":{"ha":756,"x_min":51,"x_max":704,"o":"m 51 271 q 229 640 51 524 q 421 694 313 694 q 629 618 553 694 q 704 415 704 540 q 702 374 704 394 q 697 335 700 354 l 692 307 l 188 307 q 186 271 186 301 q 231 138 186 186 q 358 86 276 86 q 528 193 488 86 l 669 193 q 561 36 644 92 q 353 -22 478 -22 q 135 58 215 -22 q 51 271 51 138 m 567 406 l 569 444 q 419 589 569 589 q 285 539 340 589 q 208 406 229 492 l 567 406 z "},"f":{"ha":457,"x_min":71,"x_max":571,"o":"m 229 672 l 257 800 q 478 996 296 996 q 571 978 539 996 l 547 865 q 494 875 528 875 q 389 781 408 875 l 367 672 l 507 672 l 483 561 l 343 561 l 224 0 l 86 0 l 204 561 l 71 561 l 93 672 l 229 672 z "},"g":{"ha":811,"x_min":11,"x_max":786,"o":"m 13 -39 l 150 -39 l 150 -49 q 307 -204 150 -204 q 501 -25 461 -204 l 517 50 q 522 75 519 61 q 531 106 525 89 q 329 14 453 14 q 135 96 213 14 q 60 303 60 176 q 231 644 60 533 q 403 694 307 694 q 626 558 568 694 l 633 604 l 640 640 l 649 672 l 786 672 l 643 -3 q 301 -312 576 -312 q 83 -240 160 -312 q 11 -62 11 -172 l 13 -39 m 244 175 q 365 122 290 122 q 565 271 499 122 q 593 401 593 339 q 549 533 593 481 q 429 585 503 585 q 231 451 299 585 q 199 311 199 383 q 244 175 199 226 z "},"h":{"ha":765,"x_min":26,"x_max":699,"o":"m 371 972 l 303 656 l 289 599 q 494 694 374 694 q 646 636 592 694 q 699 476 699 576 q 689 389 699 426 l 606 0 l 469 0 l 550 386 q 558 460 558 425 q 442 585 558 585 q 318 535 369 585 q 247 399 267 485 l 163 0 l 26 0 l 233 972 l 371 972 z "},"i":{"ha":331,"x_min":25,"x_max":375,"o":"m 221 946 l 375 946 l 340 790 l 188 790 l 221 946 m 306 672 l 163 0 l 25 0 l 168 672 l 306 672 z "},"j":{"ha":342,"x_min":-162,"x_max":383,"o":"m -137 -187 q -100 -193 -125 -193 q 17 -83 -6 -193 l 178 672 l 315 672 l 149 -118 q -85 -312 107 -312 q -162 -304 -129 -312 l -137 -187 m 231 946 l 383 946 l 349 790 l 196 790 l 231 946 z "},"k":{"ha":689,"x_min":26,"x_max":746,"o":"m 369 972 l 249 400 l 301 450 l 556 672 l 746 672 l 403 382 l 632 0 l 468 0 l 301 296 l 210 218 l 163 0 l 26 0 l 232 972 l 369 972 z "},"l":{"ha":331,"x_min":26,"x_max":369,"o":"m 369 972 l 163 0 l 26 0 l 232 972 l 369 972 z "},"m":{"ha":1156,"x_min":26,"x_max":1089,"o":"m 168 672 l 306 672 l 300 643 q 296 624 300 638 l 290 600 q 485 694 374 694 q 656 574 614 694 q 883 694 744 694 q 1035 633 978 694 q 1089 475 1089 572 q 1081 400 1089 439 l 996 0 l 858 0 l 942 392 q 950 461 950 429 q 839 585 950 585 q 669 407 707 585 l 582 0 l 444 0 l 526 389 q 535 458 535 426 q 426 585 535 585 q 315 533 363 585 q 247 394 265 479 l 163 0 l 26 0 l 168 672 z "},"n":{"ha":765,"x_min":26,"x_max":699,"o":"m 168 672 l 306 672 l 288 599 q 494 694 372 694 q 646 636 592 694 q 699 476 699 576 q 689 389 699 426 l 606 0 l 469 0 l 550 386 q 558 460 558 425 q 442 585 558 585 q 318 535 369 585 q 247 399 267 485 l 163 0 l 26 0 l 168 672 z "},"o":{"ha":785,"x_min":51,"x_max":731,"o":"m 240 642 q 433 694 331 694 q 649 611 567 694 q 731 394 731 529 q 543 32 731 146 q 350 -22 456 -22 q 133 60 215 -22 q 51 275 51 142 q 240 642 51 525 m 233 136 q 356 86 276 86 q 561 242 493 86 q 593 397 593 317 q 550 535 593 488 q 429 585 506 585 q 260 494 331 585 q 190 274 190 401 q 233 136 190 185 z "},"p":{"ha":817,"x_min":-36,"x_max":763,"o":"m 168 672 l 306 672 l 289 600 q 499 694 379 694 q 685 611 610 694 q 763 393 763 525 q 593 35 763 154 q 410 -22 513 -22 q 186 111 246 -22 l 101 -289 l -36 -289 l 168 672 m 224 282 q 269 140 224 194 q 390 86 315 86 q 557 175 489 86 q 624 389 624 263 q 579 528 624 471 q 458 585 533 585 q 256 435 324 585 q 224 282 224 363 z "},"q":{"ha":814,"x_min":53,"x_max":789,"o":"m 53 274 q 224 639 53 519 q 407 694 304 694 q 543 656 483 694 q 629 558 604 617 q 633 592 631 572 q 643 635 636 611 l 651 672 l 789 672 l 586 -289 l 447 -289 l 511 14 l 526 72 q 321 -22 449 -22 q 88 119 160 -22 q 53 274 53 183 m 236 142 q 357 86 279 86 q 525 178 456 86 q 593 399 593 268 q 549 533 593 482 q 431 585 506 585 q 261 496 329 585 q 190 279 190 406 q 236 142 190 197 z "},"r":{"ha":488,"x_min":26,"x_max":542,"o":"m 169 672 l 306 672 l 299 635 q 291 600 296 619 q 279 557 286 581 q 490 694 368 694 q 542 688 517 694 l 513 550 q 456 556 492 556 q 236 346 279 556 l 163 0 l 26 0 l 169 672 z "},"s":{"ha":678,"x_min":24,"x_max":640,"o":"m 158 243 q 201 126 158 168 q 318 83 244 83 q 421 110 382 83 q 460 182 460 136 q 360 275 460 243 l 271 306 q 99 492 99 361 q 171 636 99 581 q 361 694 243 694 q 564 631 492 694 q 640 453 636 567 l 504 453 q 354 589 497 589 q 233 501 233 589 q 321 414 233 443 l 418 383 q 593 196 593 326 q 518 38 593 97 q 315 -22 442 -22 q 101 49 178 -22 q 24 243 24 119 l 158 243 z "},"t":{"ha":472,"x_min":63,"x_max":507,"o":"m 86 672 l 222 672 l 271 903 l 408 903 l 360 672 l 507 672 l 483 561 l 335 561 l 260 203 q 256 164 256 182 q 339 96 256 96 q 388 100 360 96 l 361 -14 q 289 -22 333 -22 q 115 144 115 -22 q 124 214 115 176 l 197 561 l 63 561 l 86 672 z "},"u":{"ha":760,"x_min":68,"x_max":736,"o":"m 160 672 l 297 672 l 215 283 q 207 215 207 246 q 325 88 207 88 q 517 288 475 88 l 599 672 l 736 672 l 593 0 l 458 0 l 463 21 l 476 72 q 272 -22 399 -22 q 121 39 175 -22 q 68 199 68 99 q 78 285 68 247 l 160 672 z "},"v":{"ha":688,"x_min":85,"x_max":742,"o":"m 299 128 q 313 159 304 140 q 335 201 321 178 l 590 672 l 742 672 l 356 0 l 196 0 l 85 672 l 222 672 l 299 128 z "},"w":{"ha":1089,"x_min":86,"x_max":1143,"o":"m 263 131 l 290 194 l 526 672 l 700 672 l 739 133 q 751 160 744 144 q 767 194 757 175 l 1000 672 l 1143 672 l 792 0 l 631 0 l 590 551 q 581 528 588 543 q 563 489 574 513 l 321 0 l 156 0 l 86 672 l 224 672 l 263 131 z "},"x":{"ha":675,"x_min":-57,"x_max":722,"o":"m 103 672 l 249 672 l 358 442 l 403 497 l 554 672 l 722 672 l 411 340 l 586 0 l 442 0 l 325 249 l 276 190 l 108 0 l -57 0 l 268 353 l 103 672 z "},"y":{"ha":682,"x_min":19,"x_max":740,"o":"m 206 19 l 88 672 l 228 672 l 308 165 l 351 250 l 588 672 l 740 672 l 175 -289 l 19 -289 l 206 19 z "},"z":{"ha":643,"x_min":-24,"x_max":657,"o":"m 4 128 l 432 521 q 458 543 446 532 q 483 564 471 554 l 111 564 l 135 672 l 657 672 l 631 546 l 206 154 l 153 108 l 547 108 l 525 0 l -24 0 l 4 128 z "},"{":{"ha":478,"x_min":29,"x_max":551,"o":"m 54 497 q 211 617 186 508 l 251 807 q 324 965 275 918 q 471 1014 376 1014 l 551 1014 l 531 908 l 504 908 q 381 786 406 908 l 338 582 q 163 429 308 447 q 272 296 272 399 q 267 247 272 265 l 225 56 q 220 25 222 38 q 218 4 218 13 q 299 -74 218 -74 l 324 -74 l 301 -179 l 263 -179 q 135 -129 182 -179 q 86 3 86 -81 q 88 35 86 19 q 93 67 90 51 l 131 243 q 136 286 136 260 q 29 378 136 369 l 54 497 z "},"|":{"ha":356,"x_min":3,"x_max":389,"o":"m 3 -179 l 257 1014 l 389 1014 l 135 -179 l 3 -179 z "},"}":{"ha":479,"x_min":-40,"x_max":479,"o":"m -18 -74 l 10 -74 q 133 49 104 -74 l 176 256 q 346 406 201 386 q 240 536 240 436 q 246 583 240 565 l 289 779 q 294 829 294 797 q 213 908 294 908 l 189 908 l 211 1014 l 249 1014 q 378 965 329 1014 q 428 833 428 917 q 419 767 428 801 l 382 592 q 376 549 376 575 q 479 457 376 465 l 454 336 q 303 218 325 328 l 261 28 q 189 -129 239 -82 q 42 -179 136 -179 l -40 -179 l -18 -74 z "},"~":{"ha":789,"x_min":92,"x_max":732,"o":"m 92 322 q 149 463 94 418 q 282 508 204 508 q 426 474 340 508 q 535 446 503 446 q 608 510 600 446 l 732 510 q 679 375 729 422 q 547 326 628 326 q 393 360 489 326 q 286 386 319 386 q 217 322 226 386 l 92 322 z "}," ":{"ha":321,"x_min":0,"x_max":0,"o":""},"¡":{"ha":336,"x_min":-43,"x_max":324,"o":"m 324 672 l 286 500 l 119 500 l 156 672 l 324 672 m 214 400 l 172 3 l 108 -300 l -43 -300 l 21 3 l 150 400 l 214 400 z "},"¢":{"ha":867,"x_min":79,"x_max":863,"o":"m 79 417 q 289 843 79 701 q 503 915 386 908 l 532 1053 l 643 1053 l 613 910 q 863 599 863 864 l 863 588 l 721 588 l 721 599 q 588 789 721 753 l 457 174 q 676 336 631 181 l 824 336 q 688 129 790 204 q 438 56 585 56 l 432 56 l 403 -79 l 290 -79 l 322 71 q 144 193 211 101 q 79 417 79 283 m 478 796 q 294 675 367 781 q 221 425 221 568 q 349 193 221 247 l 478 796 z "},"£":{"ha":903,"x_min":1,"x_max":918,"o":"m 28 124 l 163 124 l 221 400 l 68 400 l 94 519 l 246 519 l 282 689 q 639 996 349 996 q 843 925 768 996 q 918 725 918 851 q 917 698 918 711 q 915 672 917 685 l 772 672 q 776 722 776 699 q 631 874 776 874 q 425 678 467 874 l 392 519 l 718 519 l 692 400 l 367 400 l 307 124 l 801 124 l 775 0 l 1 0 l 28 124 z "},"¤":{"ha":1006,"x_min":99,"x_max":975,"o":"m 231 276 q 192 436 192 344 q 293 725 192 606 l 207 836 l 293 908 l 378 799 q 583 860 472 860 q 771 797 693 860 l 908 908 l 975 821 l 843 714 q 882 553 882 646 q 779 265 882 389 l 865 153 l 781 81 l 696 192 q 490 131 601 131 q 303 192 385 131 l 167 81 l 99 168 l 231 276 m 324 439 q 374 297 324 351 q 497 244 422 244 q 719 403 650 244 q 750 550 750 468 q 701 693 750 640 q 576 744 654 744 q 354 588 424 744 q 324 439 324 521 z "},"¥":{"ha":876,"x_min":71,"x_max":961,"o":"m 94 308 l 356 308 l 378 413 l 115 413 l 139 519 l 340 519 l 181 972 l 329 972 l 465 533 l 547 647 l 790 972 l 961 972 l 604 519 l 808 519 l 788 413 l 519 413 l 497 308 l 765 308 l 743 203 l 475 203 l 432 0 l 290 0 l 333 203 l 71 203 l 94 308 z "},"¦":{"ha":356,"x_min":3,"x_max":389,"o":"m 157 544 l 257 1014 l 389 1014 l 289 544 l 157 544 m 3 -179 l 101 290 l 235 290 l 135 -179 l 3 -179 z "},"§":{"ha":760,"x_min":10,"x_max":750,"o":"m 154 60 q 307 -81 163 -81 q 413 -53 372 -81 q 450 17 450 -26 q 367 119 450 75 l 224 199 q 90 388 90 271 q 288 611 90 539 q 199 774 199 679 q 276 935 199 872 q 476 996 354 996 q 674 929 600 996 q 750 749 749 860 l 606 749 q 569 846 603 813 q 465 885 531 885 q 375 858 410 885 q 340 792 340 832 q 432 679 340 726 l 569 606 q 703 418 703 536 q 507 192 703 268 q 590 33 590 131 q 510 -133 590 -74 q 303 -193 429 -193 q 93 -126 169 -193 q 10 60 17 -60 l 154 60 m 232 414 q 314 301 232 343 l 413 247 q 561 397 561 304 q 483 500 561 458 l 382 556 q 275 496 317 532 q 232 414 232 458 z "},"¨":{"ha":558,"x_min":151,"x_max":613,"o":"m 185 946 l 336 946 l 303 790 l 151 790 l 185 946 m 613 946 l 578 790 l 428 790 l 461 946 l 613 946 z "},"©":{"ha":1151,"x_min":101,"x_max":1113,"o":"m 169 742 q 354 928 239 860 q 607 996 468 996 q 861 928 747 996 q 1044 742 976 858 q 1113 488 1113 628 q 1044 231 1113 344 q 860 46 976 113 q 604 -22 746 -22 q 353 47 468 -22 q 169 232 239 115 q 101 488 101 346 q 169 742 101 624 m 406 129 q 610 75 497 75 q 957 279 840 75 q 1010 488 1010 374 q 810 844 1010 724 q 607 899 715 899 q 260 696 375 899 q 206 488 206 601 q 406 129 206 246 m 424 690 q 613 769 496 769 q 776 714 713 769 q 847 565 842 657 l 739 565 q 614 679 729 679 q 504 625 546 679 q 461 486 461 572 q 501 346 461 399 q 610 293 542 293 q 700 325 664 293 q 742 410 736 357 l 851 410 q 779 258 846 315 q 608 203 715 203 q 419 278 488 203 q 349 486 349 353 q 424 690 349 611 z "},"ª":{"ha":549,"x_min":125,"x_max":565,"o":"m 125 633 q 300 783 125 768 l 407 794 q 463 842 463 799 q 388 899 463 899 q 297 836 311 899 l 176 836 q 389 986 210 986 q 565 831 565 986 q 563 805 565 819 q 558 771 561 790 l 504 508 l 397 508 l 400 525 l 413 564 q 265 492 349 492 q 167 532 207 492 q 125 633 125 571 m 321 711 q 235 643 235 699 q 308 579 235 579 q 385 611 349 579 q 432 689 422 644 l 443 735 q 385 718 422 724 l 321 711 z "},"«":{"ha":667,"x_min":38,"x_max":679,"o":"m 346 407 l 679 664 l 640 481 l 428 325 l 551 189 l 519 39 l 317 272 l 346 407 m 364 663 l 325 479 l 149 350 l 292 189 l 260 39 l 38 299 l 67 432 l 364 663 z "},"¬":{"ha":872,"x_min":101,"x_max":761,"o":"m 639 144 l 639 357 l 101 357 l 101 475 l 761 475 l 761 144 l 639 144 z "},"­":{"ha":529,"x_min":76,"x_max":463,"o":"m 76 296 l 103 424 l 463 424 l 436 296 l 76 296 z "},"®":{"ha":904,"x_min":131,"x_max":890,"o":"m 321 944 q 511 996 406 996 q 839 806 728 996 q 890 613 890 717 q 700 282 890 393 q 508 231 615 231 q 182 422 294 231 q 131 613 131 507 q 321 944 131 833 m 214 613 q 301 399 214 486 q 513 310 386 310 q 769 460 683 310 q 808 613 808 528 q 722 828 808 738 q 511 917 635 917 q 254 765 338 917 q 214 613 214 696 m 369 818 l 535 818 q 676 704 676 818 q 606 604 676 631 q 668 511 668 588 l 668 410 l 589 410 l 589 503 q 518 571 589 571 l 449 571 l 449 410 l 369 410 l 369 818 m 526 639 q 599 696 599 639 q 528 747 599 747 l 449 747 l 449 639 l 526 639 z "},"¯":{"ha":532,"x_min":156,"x_max":594,"o":"m 156 811 l 181 924 l 594 924 l 571 811 l 156 811 z "},"°":{"ha":497,"x_min":139,"x_max":558,"o":"m 139 751 q 206 914 139 847 q 372 981 274 981 q 506 929 454 981 q 558 796 558 876 q 490 633 558 697 q 322 568 421 568 q 192 619 243 568 q 139 751 139 672 m 243 763 q 269 694 243 721 q 333 668 294 668 q 418 703 383 668 q 453 788 453 736 q 426 854 453 828 q 360 881 400 881 q 278 847 311 881 q 243 763 243 813 z "},"±":{"ha":865,"x_min":103,"x_max":763,"o":"m 374 574 l 374 754 l 494 754 l 494 574 l 763 574 l 763 456 l 494 456 l 494 275 l 374 275 l 374 456 l 103 456 l 103 574 l 374 574 m 761 193 l 761 75 l 103 75 l 103 193 l 761 193 z "},"²":{"ha":571,"x_min":111,"x_max":653,"o":"m 111 474 q 315 743 146 653 l 408 793 q 535 940 535 860 q 438 1032 535 1032 q 322 928 340 1032 l 192 928 q 272 1076 207 1024 q 440 1129 340 1129 q 594 1078 538 1129 q 653 943 653 1025 q 476 714 653 811 l 369 657 q 283 579 296 615 l 588 579 l 565 474 l 111 474 z "},"³":{"ha":583,"x_min":136,"x_max":653,"o":"m 136 696 l 256 696 l 256 685 q 371 556 256 556 q 457 588 421 556 q 492 669 492 621 q 388 757 492 757 l 346 757 l 365 853 l 418 853 q 501 878 469 853 q 533 949 533 906 q 440 1032 533 1032 q 324 943 342 1032 l 194 943 q 276 1078 210 1029 q 446 1129 344 1129 q 594 1083 533 1129 q 653 965 653 1038 q 513 800 653 838 q 610 660 610 758 q 542 515 610 571 q 369 458 472 458 q 194 522 254 458 q 136 682 136 581 l 136 696 z "},"´":{"ha":394,"x_min":154,"x_max":465,"o":"m 154 781 l 285 969 l 465 969 l 274 781 l 154 781 z "},"µ":{"ha":796,"x_min":-24,"x_max":756,"o":"m 182 672 l 319 672 l 233 267 q 228 235 231 249 q 226 210 226 221 q 349 85 226 85 q 536 288 494 85 l 618 672 l 756 672 l 614 0 l 476 0 l 494 72 q 299 -22 417 -22 q 179 24 222 -22 l 171 -28 l 115 -289 l -24 -289 l 182 672 z "},"¶":{"ha":793,"x_min":121,"x_max":796,"o":"m 218 893 q 461 972 311 972 l 796 972 l 551 -179 l 436 -179 l 658 865 l 542 865 l 319 -179 l 204 -179 l 342 471 q 179 528 240 471 q 121 679 121 583 q 218 893 121 813 z "},"·":{"ha":350,"x_min":88,"x_max":303,"o":"m 88 349 l 125 526 l 303 526 l 265 349 l 88 349 z "},"¸":{"ha":429,"x_min":-53,"x_max":265,"o":"m 10 -167 q 104 -218 47 -218 q 165 -175 165 -218 q 110 -136 165 -136 l 79 -139 l 43 -85 l 153 38 l 231 8 l 156 -74 q 265 -176 265 -83 q 221 -264 265 -231 q 108 -299 176 -299 q -53 -225 4 -299 l 10 -167 z "},"¹":{"ha":399,"x_min":160,"x_max":496,"o":"m 160 871 l 183 983 q 390 1114 329 990 l 496 1114 l 360 474 l 239 474 l 324 875 l 340 939 q 261 889 308 907 q 167 871 219 871 l 160 871 z "},"º":{"ha":569,"x_min":132,"x_max":604,"o":"m 132 690 q 211 900 132 814 q 410 988 292 988 q 553 932 501 988 q 604 790 604 879 q 525 581 604 668 q 326 492 444 492 q 185 549 238 492 q 132 690 132 606 m 247 690 q 338 583 247 583 q 450 646 408 583 q 490 790 490 711 q 399 897 490 897 q 289 835 328 897 q 247 690 247 772 z "},"»":{"ha":665,"x_min":7,"x_max":647,"o":"m 44 228 l 257 383 q 242 402 251 390 q 217 431 232 414 l 135 521 l 167 669 l 369 436 l 340 301 l 7 46 l 44 228 m 361 229 l 538 358 l 394 521 l 426 669 l 647 410 l 619 276 l 322 46 l 361 229 z "},"¼":{"ha":1222,"x_min":78,"x_max":1163,"o":"m 672 231 l 986 582 l 1133 582 l 1057 228 l 1163 228 l 1143 142 l 1039 142 l 1008 0 l 899 0 l 929 142 l 654 142 l 672 231 m 982 972 l 1125 972 l 219 0 l 78 0 l 982 972 m 126 751 l 147 854 q 335 972 279 860 l 432 972 l 307 390 l 197 390 l 275 756 l 290 813 q 218 768 263 785 q 133 751 176 751 l 126 751 m 947 228 l 999 468 q 976 442 969 435 l 782 228 l 947 228 z "},"½":{"ha":1268,"x_min":78,"x_max":1226,"o":"m 982 972 l 1125 972 l 219 0 l 78 0 l 982 972 m 735 0 q 921 246 767 165 l 1004 290 q 1119 424 1119 353 q 1032 508 1119 508 q 926 413 943 508 l 808 413 q 882 547 821 499 q 1035 596 943 596 q 1175 549 1124 596 q 1226 426 1226 503 q 1067 218 1226 303 l 968 167 q 890 96 903 129 l 1168 96 l 1147 0 l 735 0 m 147 854 q 335 972 279 860 l 432 972 l 307 390 l 197 390 l 275 756 l 290 813 q 133 751 229 751 l 126 751 l 147 854 z "},"¾":{"ha":1357,"x_min":100,"x_max":1297,"o":"m 807 231 l 1121 582 l 1268 582 l 1192 228 l 1297 228 l 1278 142 l 1174 142 l 1143 0 l 1033 0 l 1064 142 l 789 142 l 807 231 m 1260 972 l 354 0 l 213 0 l 1117 972 l 1260 972 m 100 592 l 208 592 l 208 586 q 314 465 208 465 q 392 494 360 465 q 422 568 422 524 q 329 649 422 649 l 292 649 l 308 736 l 357 736 q 461 822 461 736 q 376 899 461 899 q 271 817 286 899 l 153 817 q 228 940 165 894 q 382 986 288 986 q 517 944 463 986 q 569 838 569 903 q 442 688 569 724 q 531 560 531 650 q 469 428 531 481 q 313 376 410 376 q 153 435 208 376 q 100 578 100 488 l 100 592 m 1133 468 q 1111 442 1104 435 l 917 228 l 1082 228 l 1133 468 z "},"¿":{"ha":719,"x_min":-42,"x_max":600,"o":"m -42 -85 q 124 167 -42 68 l 186 203 q 271 279 244 238 q 313 400 296 321 l 453 400 q 363 181 419 249 q 265 104 329 142 l 217 76 q 101 -79 101 11 q 140 -169 101 -136 q 254 -204 181 -204 q 389 -156 336 -204 q 451 -21 442 -107 l 600 -21 q 490 -243 582 -164 q 247 -324 397 -324 q -6 -208 74 -324 q -42 -85 -42 -151 m 356 672 l 524 672 l 486 500 l 319 500 l 356 672 z "},"À":{"ha":961,"x_min":-71,"x_max":886,"o":"m 700 972 l 886 0 l 733 0 l 686 281 l 261 281 l 96 0 l -71 0 l 533 972 l 700 972 m 667 404 l 593 847 l 544 761 l 335 404 l 667 404 m 643 1268 l 696 1081 l 589 1081 l 482 1268 l 643 1268 z "},"Á":{"ha":961,"x_min":-71,"x_max":886,"o":"m 700 972 l 886 0 l 733 0 l 686 281 l 261 281 l 96 0 l -71 0 l 533 972 l 700 972 m 667 404 l 593 847 l 544 761 l 335 404 l 667 404 m 879 1268 l 688 1081 l 568 1081 l 699 1268 l 879 1268 z "},"Â":{"ha":961,"x_min":-71,"x_max":886,"o":"m 533 972 l 700 972 l 886 0 l 733 0 l 686 281 l 261 281 l 96 0 l -71 0 l 533 972 m 593 847 l 544 761 l 335 404 l 667 404 l 593 847 m 760 1268 l 853 1085 l 732 1085 l 701 1133 q 671 1189 696 1140 l 563 1085 l 421 1085 l 596 1268 l 760 1268 z "},"Ã":{"ha":961,"x_min":-71,"x_max":907,"o":"m 700 972 l 886 0 l 733 0 l 686 281 l 261 281 l 96 0 l -71 0 l 533 972 l 700 972 m 667 404 l 593 847 l 544 761 l 335 404 l 667 404 m 413 1115 q 560 1258 431 1258 q 667 1228 601 1258 q 749 1201 718 1201 q 800 1246 792 1201 l 907 1246 q 763 1096 888 1096 q 656 1126 711 1096 q 574 1151 599 1151 q 521 1115 528 1151 l 413 1115 z "},"Ä":{"ha":961,"x_min":-71,"x_max":888,"o":"m 700 972 l 886 0 l 733 0 l 686 281 l 261 281 l 96 0 l -71 0 l 533 972 l 700 972 m 593 847 l 544 761 l 335 404 l 667 404 l 593 847 m 613 1246 l 579 1090 l 428 1090 l 461 1246 l 613 1246 m 888 1246 l 854 1090 l 704 1090 l 738 1246 l 888 1246 z "},"Å":{"ha":961,"x_min":-71,"x_max":886,"o":"m 533 972 l 700 972 l 886 0 l 733 0 l 686 281 l 261 281 l 96 0 l -71 0 l 533 972 m 667 404 l 593 847 l 544 761 l 335 404 l 667 404 m 531 1150 q 572 1253 531 1213 q 672 1293 613 1293 q 753 1261 721 1293 q 785 1183 785 1229 q 743 1082 785 1121 q 643 1042 703 1042 q 564 1074 596 1042 q 531 1150 531 1104 m 610 1157 q 650 1115 610 1115 q 706 1178 706 1115 q 664 1218 706 1218 q 626 1201 640 1218 q 610 1157 610 1185 z "},"Æ":{"ha":1286,"x_min":-78,"x_max":1336,"o":"m 1336 972 l 1310 849 l 832 849 l 772 568 l 1228 568 l 1201 443 l 746 443 l 678 125 l 1174 125 l 1147 0 l 506 0 l 564 279 l 290 279 l 96 0 l -78 0 l 618 972 l 1336 972 m 685 850 l 621 754 l 376 403 l 590 403 l 685 850 z "},"Ç":{"ha":1014,"x_min":89,"x_max":1007,"o":"m 89 401 q 158 706 89 569 q 351 919 228 842 q 626 996 474 996 q 964 817 868 996 q 1007 644 1007 735 l 1006 617 l 858 617 l 858 626 q 794 801 858 733 q 619 871 729 871 q 290 646 394 871 q 240 407 240 539 q 319 183 240 264 q 525 101 397 101 q 706 154 628 101 q 808 297 781 206 l 963 297 q 824 75 932 158 q 553 -21 713 -11 l 504 -74 q 614 -176 614 -83 q 569 -264 614 -231 q 457 -299 526 -299 q 296 -225 353 -299 l 358 -167 q 453 -218 396 -218 q 514 -175 514 -218 q 458 -136 514 -136 l 428 -139 l 393 -85 l 451 -19 q 135 190 228 8 q 89 401 89 279 z "},"È":{"ha":842,"x_min":49,"x_max":893,"o":"m 542 1081 l 435 1269 l 596 1269 l 650 1081 l 542 1081 m 49 0 l 256 972 l 893 972 l 867 849 l 375 849 l 315 561 l 783 561 l 757 436 l 289 436 l 222 125 l 731 125 l 704 0 l 49 0 z "},"É":{"ha":842,"x_min":49,"x_max":893,"o":"m 517 1081 l 647 1269 l 828 1269 l 636 1081 l 517 1081 m 49 0 l 256 972 l 893 972 l 867 849 l 375 849 l 315 561 l 783 561 l 757 436 l 289 436 l 222 125 l 731 125 l 704 0 l 49 0 z "},"Ê":{"ha":842,"x_min":49,"x_max":893,"o":"m 256 972 l 893 972 l 867 849 l 375 849 l 315 561 l 783 561 l 757 436 l 289 436 l 222 125 l 731 125 l 704 0 l 49 0 l 256 972 m 711 1269 l 804 1086 l 683 1086 l 653 1135 q 642 1156 653 1136 q 632 1174 636 1165 q 622 1189 628 1182 l 571 1138 l 515 1086 l 372 1086 l 547 1269 l 711 1269 z "},"Ë":{"ha":842,"x_min":49,"x_max":893,"o":"m 893 972 l 867 849 l 375 849 l 315 561 l 783 561 l 757 436 l 289 436 l 222 125 l 731 125 l 704 0 l 49 0 l 256 972 l 893 972 m 413 1246 l 564 1246 l 531 1090 l 379 1090 l 413 1246 m 689 1246 l 840 1246 l 806 1090 l 656 1090 l 689 1246 z "},"Ì":{"ha":386,"x_min":49,"x_max":408,"o":"m 408 1081 l 300 1081 l 193 1269 l 354 1269 l 408 1081 m 49 0 l 256 972 l 403 972 l 196 0 l 49 0 z "},"Í":{"ha":386,"x_min":49,"x_max":588,"o":"m 588 1269 l 396 1081 l 276 1081 l 407 1269 l 588 1269 m 49 0 l 256 972 l 403 972 l 196 0 l 49 0 z "},"Î":{"ha":386,"x_min":49,"x_max":564,"o":"m 256 972 l 403 972 l 196 0 l 49 0 l 256 972 m 471 1269 l 564 1086 l 443 1086 l 413 1135 q 401 1156 413 1136 q 392 1174 396 1165 q 382 1189 388 1182 l 331 1138 l 275 1086 l 132 1086 l 307 1269 l 471 1269 z "},"Ï":{"ha":386,"x_min":49,"x_max":600,"o":"m 403 972 l 196 0 l 49 0 l 256 972 l 403 972 m 324 1246 l 290 1090 l 139 1090 l 172 1246 l 324 1246 m 449 1246 l 600 1246 l 565 1090 l 415 1090 l 449 1246 z "},"Ð":{"ha":1011,"x_min":58,"x_max":982,"o":"m 151 435 l 71 435 l 94 546 l 175 546 l 265 972 l 526 972 q 867 864 750 972 q 982 554 982 756 q 724 72 982 218 q 432 0 601 0 l 58 0 l 151 435 m 424 125 q 783 335 679 125 q 832 554 832 436 q 761 771 832 693 q 514 849 688 849 l 386 849 l 322 546 l 482 546 l 458 435 l 299 435 l 233 125 l 424 125 z "},"Ñ":{"ha":1072,"x_min":49,"x_max":1088,"o":"m 256 972 l 453 972 l 776 186 l 800 317 l 942 972 l 1088 972 l 882 0 l 706 0 l 368 821 l 343 696 l 196 0 l 49 0 l 256 972 m 453 1115 q 600 1260 472 1260 q 707 1228 643 1260 q 788 1201 758 1201 q 839 1246 832 1201 l 947 1246 q 803 1097 928 1097 q 696 1126 764 1097 q 614 1151 639 1151 q 561 1115 568 1151 l 453 1115 z "},"Ò":{"ha":1064,"x_min":93,"x_max":1035,"o":"m 93 407 q 351 922 93 761 q 617 996 471 996 q 919 875 803 996 q 1035 567 1035 756 q 778 51 1035 208 q 513 -22 658 -22 q 146 182 251 -22 q 93 407 93 281 m 243 407 q 318 183 243 264 q 518 101 393 101 q 779 232 675 101 q 885 567 885 363 q 811 789 885 707 q 611 871 736 871 q 292 647 392 871 q 243 407 243 538 m 646 1269 l 700 1081 l 592 1081 l 485 1269 l 646 1269 z "},"Ó":{"ha":1064,"x_min":93,"x_max":1035,"o":"m 351 922 q 617 996 471 996 q 919 875 803 996 q 1035 567 1035 756 q 778 51 1035 208 q 513 -22 658 -22 q 208 96 322 -22 q 93 407 93 215 q 351 922 93 761 m 318 183 q 518 101 393 101 q 779 232 675 101 q 885 567 885 363 q 811 789 885 707 q 611 871 736 871 q 292 647 394 871 q 243 407 243 538 q 318 183 243 264 m 879 1269 l 688 1081 l 568 1081 l 699 1269 l 879 1269 z "},"Ô":{"ha":1064,"x_min":93,"x_max":1035,"o":"m 351 922 q 617 996 471 996 q 919 875 803 996 q 1035 567 1035 756 q 778 51 1035 208 q 513 -22 658 -22 q 208 96 322 -22 q 93 407 93 215 q 351 922 93 761 m 243 407 q 318 183 243 264 q 518 101 393 101 q 779 232 675 101 q 885 567 885 363 q 811 789 885 707 q 611 871 736 871 q 292 647 392 871 q 243 407 243 538 m 599 1269 l 763 1269 l 856 1086 l 735 1086 l 704 1135 q 693 1156 704 1136 q 683 1174 688 1165 q 674 1189 679 1182 l 622 1138 l 567 1086 l 424 1086 l 599 1269 z "},"Õ":{"ha":1064,"x_min":93,"x_max":1035,"o":"m 351 922 q 617 996 471 996 q 919 875 803 996 q 1035 567 1035 756 q 778 51 1035 208 q 513 -22 658 -22 q 208 96 322 -22 q 93 407 93 215 q 351 922 93 761 m 318 183 q 518 101 393 101 q 779 232 675 101 q 885 567 885 363 q 811 789 885 707 q 611 871 736 871 q 292 647 394 871 q 243 407 243 538 q 318 183 243 264 m 417 1115 q 564 1260 436 1260 q 671 1228 607 1260 q 751 1201 722 1201 q 803 1246 796 1201 l 911 1246 q 767 1097 892 1097 q 660 1126 728 1097 q 578 1151 603 1151 q 525 1115 532 1151 l 417 1115 z "},"Ö":{"ha":1064,"x_min":93,"x_max":1035,"o":"m 93 407 q 351 922 93 761 q 617 996 471 996 q 919 875 803 996 q 1035 567 1035 756 q 778 51 1035 208 q 513 -22 658 -22 q 146 182 251 -22 q 93 407 93 281 m 243 407 q 318 183 243 264 q 518 101 393 101 q 779 232 675 101 q 885 567 885 363 q 811 789 885 707 q 611 871 736 871 q 292 647 392 871 q 243 407 243 538 m 615 1246 l 582 1090 l 431 1090 l 464 1246 l 615 1246 m 740 1246 l 892 1246 l 857 1090 l 707 1090 l 740 1246 z "},"×":{"ha":814,"x_min":103,"x_max":742,"o":"m 189 97 l 103 183 l 339 417 l 106 647 l 192 733 l 422 501 l 653 733 l 740 647 l 508 417 l 742 183 l 656 97 l 424 332 l 189 97 z "},"Ø":{"ha":1064,"x_min":32,"x_max":1097,"o":"m 163 153 q 93 407 93 260 q 351 922 93 761 q 617 996 471 996 q 893 901 778 996 l 1017 1029 l 1097 951 l 967 817 q 1035 567 1035 715 q 778 51 1035 208 q 513 -22 658 -22 q 239 68 350 -22 l 118 -57 l 32 18 l 163 153 m 243 407 q 269 261 243 324 l 796 803 q 611 871 728 871 q 292 647 392 871 q 243 407 243 538 m 335 167 q 518 101 408 101 q 779 232 675 101 q 885 567 885 363 q 860 707 885 646 l 335 167 z "},"Ù":{"ha":986,"x_min":110,"x_max":1011,"o":"m 110 282 q 122 397 110 336 l 243 972 l 392 972 l 269 400 q 261 344 264 368 q 258 300 258 319 q 457 101 258 101 q 742 399 678 101 l 864 972 l 1011 972 l 882 365 q 450 -22 799 -22 q 199 58 288 -22 q 110 282 110 139 m 700 1081 l 592 1081 l 485 1269 l 646 1269 l 700 1081 z "},"Ú":{"ha":986,"x_min":110,"x_max":1011,"o":"m 110 282 q 122 397 110 336 l 243 972 l 392 972 l 269 400 q 261 344 264 368 q 258 300 258 319 q 457 101 258 101 q 742 399 678 101 l 864 972 l 1011 972 l 882 365 q 450 -22 799 -22 q 199 58 288 -22 q 110 282 110 139 m 699 1269 l 879 1269 l 688 1081 l 568 1081 l 699 1269 z "},"Û":{"ha":986,"x_min":110,"x_max":1011,"o":"m 110 282 q 122 397 110 336 l 243 972 l 392 972 l 269 400 q 261 344 264 368 q 258 300 258 319 q 457 101 258 101 q 742 399 678 101 l 864 972 l 1011 972 l 882 365 q 450 -22 799 -22 q 199 58 288 -22 q 110 282 110 139 m 763 1269 l 856 1086 l 735 1086 l 704 1135 q 693 1156 704 1136 q 683 1174 688 1165 q 674 1189 679 1182 l 622 1138 l 567 1086 l 424 1086 l 599 1269 l 763 1269 z "},"Ü":{"ha":986,"x_min":110,"x_max":1011,"o":"m 243 972 l 392 972 l 269 400 q 261 344 264 368 q 258 300 258 319 q 457 101 258 101 q 742 399 678 101 l 864 972 l 1011 972 l 882 365 q 450 -22 799 -22 q 199 58 288 -22 q 110 282 110 139 q 122 397 110 336 l 243 972 m 464 1246 l 615 1246 l 582 1090 l 431 1090 l 464 1246 m 740 1246 l 892 1246 l 857 1090 l 707 1090 l 740 1246 z "},"Ý":{"ha":856,"x_min":149,"x_max":982,"o":"m 463 538 q 501 590 481 564 q 543 643 521 615 l 804 972 l 982 972 l 518 413 l 429 0 l 283 0 l 371 415 l 149 972 l 301 972 l 463 538 m 800 1269 l 608 1081 l 489 1081 l 619 1269 l 800 1269 z "},"Þ":{"ha":854,"x_min":49,"x_max":838,"o":"m 403 972 l 364 789 l 528 789 q 750 719 664 789 q 838 532 838 646 q 740 307 838 386 q 485 226 643 226 l 244 226 l 196 0 l 49 0 l 256 972 l 403 972 m 481 350 q 689 525 689 350 q 644 626 689 589 q 515 665 597 665 l 338 665 l 271 350 l 481 350 z "},"ß":{"ha":819,"x_min":26,"x_max":826,"o":"m 174 697 q 296 915 203 839 q 533 996 389 996 q 744 929 663 996 q 826 753 826 860 q 763 585 826 654 q 590 490 699 514 q 743 278 743 433 q 649 57 743 140 q 413 -22 557 -22 q 265 8 328 -22 l 289 121 q 401 97 347 97 q 547 144 494 97 q 604 283 604 194 q 557 401 604 358 q 425 443 508 443 l 381 443 l 403 553 l 465 553 q 628 604 568 553 q 689 744 689 657 q 647 847 689 807 q 535 886 607 886 q 307 682 353 886 l 163 0 l 26 0 l 174 697 z "},"à":{"ha":814,"x_min":51,"x_max":789,"o":"m 531 186 q 592 390 592 276 q 551 526 592 474 q 426 585 507 585 q 250 488 317 585 q 190 285 190 401 q 229 149 190 201 q 353 86 272 86 q 531 186 461 86 m 118 65 q 51 276 51 146 q 146 563 51 440 q 411 694 250 694 q 629 557 567 694 l 636 604 l 651 672 l 789 672 l 646 0 l 508 0 l 526 72 q 314 -22 453 -22 q 118 65 189 -22 m 538 781 l 429 781 l 322 969 l 483 969 l 538 781 z "},"á":{"ha":814,"x_min":51,"x_max":789,"o":"m 531 186 q 592 390 592 276 q 551 526 592 474 q 426 585 507 585 q 250 488 317 585 q 190 285 190 401 q 229 149 190 201 q 353 86 272 86 q 531 186 461 86 m 118 65 q 51 276 51 146 q 146 563 51 440 q 411 694 250 694 q 629 557 567 694 l 636 604 l 651 672 l 789 672 l 646 0 l 508 0 l 526 72 q 314 -22 453 -22 q 118 65 189 -22 m 525 781 l 406 781 l 536 969 l 717 969 l 525 781 z "},"â":{"ha":814,"x_min":51,"x_max":789,"o":"m 531 186 q 592 390 592 276 q 551 526 592 474 q 426 585 507 585 q 250 488 317 585 q 190 285 190 401 q 229 149 190 201 q 353 86 272 86 q 531 186 461 86 m 118 65 q 51 276 51 146 q 146 563 51 440 q 411 694 250 694 q 629 557 567 694 l 636 604 l 651 672 l 789 672 l 646 0 l 508 0 l 526 72 q 314 -22 453 -22 q 118 65 189 -22 m 261 786 l 436 969 l 600 969 l 693 786 l 572 786 l 542 835 q 531 856 542 836 q 521 874 525 865 q 511 889 517 882 l 460 838 l 404 786 l 261 786 z "},"ã":{"ha":814,"x_min":51,"x_max":789,"o":"m 531 186 q 592 390 592 276 q 551 526 592 474 q 426 585 507 585 q 250 488 317 585 q 190 285 190 401 q 229 149 190 201 q 353 86 272 86 q 531 186 461 86 m 118 65 q 51 276 51 146 q 146 563 51 440 q 411 694 250 694 q 629 557 567 694 l 636 604 l 651 672 l 789 672 l 646 0 l 508 0 l 526 72 q 314 -22 453 -22 q 118 65 189 -22 m 553 806 q 497 826 526 811 q 471 838 482 833 q 453 846 460 843 q 415 851 440 851 q 363 815 369 851 l 254 815 q 401 960 275 960 q 454 953 426 960 q 508 928 476 944 q 534 916 524 921 q 551 908 544 911 q 589 901 575 901 q 640 946 633 901 l 749 946 q 604 797 729 797 q 553 806 575 797 z "},"ä":{"ha":814,"x_min":51,"x_max":789,"o":"m 531 186 q 592 390 592 276 q 551 526 592 474 q 426 585 507 585 q 250 488 317 585 q 190 285 190 401 q 229 149 190 201 q 353 86 272 86 q 531 186 461 86 m 118 65 q 51 276 51 146 q 146 563 51 440 q 411 694 250 694 q 629 557 567 694 l 636 604 l 651 672 l 789 672 l 646 0 l 508 0 l 526 72 q 314 -22 453 -22 q 118 65 189 -22 m 419 790 l 268 790 l 301 946 l 453 946 l 419 790 m 694 790 l 544 790 l 578 946 l 729 946 l 694 790 z "},"å":{"ha":814,"x_min":51,"x_max":789,"o":"m 531 186 q 592 390 592 276 q 551 526 592 474 q 426 585 507 585 q 250 488 317 585 q 190 285 190 401 q 229 149 190 201 q 353 86 272 86 q 531 186 461 86 m 546 878 q 504 919 546 919 q 450 857 450 919 q 463 828 450 838 q 492 815 472 815 q 546 878 546 815 m 118 65 q 51 276 51 146 q 146 563 51 440 q 411 694 250 694 q 629 557 567 694 l 636 604 l 651 672 l 789 672 l 646 0 l 508 0 l 526 72 q 314 -22 453 -22 q 118 65 189 -22 m 404 774 q 371 850 371 804 q 411 953 371 910 q 513 994 450 994 q 593 963 561 994 q 625 883 625 931 q 585 782 625 822 q 483 742 544 742 q 404 774 439 742 z "},"æ":{"ha":1199,"x_min":36,"x_max":1146,"o":"m 36 179 q 115 342 36 285 q 311 406 194 396 l 440 414 q 525 492 525 419 q 400 589 525 589 q 249 479 267 589 l 104 479 q 199 636 119 579 q 399 694 278 694 q 618 586 556 694 q 867 694 719 694 q 1069 619 992 694 q 1146 417 1146 543 q 1144 377 1146 397 q 1139 338 1142 357 l 1133 307 l 629 307 q 628 271 628 301 q 672 136 628 188 q 800 86 718 86 q 968 193 924 86 l 1111 193 q 1003 36 1086 93 q 794 -22 919 -22 q 532 135 601 -22 q 258 -22 446 -22 q 100 33 164 -22 q 36 179 36 88 m 290 83 q 413 131 361 83 q 482 251 465 178 l 501 339 q 422 314 476 318 l 342 304 q 175 185 175 285 q 290 83 175 83 m 1008 406 l 1011 443 q 861 589 1011 589 q 726 539 782 589 q 650 406 669 488 l 1008 406 z "},"ç":{"ha":753,"x_min":53,"x_max":717,"o":"m 53 276 q 239 642 53 529 q 435 694 325 694 q 643 622 571 694 q 717 417 717 549 l 581 417 l 581 422 q 432 585 581 585 q 258 494 328 585 q 192 281 192 407 q 238 139 192 190 q 364 86 286 86 q 540 219 500 86 l 682 219 q 394 -21 629 -3 l 344 -74 q 454 -176 454 -83 q 410 -264 454 -231 q 297 -299 367 -299 q 136 -225 193 -299 l 199 -167 q 293 -218 236 -218 q 354 -175 354 -218 q 299 -136 354 -136 l 268 -139 l 233 -85 l 293 -18 q 117 78 181 1 q 53 276 53 154 z "},"è":{"ha":756,"x_min":51,"x_max":704,"o":"m 229 640 q 421 694 313 694 q 629 618 553 694 q 704 415 704 540 q 702 374 704 394 q 697 335 700 354 l 692 307 l 188 307 q 186 271 186 301 q 231 138 186 186 q 358 86 276 86 q 528 193 488 86 l 669 193 q 561 36 644 92 q 353 -22 478 -22 q 135 58 215 -22 q 51 271 51 138 q 229 640 51 524 m 567 406 l 569 444 q 419 589 569 589 q 285 539 340 589 q 208 406 229 492 l 567 406 m 449 969 l 503 781 l 394 781 l 288 969 l 449 969 z "},"é":{"ha":756,"x_min":51,"x_max":704,"o":"m 229 640 q 421 694 313 694 q 629 618 553 694 q 704 415 704 540 q 702 374 704 394 q 697 335 700 354 l 692 307 l 188 307 q 186 271 186 301 q 231 138 186 186 q 358 86 276 86 q 528 193 488 86 l 669 193 q 561 36 644 92 q 353 -22 478 -22 q 135 58 215 -22 q 51 271 51 138 q 229 640 51 524 m 567 406 l 569 444 q 419 589 569 589 q 285 539 340 589 q 208 406 229 492 l 567 406 m 501 969 l 682 969 l 490 781 l 371 781 l 501 969 z "},"ê":{"ha":756,"x_min":51,"x_max":704,"o":"m 51 271 q 229 640 51 524 q 421 694 313 694 q 629 618 553 694 q 704 415 704 540 q 702 374 704 394 q 697 335 700 354 l 692 307 l 188 307 q 186 271 186 301 q 231 138 186 186 q 358 86 276 86 q 528 193 488 86 l 669 193 q 561 36 644 92 q 353 -22 478 -22 q 135 58 215 -22 q 51 271 51 138 m 567 406 l 569 444 q 419 589 569 589 q 285 539 340 589 q 208 406 229 492 l 567 406 m 401 969 l 565 969 l 658 786 l 538 786 l 507 835 q 496 856 507 836 q 486 874 490 865 q 476 889 482 882 l 425 838 l 369 786 l 226 786 l 401 969 z "},"ë":{"ha":756,"x_min":51,"x_max":704,"o":"m 51 271 q 229 640 51 524 q 421 694 313 694 q 629 618 553 694 q 704 415 704 540 q 702 374 704 394 q 697 335 700 354 l 692 307 l 188 307 q 186 271 186 301 q 231 138 186 186 q 358 86 276 86 q 528 193 488 86 l 669 193 q 561 36 644 92 q 353 -22 478 -22 q 135 58 215 -22 q 51 271 51 138 m 567 406 l 569 444 q 419 589 569 589 q 285 539 340 589 q 208 406 229 492 l 567 406 m 265 946 l 417 946 l 383 790 l 232 790 l 265 946 m 542 946 l 693 946 l 658 790 l 508 790 l 542 946 z "},"ì":{"ha":331,"x_min":25,"x_max":319,"o":"m 319 781 l 211 781 l 104 969 l 265 969 l 319 781 m 306 672 l 163 0 l 25 0 l 168 672 l 306 672 z "},"í":{"ha":331,"x_min":25,"x_max":499,"o":"m 318 969 l 499 969 l 307 781 l 188 781 l 318 969 m 306 672 l 163 0 l 25 0 l 168 672 l 306 672 z "},"î":{"ha":331,"x_min":25,"x_max":475,"o":"m 168 672 l 306 672 l 163 0 l 25 0 l 168 672 m 382 969 l 475 786 l 354 786 l 324 835 q 313 856 324 836 q 303 874 307 865 q 293 889 299 882 l 242 838 l 186 786 l 43 786 l 218 969 l 382 969 z "},"ï":{"ha":331,"x_min":25,"x_max":511,"o":"m 168 672 l 306 672 l 163 0 l 25 0 l 168 672 m 235 946 l 201 790 l 50 790 l 83 946 l 235 946 m 360 946 l 511 946 l 476 790 l 326 790 l 360 946 z "},"ð":{"ha":794,"x_min":51,"x_max":789,"o":"m 51 275 q 229 640 51 524 q 410 694 310 694 q 603 603 533 694 q 582 672 596 633 q 564 718 575 696 q 538 764 553 740 l 381 719 l 351 815 l 465 849 q 368 921 419 890 l 474 1001 q 607 889 550 956 l 763 933 l 789 836 l 668 801 q 749 485 749 663 q 565 46 749 183 q 349 -22 476 -22 q 89 121 165 -22 q 51 275 51 188 m 233 136 q 356 86 276 86 q 561 242 493 86 q 593 397 593 317 q 550 535 593 488 q 429 585 506 585 q 260 494 331 585 q 190 274 190 401 q 233 136 190 185 z "},"ñ":{"ha":765,"x_min":26,"x_max":742,"o":"m 306 672 l 288 599 q 494 694 372 694 q 646 636 592 694 q 699 476 699 576 q 689 389 699 426 l 606 0 l 469 0 l 550 386 q 558 460 558 425 q 442 585 558 585 q 318 535 369 585 q 247 399 267 485 l 163 0 l 26 0 l 168 672 l 306 672 m 247 815 q 394 960 267 960 q 501 928 438 960 q 582 901 553 901 q 633 946 626 901 l 742 946 q 597 797 722 797 q 490 826 558 797 q 408 851 433 851 q 356 815 363 851 l 247 815 z "},"ò":{"ha":785,"x_min":51,"x_max":731,"o":"m 51 275 q 240 642 51 525 q 433 694 331 694 q 649 611 567 694 q 731 394 731 529 q 543 32 731 146 q 350 -22 456 -22 q 89 119 165 -22 q 51 275 51 188 m 190 274 q 233 136 190 185 q 356 86 276 86 q 561 242 493 86 q 593 397 593 317 q 550 535 593 488 q 429 585 506 585 q 222 431 293 585 q 190 274 190 356 m 460 969 l 514 781 l 406 781 l 299 969 l 460 969 z "},"ó":{"ha":785,"x_min":51,"x_max":731,"o":"m 240 642 q 433 694 331 694 q 649 611 567 694 q 731 394 731 529 q 543 32 731 146 q 350 -22 456 -22 q 133 60 215 -22 q 51 275 51 142 q 240 642 51 525 m 233 136 q 356 86 276 86 q 561 242 493 86 q 593 397 593 317 q 550 535 593 488 q 429 585 506 585 q 260 494 331 585 q 190 274 190 401 q 233 136 190 185 m 692 969 l 500 781 l 381 781 l 511 969 l 692 969 z "},"ô":{"ha":785,"x_min":51,"x_max":731,"o":"m 51 275 q 240 642 51 525 q 433 694 331 694 q 649 611 567 694 q 731 394 731 529 q 543 32 731 146 q 350 -22 456 -22 q 89 119 165 -22 q 51 275 51 188 m 190 274 q 233 136 190 185 q 356 86 276 86 q 561 242 493 86 q 593 397 593 317 q 550 535 593 488 q 429 585 506 585 q 222 431 293 585 q 190 274 190 356 m 411 969 l 575 969 l 668 786 l 547 786 l 517 835 q 506 856 517 836 q 496 874 500 865 q 486 889 492 882 l 435 838 l 379 786 l 236 786 l 411 969 z "},"õ":{"ha":785,"x_min":51,"x_max":731,"o":"m 240 642 q 433 694 331 694 q 649 611 567 694 q 731 394 731 529 q 543 32 731 146 q 350 -22 456 -22 q 133 60 215 -22 q 51 275 51 142 q 240 642 51 525 m 190 274 q 233 136 190 185 q 356 86 276 86 q 561 242 493 86 q 593 397 593 317 q 550 535 593 488 q 429 585 506 585 q 222 431 293 585 q 190 274 190 356 m 229 815 q 376 960 249 960 q 483 928 419 960 q 564 901 535 901 q 615 946 608 901 l 724 946 q 579 797 704 797 q 472 826 540 797 q 390 851 415 851 q 338 815 344 851 l 229 815 z "},"ö":{"ha":785,"x_min":51,"x_max":731,"o":"m 51 275 q 240 642 51 525 q 433 694 331 694 q 649 611 567 694 q 731 394 731 529 q 543 32 731 146 q 350 -22 456 -22 q 89 119 165 -22 q 51 275 51 188 m 190 274 q 233 136 190 185 q 356 86 276 86 q 561 242 493 86 q 593 397 593 317 q 550 535 593 488 q 429 585 506 585 q 222 431 293 585 q 190 274 190 356 m 276 946 l 428 946 l 394 790 l 243 790 l 276 946 m 704 946 l 669 790 l 519 790 l 553 946 l 704 946 z "},"÷":{"ha":806,"x_min":90,"x_max":750,"o":"m 750 475 l 750 357 l 90 357 l 90 475 l 750 475 m 490 606 l 349 606 l 349 750 l 490 750 l 490 606 m 349 226 l 490 226 l 490 83 l 349 83 l 349 226 z "},"ø":{"ha":785,"x_min":0,"x_max":786,"o":"m 96 106 q 51 275 51 179 q 240 642 51 525 q 433 694 331 694 q 615 640 538 694 l 708 736 l 786 665 l 688 563 q 731 394 731 494 q 543 32 731 146 q 350 -22 456 -22 q 169 29 242 -22 l 79 -62 l 0 7 l 96 106 m 190 274 q 192 243 190 258 q 197 210 194 228 l 531 553 q 429 585 490 585 q 222 431 293 585 q 190 274 190 356 m 254 117 q 356 86 293 86 q 561 242 493 86 q 593 397 593 317 q 586 460 593 421 l 254 117 z "},"ù":{"ha":760,"x_min":68,"x_max":736,"o":"m 68 199 q 78 285 68 247 l 160 672 l 297 672 l 215 283 q 207 215 207 246 q 325 88 207 88 q 517 288 475 88 l 599 672 l 736 672 l 593 0 l 458 0 l 463 21 l 476 72 q 272 -22 399 -22 q 121 39 174 -22 q 68 199 68 100 m 529 781 l 421 781 l 314 969 l 475 969 l 529 781 z "},"ú":{"ha":760,"x_min":68,"x_max":736,"o":"m 68 199 q 78 285 68 247 l 160 672 l 297 672 l 215 283 q 207 215 207 246 q 325 88 207 88 q 517 288 475 88 l 599 672 l 736 672 l 593 0 l 458 0 l 463 21 l 476 72 q 272 -22 399 -22 q 121 39 174 -22 q 68 199 68 100 m 708 969 l 517 781 l 397 781 l 528 969 l 708 969 z "},"û":{"ha":760,"x_min":68,"x_max":736,"o":"m 160 672 l 297 672 l 215 283 q 207 215 207 246 q 325 88 207 88 q 517 288 475 88 l 599 672 l 736 672 l 593 0 l 458 0 l 463 21 l 476 72 q 272 -22 399 -22 q 121 39 175 -22 q 68 199 68 99 q 78 285 68 247 l 160 672 m 428 969 l 592 969 l 685 786 l 564 786 l 533 835 q 522 856 533 836 q 513 874 517 865 q 503 889 508 882 l 451 838 l 396 786 l 253 786 l 428 969 z "},"ü":{"ha":760,"x_min":68,"x_max":736,"o":"m 160 672 l 297 672 l 215 283 q 207 215 207 246 q 325 88 207 88 q 517 288 475 88 l 599 672 l 736 672 l 593 0 l 458 0 l 463 21 l 476 72 q 272 -22 399 -22 q 121 39 175 -22 q 68 199 68 99 q 78 285 68 247 l 160 672 m 443 946 l 410 790 l 258 790 l 292 946 l 443 946 m 568 946 l 719 946 l 685 790 l 535 790 l 568 946 z "},"ý":{"ha":682,"x_min":19,"x_max":740,"o":"m 206 19 l 88 672 l 228 672 l 308 165 l 351 250 l 588 672 l 740 672 l 175 -289 l 19 -289 l 206 19 m 656 969 l 464 781 l 344 781 l 475 969 l 656 969 z "},"þ":{"ha":818,"x_min":-35,"x_max":764,"o":"m 231 972 l 368 972 l 299 644 l 288 599 q 501 694 381 694 q 688 611 610 694 q 764 393 764 526 q 594 35 764 154 q 411 -22 514 -22 q 186 111 250 -22 l 171 32 l 103 -289 l -35 -289 l 231 972 m 271 140 q 392 86 317 86 q 558 175 490 86 q 625 389 625 263 q 581 528 625 471 q 460 585 535 585 q 294 496 363 585 q 225 282 225 406 q 271 140 225 194 z "},"ÿ":{"ha":682,"x_min":19,"x_max":740,"o":"m 88 672 l 228 672 l 308 165 l 351 250 l 588 672 l 740 672 l 175 -289 l 19 -289 l 206 19 l 88 672 m 392 946 l 358 790 l 207 790 l 240 946 l 392 946 m 668 946 l 633 790 l 483 790 l 517 946 l 668 946 z "},"Ā":{"ha":961,"x_min":-71,"x_max":886,"o":"m 533 972 l 700 972 l 886 0 l 733 0 l 686 281 l 261 281 l 96 0 l -71 0 l 533 972 m 667 404 l 593 847 l 544 761 l 335 404 l 667 404 m 463 1222 l 876 1222 l 853 1111 l 439 1111 l 463 1222 z "},"ā":{"ha":814,"x_min":51,"x_max":789,"o":"m 531 186 q 592 390 592 276 q 551 526 592 474 q 426 585 507 585 q 250 488 317 585 q 190 285 190 401 q 229 149 190 201 q 353 86 272 86 q 531 186 461 86 m 118 65 q 51 276 51 146 q 146 563 51 440 q 411 694 250 694 q 629 557 567 694 l 636 604 l 651 672 l 789 672 l 646 0 l 508 0 l 526 72 q 314 -22 453 -22 q 118 65 189 -22 m 694 811 l 281 811 l 304 924 l 718 924 l 694 811 z "},"Ă":{"ha":961,"x_min":-71,"x_max":886,"o":"m 700 972 l 886 0 l 733 0 l 686 281 l 261 281 l 96 0 l -71 0 l 533 972 l 700 972 m 667 404 l 593 847 l 544 761 l 335 404 l 667 404 m 478 1228 q 482 1268 478 1247 l 586 1268 q 585 1247 585 1265 q 651 1182 585 1182 q 754 1268 733 1182 l 863 1268 q 644 1078 826 1078 q 524 1118 568 1078 q 478 1228 478 1157 z "},"ă":{"ha":814,"x_min":51,"x_max":789,"o":"m 531 186 q 592 390 592 276 q 551 526 592 474 q 426 585 507 585 q 250 488 317 585 q 190 285 190 401 q 229 149 190 201 q 353 86 272 86 q 531 186 461 86 m 118 65 q 51 276 51 146 q 146 563 51 440 q 411 694 250 694 q 629 557 567 694 l 636 604 l 651 672 l 789 672 l 646 0 l 508 0 l 526 72 q 314 -22 453 -22 q 118 65 189 -22 m 367 817 q 318 929 318 858 q 322 969 318 949 l 426 969 q 425 949 425 967 q 443 900 425 917 q 492 882 461 882 q 594 969 574 882 l 703 969 q 485 778 667 778 q 367 817 411 778 z "},"Ą":{"ha":961,"x_min":-71,"x_max":886,"o":"m 700 972 l 886 0 q 756 -124 756 -64 q 815 -171 756 -171 q 871 -160 838 -171 l 850 -256 q 764 -274 815 -274 q 669 -242 706 -274 q 633 -154 633 -208 q 764 0 633 -51 l 733 0 l 686 281 l 261 281 l 96 0 l -71 0 l 533 972 l 700 972 m 593 847 l 544 761 l 335 404 l 667 404 l 593 847 z "},"ą":{"ha":814,"x_min":51,"x_max":789,"o":"m 51 276 q 224 636 51 514 q 411 694 304 694 q 629 557 564 694 q 634 592 631 571 q 644 644 638 614 l 651 672 l 789 672 l 646 0 q 513 -124 513 -61 q 574 -171 513 -171 q 631 -160 597 -171 l 610 -256 q 524 -274 569 -274 q 431 -242 467 -274 q 396 -154 396 -208 q 508 1 396 -61 l 526 72 q 314 -22 447 -22 q 86 115 156 -22 q 51 276 51 179 m 190 285 q 233 142 190 197 q 353 86 276 86 q 521 174 450 86 q 592 390 592 263 q 547 532 592 476 q 426 585 501 585 q 222 438 286 585 q 190 285 190 365 z "},"Ć":{"ha":1014,"x_min":89,"x_max":1007,"o":"m 158 706 q 351 919 228 842 q 626 996 474 996 q 964 817 868 996 q 1007 644 1007 735 l 1006 617 l 858 617 l 858 626 q 794 801 858 733 q 619 871 729 871 q 290 646 394 871 q 240 407 240 539 q 319 183 240 264 q 525 101 397 101 q 706 154 628 101 q 808 297 781 206 l 963 297 q 810 64 931 149 q 511 -22 686 -22 q 208 92 322 -22 q 89 401 89 207 q 158 706 89 569 m 701 1268 l 882 1268 l 690 1081 l 571 1081 l 701 1268 z "},"ć":{"ha":753,"x_min":53,"x_max":717,"o":"m 53 276 q 239 642 53 529 q 435 694 325 694 q 643 622 571 694 q 717 417 717 549 l 581 417 l 581 422 q 432 585 581 585 q 258 494 328 585 q 192 281 192 407 q 238 139 192 190 q 364 86 286 86 q 540 219 500 86 l 682 219 q 571 42 656 106 q 356 -22 486 -22 q 136 58 217 -22 q 53 276 53 138 m 694 969 l 503 781 l 383 781 l 514 969 l 694 969 z "},"Ĉ":{"ha":1014,"x_min":89,"x_max":1007,"o":"m 158 706 q 351 919 228 842 q 626 996 474 996 q 964 817 868 996 q 1007 644 1007 735 l 1006 617 l 858 617 l 858 626 q 794 801 858 733 q 619 871 729 871 q 290 646 394 871 q 240 407 240 539 q 319 183 240 264 q 525 101 397 101 q 706 154 628 101 q 808 297 781 206 l 963 297 q 810 64 931 149 q 511 -22 686 -22 q 208 92 322 -22 q 89 401 89 207 q 158 706 89 569 m 765 1269 l 858 1086 l 738 1086 l 707 1135 q 696 1156 707 1136 q 686 1174 690 1165 q 676 1189 682 1182 l 625 1138 l 569 1086 l 426 1086 l 601 1269 l 765 1269 z "},"ĉ":{"ha":753,"x_min":53,"x_max":717,"o":"m 53 276 q 239 642 53 529 q 435 694 325 694 q 643 622 571 694 q 717 417 717 549 l 581 417 l 581 422 q 432 585 581 585 q 258 494 328 585 q 192 281 192 407 q 238 139 192 190 q 364 86 286 86 q 540 219 500 86 l 682 219 q 571 42 656 106 q 356 -22 486 -22 q 136 58 217 -22 q 53 276 53 138 m 414 969 l 578 969 l 671 786 l 550 786 l 519 835 q 508 856 519 836 q 499 874 503 865 q 489 889 494 882 l 381 786 l 239 786 l 414 969 z "},"Ċ":{"ha":1014,"x_min":89,"x_max":1007,"o":"m 158 706 q 351 919 228 842 q 626 996 474 996 q 964 817 868 996 q 1007 644 1007 735 l 1006 617 l 858 617 l 858 626 q 794 801 858 733 q 619 871 729 871 q 290 646 394 871 q 240 407 240 539 q 319 183 240 264 q 525 101 397 101 q 706 154 628 101 q 808 297 781 206 l 963 297 q 810 64 931 149 q 511 -22 686 -22 q 208 92 322 -22 q 89 401 89 207 q 158 706 89 569 m 758 1246 l 724 1090 l 571 1090 l 604 1246 l 758 1246 z "},"ċ":{"ha":753,"x_min":53,"x_max":717,"o":"m 239 642 q 435 694 325 694 q 643 622 571 694 q 717 417 717 549 l 581 417 l 581 422 q 432 585 581 585 q 258 494 328 585 q 192 281 192 407 q 238 139 192 190 q 364 86 286 86 q 540 219 500 86 l 682 219 q 571 42 656 106 q 356 -22 486 -22 q 136 58 217 -22 q 53 276 53 138 q 239 642 53 529 m 571 946 l 536 790 l 383 790 l 417 946 l 571 946 z "},"Č":{"ha":1014,"x_min":89,"x_max":1007,"o":"m 89 401 q 158 706 89 569 q 351 919 228 842 q 626 996 474 996 q 964 817 868 996 q 1007 644 1007 735 l 1006 617 l 858 617 l 858 626 q 794 801 858 733 q 619 871 729 871 q 290 646 394 871 q 240 407 240 539 q 319 183 240 264 q 525 101 397 101 q 706 154 628 101 q 808 297 781 206 l 963 297 q 810 64 931 149 q 511 -22 686 -22 q 143 175 253 -22 q 89 401 89 271 m 654 1165 l 706 1217 l 761 1268 l 903 1268 l 728 1085 l 565 1085 l 471 1268 l 593 1268 l 654 1165 z "},"č":{"ha":753,"x_min":53,"x_max":717,"o":"m 239 642 q 435 694 325 694 q 643 622 571 694 q 717 417 717 549 l 581 417 l 581 422 q 432 585 581 585 q 258 494 328 585 q 192 281 192 407 q 238 139 192 190 q 364 86 286 86 q 540 219 500 86 l 682 219 q 571 42 656 106 q 356 -22 486 -22 q 136 58 217 -22 q 53 276 53 138 q 239 642 53 529 m 404 969 l 435 919 q 446 899 435 918 q 456 881 451 889 q 465 865 460 872 l 574 969 l 715 969 l 540 786 l 376 786 l 283 969 l 404 969 z "},"Ď":{"ha":1001,"x_min":49,"x_max":972,"o":"m 517 972 q 857 864 740 972 q 972 554 972 756 q 714 72 972 218 q 422 0 592 0 l 49 0 l 256 972 l 517 972 m 414 125 q 774 335 669 125 q 822 554 822 436 q 751 771 822 693 q 504 849 678 849 l 376 849 l 224 125 l 414 125 m 561 1269 l 592 1219 q 603 1199 592 1218 q 613 1181 608 1189 q 622 1165 617 1172 l 731 1269 l 872 1269 l 697 1086 l 533 1086 l 440 1269 l 561 1269 z "},"ď":{"ha":917,"x_min":51,"x_max":1092,"o":"m 224 636 q 411 694 304 694 q 628 558 567 694 q 644 644 629 583 l 714 972 l 851 972 l 644 0 l 508 0 l 513 22 l 526 72 q 314 -22 444 -22 q 128 57 200 -22 q 51 274 51 138 q 224 636 51 514 m 190 283 q 233 143 190 196 q 354 86 278 86 q 521 176 450 86 q 592 390 592 265 q 547 532 592 476 q 426 585 501 585 q 222 435 286 585 q 190 283 190 363 m 1065 843 q 872 669 1031 672 l 889 743 q 982 836 964 750 l 910 836 l 939 972 l 1092 972 l 1065 843 z "},"Đ":{"ha":1011,"x_min":58,"x_max":982,"o":"m 151 435 l 71 435 l 94 546 l 175 546 l 265 972 l 526 972 q 867 864 750 972 q 982 554 982 756 q 724 72 982 218 q 432 0 601 0 l 58 0 l 151 435 m 424 125 q 783 335 679 125 q 832 554 832 436 q 761 771 832 693 q 514 849 688 849 l 386 849 l 322 546 l 482 546 l 458 435 l 299 435 l 233 125 l 424 125 z "},"đ":{"ha":813,"x_min":51,"x_max":935,"o":"m 51 274 q 224 636 51 514 q 411 694 304 694 q 628 558 567 694 q 644 644 629 583 l 669 761 l 440 761 l 465 874 l 693 874 l 714 972 l 851 972 l 831 874 l 935 874 l 911 761 l 807 761 l 644 0 l 508 0 l 513 22 l 526 72 q 314 -22 444 -22 q 86 115 157 -22 q 51 274 51 179 m 233 143 q 354 86 278 86 q 521 176 450 86 q 592 390 592 265 q 547 532 592 476 q 426 585 501 585 q 222 435 289 585 q 190 283 190 363 q 233 143 190 196 z "},"Ē":{"ha":842,"x_min":49,"x_max":893,"o":"m 392 1111 l 415 1224 l 829 1224 l 806 1111 l 392 1111 m 49 0 l 256 972 l 893 972 l 867 849 l 375 849 l 315 561 l 783 561 l 757 436 l 289 436 l 222 125 l 731 125 l 704 0 l 49 0 z "},"ē":{"ha":756,"x_min":51,"x_max":704,"o":"m 229 640 q 421 694 313 694 q 629 618 553 694 q 704 415 704 540 q 702 374 704 394 q 697 335 700 354 l 692 307 l 188 307 q 186 271 186 301 q 231 138 186 186 q 358 86 276 86 q 528 193 488 86 l 669 193 q 561 36 644 92 q 353 -22 478 -22 q 135 58 215 -22 q 51 271 51 138 q 229 640 51 524 m 567 406 l 569 444 q 419 589 569 589 q 285 539 340 589 q 208 406 229 492 l 567 406 m 268 924 l 682 924 l 658 811 l 244 811 l 268 924 z "},"Ĕ":{"ha":842,"x_min":49,"x_max":893,"o":"m 893 972 l 867 849 l 375 849 l 315 561 l 783 561 l 757 436 l 289 436 l 222 125 l 731 125 l 704 0 l 49 0 l 256 972 l 893 972 m 431 1229 q 435 1269 431 1249 l 539 1269 q 538 1249 538 1267 q 604 1182 538 1182 q 707 1269 686 1182 l 815 1269 q 597 1078 779 1078 q 476 1119 519 1078 q 431 1229 431 1158 z "},"ĕ":{"ha":756,"x_min":51,"x_max":704,"o":"m 51 271 q 229 640 51 524 q 421 694 313 694 q 629 618 553 694 q 704 415 704 540 q 702 374 704 394 q 697 335 700 354 l 692 307 l 188 307 q 186 271 186 301 q 231 138 186 186 q 358 86 276 86 q 528 193 488 86 l 669 193 q 561 36 644 92 q 353 -22 478 -22 q 135 58 215 -22 q 51 271 51 138 m 567 406 l 569 444 q 419 589 569 589 q 285 539 340 589 q 208 406 229 492 l 567 406 m 283 929 q 288 969 283 949 l 392 969 q 390 949 390 967 q 457 882 390 882 q 560 969 539 882 l 668 969 q 450 778 632 778 q 329 819 372 778 q 283 929 283 858 z "},"Ė":{"ha":842,"x_min":49,"x_max":893,"o":"m 517 1090 l 550 1246 l 704 1246 l 669 1090 l 517 1090 m 49 0 l 256 972 l 893 972 l 867 849 l 375 849 l 315 561 l 783 561 l 757 436 l 289 436 l 222 125 l 731 125 l 704 0 l 49 0 z "},"ė":{"ha":756,"x_min":51,"x_max":704,"o":"m 229 640 q 421 694 313 694 q 629 618 553 694 q 704 415 704 540 q 702 374 704 394 q 697 335 700 354 l 692 307 l 188 307 q 186 271 186 301 q 231 138 186 186 q 358 86 276 86 q 528 193 488 86 l 669 193 q 561 36 644 92 q 353 -22 478 -22 q 135 58 215 -22 q 51 271 51 138 q 229 640 51 524 m 567 406 l 569 444 q 419 589 569 589 q 285 539 340 589 q 208 406 229 492 l 567 406 m 404 946 l 558 946 l 524 790 l 371 790 l 404 946 z "},"Ę":{"ha":842,"x_min":49,"x_max":893,"o":"m 256 972 l 893 972 l 867 849 l 375 849 l 315 561 l 783 561 l 757 436 l 289 436 l 222 125 l 731 125 l 704 0 q 571 -124 571 -61 q 632 -171 571 -171 q 689 -160 656 -171 l 668 -256 q 582 -274 628 -274 q 489 -242 525 -274 q 454 -154 454 -208 q 564 0 454 -64 l 49 0 l 256 972 z "},"ę":{"ha":756,"x_min":51,"x_max":704,"o":"m 51 271 q 229 640 51 524 q 421 694 313 694 q 629 618 553 694 q 704 415 704 540 q 692 307 704 354 l 188 307 q 186 271 186 301 q 231 138 186 186 q 358 86 276 86 q 528 193 488 86 l 669 193 q 447 -14 628 25 q 318 -119 318 -43 q 381 -171 318 -171 q 436 -160 400 -171 l 415 -256 q 329 -274 378 -274 q 238 -242 274 -274 q 201 -154 201 -208 q 288 -18 201 -71 q 115 78 178 0 q 51 271 51 154 m 567 406 l 569 444 q 419 589 569 589 q 285 539 340 589 q 208 406 229 492 l 567 406 z "},"Ě":{"ha":842,"x_min":49,"x_max":893,"o":"m 893 972 l 867 849 l 375 849 l 315 561 l 783 561 l 757 436 l 289 436 l 222 125 l 731 125 l 704 0 l 49 0 l 256 972 l 893 972 m 569 1219 q 581 1199 569 1218 q 590 1181 586 1189 q 600 1165 594 1172 l 708 1269 l 850 1269 l 675 1086 l 511 1086 l 418 1269 l 539 1269 l 569 1219 z "},"ě":{"ha":756,"x_min":51,"x_max":704,"o":"m 51 271 q 229 640 51 524 q 421 694 313 694 q 629 618 553 694 q 704 415 704 540 q 702 374 704 394 q 697 335 700 354 l 692 307 l 188 307 q 186 271 186 301 q 231 138 186 186 q 358 86 276 86 q 528 193 488 86 l 669 193 q 561 36 644 92 q 353 -22 478 -22 q 135 58 215 -22 q 51 271 51 138 m 567 406 l 569 444 q 419 589 569 589 q 285 539 340 589 q 208 406 229 492 l 567 406 m 422 919 q 433 899 422 918 q 443 881 439 889 q 453 865 447 872 l 561 969 l 703 969 l 528 786 l 364 786 l 271 969 l 392 969 l 422 919 z "},"Ĝ":{"ha":1036,"x_min":92,"x_max":1014,"o":"m 165 715 q 363 922 239 850 q 625 996 486 996 q 906 900 799 996 q 1014 651 1011 807 l 867 651 q 801 811 867 750 q 626 871 738 871 q 296 653 406 871 q 242 411 242 549 q 321 183 242 268 q 521 101 399 101 q 719 165 639 101 q 825 332 803 229 l 831 354 l 542 354 l 567 479 l 990 479 l 889 0 l 761 0 l 765 26 q 773 58 768 38 q 788 111 778 79 q 499 -22 688 -22 q 208 90 318 -22 q 92 411 92 208 q 165 715 92 579 m 768 1269 l 861 1086 l 740 1086 l 710 1135 q 699 1156 710 1136 q 689 1174 693 1165 q 679 1189 685 1182 l 628 1138 l 572 1086 l 429 1086 l 604 1269 l 768 1269 z "},"ĝ":{"ha":811,"x_min":11,"x_max":786,"o":"m 13 -39 l 150 -39 l 150 -49 q 307 -204 150 -204 q 501 -25 461 -204 l 517 50 q 522 75 519 61 q 531 106 525 89 q 329 14 453 14 q 135 96 213 14 q 60 303 60 176 q 231 644 60 533 q 403 694 307 694 q 626 558 568 694 l 633 604 l 640 640 l 649 672 l 786 672 l 643 -3 q 301 -312 576 -312 q 83 -240 160 -312 q 11 -62 11 -172 l 13 -39 m 199 311 q 244 175 199 226 q 365 122 290 122 q 565 271 499 122 q 593 401 593 339 q 549 533 593 481 q 429 585 503 585 q 231 451 299 585 q 199 311 199 383 m 600 969 l 693 786 l 572 786 l 542 835 q 531 856 542 836 q 521 874 525 865 q 511 889 517 882 l 460 838 l 404 786 l 261 786 l 436 969 l 600 969 z "},"Ğ":{"ha":1036,"x_min":92,"x_max":1014,"o":"m 165 715 q 363 922 239 850 q 625 996 486 996 q 906 900 799 996 q 1014 651 1011 807 l 867 651 q 801 811 867 750 q 626 871 738 871 q 296 653 406 871 q 242 411 242 549 q 321 183 242 268 q 521 101 399 101 q 719 165 639 101 q 825 332 803 229 l 831 354 l 542 354 l 567 479 l 990 479 l 889 0 l 761 0 l 765 26 q 773 58 768 38 q 788 111 778 79 q 499 -22 688 -22 q 208 90 318 -22 q 92 411 92 208 q 165 715 92 579 m 596 1269 q 594 1249 594 1267 q 661 1182 594 1182 q 764 1269 743 1182 l 872 1269 q 654 1078 836 1078 q 533 1118 578 1078 q 488 1229 488 1160 q 492 1269 488 1249 l 596 1269 z "},"ğ":{"ha":811,"x_min":11,"x_max":786,"o":"m 13 -39 l 150 -39 l 150 -49 q 307 -204 150 -204 q 501 -25 461 -204 l 517 50 q 522 75 519 61 q 531 106 525 89 q 329 14 453 14 q 135 96 213 14 q 60 303 60 176 q 231 644 60 533 q 403 694 307 694 q 626 558 568 694 l 633 604 l 640 640 l 649 672 l 786 672 l 643 -3 q 301 -312 576 -312 q 83 -240 160 -312 q 11 -62 11 -172 l 13 -39 m 199 311 q 244 175 199 226 q 365 122 290 122 q 565 271 499 122 q 593 401 593 339 q 549 533 593 481 q 429 585 503 585 q 231 451 299 585 q 199 311 199 383 m 426 969 q 425 949 425 967 q 492 882 425 882 q 594 969 574 882 l 703 969 q 485 778 667 778 q 364 818 408 778 q 318 929 318 860 q 322 969 318 949 l 426 969 z "},"Ġ":{"ha":1036,"x_min":92,"x_max":1014,"o":"m 92 411 q 165 715 92 579 q 363 922 239 850 q 625 996 486 996 q 906 900 799 996 q 1014 651 1011 807 l 867 651 q 801 811 867 750 q 626 871 738 871 q 296 653 406 871 q 242 411 242 549 q 321 183 242 268 q 521 101 399 101 q 719 165 639 101 q 825 332 803 229 l 831 354 l 542 354 l 567 479 l 990 479 l 889 0 l 761 0 l 765 26 q 773 58 768 38 q 788 111 778 79 q 499 -22 688 -22 q 146 176 253 -22 q 92 411 92 274 m 607 1246 l 761 1246 l 726 1090 l 574 1090 l 607 1246 z "},"ġ":{"ha":811,"x_min":11,"x_max":786,"o":"m 13 -39 l 150 -39 l 150 -49 q 307 -204 150 -204 q 501 -25 461 -204 l 517 50 q 522 75 519 61 q 531 106 525 89 q 329 14 453 14 q 135 96 213 14 q 60 303 60 176 q 231 644 60 533 q 403 694 307 694 q 626 558 568 694 l 633 604 l 640 640 l 649 672 l 786 672 l 643 -3 q 301 -312 576 -312 q 83 -240 160 -312 q 11 -62 11 -172 l 13 -39 m 244 175 q 365 122 290 122 q 565 271 499 122 q 593 401 593 339 q 549 533 593 481 q 429 585 503 585 q 231 451 299 585 q 199 311 199 383 q 244 175 199 226 m 439 946 l 593 946 l 558 790 l 406 790 l 439 946 z "},"Ģ":{"ha":1036,"x_min":92,"x_max":1014,"o":"m 92 411 q 165 715 92 579 q 363 922 239 850 q 625 996 486 996 q 906 900 799 996 q 1014 651 1011 807 l 867 651 q 801 811 867 750 q 626 871 738 871 q 296 653 406 871 q 242 411 242 549 q 321 183 242 268 q 521 101 399 101 q 719 165 639 101 q 825 332 803 229 l 831 354 l 542 354 l 567 479 l 990 479 l 889 0 l 761 0 l 765 26 q 773 58 768 38 q 788 111 778 79 q 499 -22 688 -22 q 146 176 253 -22 q 92 411 92 274 m 540 -239 q 349 -412 504 -412 l 364 -340 q 458 -247 440 -333 l 386 -247 l 415 -111 l 567 -111 l 540 -239 z "},"ģ":{"ha":811,"x_min":11,"x_max":786,"o":"m 13 -39 l 150 -39 l 150 -49 q 307 -204 150 -204 q 501 -25 461 -204 l 517 50 q 522 75 519 61 q 531 106 525 89 q 329 14 453 14 q 135 96 213 14 q 60 303 60 176 q 231 644 60 533 q 403 694 307 694 q 626 558 568 694 l 633 604 l 640 640 l 649 672 l 786 672 l 643 -3 q 301 -312 576 -312 q 83 -240 160 -312 q 11 -62 11 -172 l 13 -39 m 199 311 q 244 175 199 226 q 365 122 290 122 q 565 271 499 122 q 593 401 593 339 q 549 533 593 481 q 429 585 503 585 q 231 451 299 585 q 199 311 199 383 m 443 917 q 636 1090 479 1088 l 621 1018 q 526 925 544 1011 l 599 925 l 569 788 l 418 788 l 443 917 z "},"Ĥ":{"ha":1022,"x_min":49,"x_max":1038,"o":"m 403 972 l 317 568 l 806 568 l 892 972 l 1038 972 l 831 0 l 685 0 l 779 443 l 290 443 l 196 0 l 49 0 l 256 972 l 403 972 m 790 1269 l 883 1086 l 763 1086 l 732 1135 q 721 1156 732 1136 q 711 1174 715 1165 q 701 1189 707 1182 l 650 1138 l 594 1086 l 451 1086 l 626 1269 l 790 1269 z "},"ĥ":{"ha":765,"x_min":26,"x_max":751,"o":"m 233 972 l 371 972 l 303 656 l 289 599 q 494 694 374 694 q 646 636 592 694 q 699 476 699 576 q 689 389 699 426 l 606 0 l 469 0 l 550 386 q 558 460 558 425 q 442 585 558 585 q 318 535 369 585 q 247 399 267 485 l 163 0 l 26 0 l 233 972 m 658 1222 l 751 1039 l 631 1039 l 600 1088 q 589 1108 600 1089 q 579 1126 583 1118 q 569 1142 575 1135 l 518 1090 l 463 1039 l 319 1039 l 494 1222 l 658 1222 z "},"Ħ":{"ha":1022,"x_min":49,"x_max":1104,"o":"m 101 714 l 126 826 l 225 826 l 256 972 l 403 972 l 372 826 l 861 826 l 892 972 l 1038 972 l 1007 826 l 1104 826 l 1079 714 l 982 714 l 831 0 l 685 0 l 779 443 l 290 443 l 196 0 l 49 0 l 200 714 l 101 714 m 836 714 l 347 714 l 317 568 l 806 568 l 836 714 z "},"ħ":{"ha":765,"x_min":26,"x_max":699,"o":"m 189 761 l 83 761 l 107 874 l 213 874 l 233 972 l 371 972 l 350 874 l 578 874 l 553 761 l 325 761 l 303 656 l 289 599 q 494 694 374 694 q 646 636 592 694 q 699 476 699 576 q 689 389 699 426 l 606 0 l 469 0 l 550 386 q 558 460 558 425 q 442 585 558 585 q 318 535 369 585 q 247 399 267 485 l 163 0 l 26 0 l 189 761 z "},"Ĩ":{"ha":386,"x_min":49,"x_max":619,"o":"m 403 972 l 196 0 l 49 0 l 256 972 l 403 972 m 125 1115 q 272 1260 144 1260 q 379 1228 315 1260 q 460 1201 431 1201 q 511 1246 504 1201 l 619 1246 q 475 1097 600 1097 q 368 1126 436 1097 q 286 1151 311 1151 q 233 1115 240 1151 l 125 1115 z "},"ĩ":{"ha":331,"x_min":25,"x_max":529,"o":"m 306 672 l 163 0 l 25 0 l 168 672 l 306 672 m 35 815 q 182 960 54 960 q 289 928 225 960 q 369 901 340 901 q 421 946 414 901 l 529 946 q 385 797 510 797 q 278 826 346 797 q 196 851 221 851 q 143 815 150 851 l 35 815 z "},"Ī":{"ha":386,"x_min":49,"x_max":589,"o":"m 175 1224 l 589 1224 l 565 1111 l 151 1111 l 175 1224 m 49 0 l 256 972 l 403 972 l 196 0 l 49 0 z "},"ī":{"ha":331,"x_min":25,"x_max":499,"o":"m 85 924 l 499 924 l 475 811 l 61 811 l 85 924 m 306 672 l 163 0 l 25 0 l 168 672 l 306 672 z "},"Ĭ":{"ha":386,"x_min":49,"x_max":574,"o":"m 256 972 l 403 972 l 196 0 l 49 0 l 256 972 m 189 1229 q 193 1269 189 1249 l 297 1269 q 296 1249 296 1267 q 363 1182 296 1182 q 465 1269 444 1182 l 574 1269 q 356 1078 538 1078 q 235 1119 278 1078 q 189 1229 189 1158 z "},"ĭ":{"ha":331,"x_min":25,"x_max":485,"o":"m 306 672 l 163 0 l 25 0 l 168 672 l 306 672 m 100 929 q 104 969 100 949 l 208 969 q 207 949 207 967 q 274 882 207 882 q 376 969 356 882 l 485 969 q 267 778 449 778 q 146 819 189 778 q 100 929 100 858 z "},"Į":{"ha":386,"x_min":-58,"x_max":403,"o":"m 256 972 l 403 972 l 196 0 q 65 -124 65 -64 q 121 -171 65 -171 q 181 -160 147 -171 l 160 -253 q 74 -274 126 -274 q -21 -240 14 -274 q -58 -154 -58 -210 q 49 0 -58 -57 l 256 972 z "},"į":{"ha":331,"x_min":-87,"x_max":375,"o":"m 168 672 l 306 672 l 163 0 q 29 -124 29 -61 q 90 -171 29 -171 q 147 -160 114 -171 l 126 -256 q 40 -274 86 -274 q -53 -242 -17 -274 q -87 -154 -87 -208 q 25 1 -87 -61 l 168 672 m 375 946 l 340 790 l 188 790 l 221 946 l 375 946 z "},"İ":{"ha":386,"x_min":49,"x_max":464,"o":"m 310 1246 l 464 1246 l 429 1090 l 276 1090 l 310 1246 m 49 0 l 256 972 l 403 972 l 196 0 l 49 0 z "},"ı":{"ha":331,"x_min":25,"x_max":306,"o":"m 306 672 l 163 0 l 25 0 l 168 672 l 306 672 z "},"Ĳ":{"ha":1142,"x_min":49,"x_max":1167,"o":"m 401 264 q 403 296 401 278 q 407 336 404 314 l 553 336 q 551 306 551 321 q 550 275 550 290 q 690 101 550 101 q 881 318 832 101 l 1019 972 l 1167 972 l 1019 286 q 681 -22 954 -22 q 474 54 546 -22 q 401 264 401 131 m 403 972 l 196 0 l 49 0 l 256 972 l 403 972 z "},"ĳ":{"ha":672,"x_min":25,"x_max":714,"o":"m 193 -187 q 231 -193 206 -193 q 347 -83 325 -193 l 508 672 l 646 672 l 479 -118 q 246 -312 438 -312 q 168 -304 201 -312 l 193 -187 m 168 672 l 306 672 l 163 0 l 25 0 l 168 672 m 221 946 l 375 946 l 340 790 l 188 790 l 221 946 m 714 946 l 679 790 l 526 790 l 561 946 l 714 946 z "},"Ĵ":{"ha":756,"x_min":15,"x_max":942,"o":"m 15 264 q 17 296 15 278 q 21 336 18 314 l 167 336 q 165 306 165 321 q 164 275 164 290 q 304 101 164 101 q 494 318 446 101 l 633 972 l 781 972 l 633 286 q 294 -22 568 -22 q 88 54 160 -22 q 15 264 15 131 m 685 1269 l 849 1269 l 942 1086 l 821 1086 l 790 1135 q 779 1156 790 1136 q 769 1174 774 1165 q 760 1189 765 1182 l 708 1138 l 653 1086 l 510 1086 l 685 1269 z "},"ĵ":{"ha":342,"x_min":-162,"x_max":483,"o":"m -137 -187 q -100 -193 -125 -193 q 17 -83 -6 -193 l 178 672 l 315 672 l 149 -118 q -85 -312 107 -312 q -162 -304 -129 -312 l -137 -187 m 226 969 l 390 969 l 483 786 l 363 786 l 332 835 q 321 856 332 836 q 311 874 315 865 q 301 889 307 882 l 250 838 l 194 786 l 51 786 l 226 969 z "},"Ķ":{"ha":874,"x_min":50,"x_max":989,"o":"m 257 972 l 401 972 l 313 553 q 344 583 326 567 q 383 618 361 599 l 790 972 l 989 972 l 501 550 l 825 0 l 654 0 l 393 457 l 269 350 l 194 0 l 50 0 l 257 972 m 276 -340 q 371 -247 353 -333 l 299 -247 l 328 -111 l 479 -111 l 453 -239 q 261 -412 417 -412 l 276 -340 z "},"ķ":{"ha":689,"x_min":26,"x_max":746,"o":"m 369 972 l 249 400 l 301 450 l 556 672 l 746 672 l 403 382 l 632 0 l 468 0 l 301 296 l 210 218 l 163 0 l 26 0 l 232 972 l 369 972 m 174 -340 q 268 -247 250 -333 l 196 -247 l 225 -111 l 376 -111 l 350 -239 q 158 -412 314 -412 l 174 -340 z "},"Ĺ":{"ha":772,"x_min":49,"x_max":721,"o":"m 279 1081 l 410 1269 l 590 1269 l 399 1081 l 279 1081 m 49 0 l 256 972 l 403 972 l 224 125 l 721 125 l 694 0 l 49 0 z "},"ĺ":{"ha":331,"x_min":26,"x_max":561,"o":"m 381 1269 l 561 1269 l 369 1081 l 250 1081 l 381 1269 m 369 972 l 163 0 l 26 0 l 232 972 l 369 972 z "},"Ļ":{"ha":772,"x_min":49,"x_max":721,"o":"m 403 972 l 224 125 l 721 125 l 694 0 l 49 0 l 256 972 l 403 972 m 239 -340 q 333 -247 315 -333 l 261 -247 l 290 -111 l 442 -111 l 415 -239 q 224 -412 379 -412 l 239 -340 z "},"ļ":{"ha":331,"x_min":-71,"x_max":369,"o":"m 232 972 l 369 972 l 163 0 l 26 0 l 232 972 m -56 -340 q 39 -247 21 -333 l -33 -247 l -4 -111 l 147 -111 l 121 -239 q -71 -412 85 -412 l -56 -340 z "},"Ľ":{"ha":772,"x_min":49,"x_max":735,"o":"m 403 972 l 224 125 l 721 125 l 694 0 l 49 0 l 256 972 l 403 972 m 532 743 q 625 836 608 749 l 553 836 l 582 972 l 735 972 l 708 843 q 515 669 674 672 l 532 743 z "},"ľ":{"ha":435,"x_min":26,"x_max":597,"o":"m 369 972 l 163 0 l 26 0 l 232 972 l 369 972 m 571 843 q 378 669 536 672 l 394 743 q 488 836 471 749 l 415 836 l 444 972 l 597 972 l 571 843 z "},"Ŀ":{"ha":772,"x_min":49,"x_max":721,"o":"m 49 0 l 256 972 l 403 972 l 224 125 l 721 125 l 694 0 l 49 0 m 468 382 l 504 561 l 682 561 l 646 382 l 468 382 z "},"ŀ":{"ha":550,"x_min":26,"x_max":581,"o":"m 369 972 l 163 0 l 26 0 l 232 972 l 369 972 m 365 418 l 403 596 l 581 596 l 543 418 l 365 418 z "},"Ł":{"ha":810,"x_min":24,"x_max":739,"o":"m 242 125 l 739 125 l 713 0 l 67 0 l 139 338 l 24 290 l 51 425 l 167 472 l 274 972 l 421 972 l 329 538 l 586 642 l 558 508 l 300 403 l 242 125 z "},"ł":{"ha":472,"x_min":35,"x_max":496,"o":"m 496 601 l 469 472 l 322 411 l 235 0 l 97 0 l 172 350 l 35 293 l 63 422 l 199 479 l 304 972 l 442 972 l 350 542 l 496 601 z "},"Ń":{"ha":1072,"x_min":49,"x_max":1088,"o":"m 256 972 l 453 972 l 776 186 l 800 317 l 942 972 l 1088 972 l 882 0 l 706 0 l 368 821 l 343 696 l 196 0 l 49 0 l 256 972 m 915 1269 l 724 1081 l 604 1081 l 735 1269 l 915 1269 z "},"ń":{"ha":765,"x_min":26,"x_max":711,"o":"m 168 672 l 306 672 l 288 599 q 494 694 372 694 q 646 636 592 694 q 699 476 699 576 q 689 389 699 426 l 606 0 l 469 0 l 550 386 q 558 460 558 425 q 442 585 558 585 q 318 535 369 585 q 247 399 267 485 l 163 0 l 26 0 l 168 672 m 711 969 l 519 781 l 400 781 l 531 969 l 711 969 z "},"Ņ":{"ha":1072,"x_min":49,"x_max":1088,"o":"m 256 972 l 453 972 l 776 186 l 800 317 l 942 972 l 1088 972 l 882 0 l 706 0 l 368 821 l 343 696 l 196 0 l 49 0 l 256 972 m 528 -239 q 336 -412 492 -412 l 351 -340 q 446 -247 428 -333 l 374 -247 l 403 -111 l 554 -111 l 528 -239 z "},"ņ":{"ha":765,"x_min":26,"x_max":699,"o":"m 168 672 l 306 672 l 288 599 q 494 694 372 694 q 646 636 592 694 q 699 476 699 576 q 689 389 699 426 l 606 0 l 469 0 l 550 386 q 558 460 558 425 q 442 585 558 585 q 318 535 369 585 q 247 399 267 485 l 163 0 l 26 0 l 168 672 m 361 -239 q 169 -412 325 -412 l 185 -340 q 279 -247 261 -333 l 207 -247 l 236 -111 l 388 -111 l 361 -239 z "},"Ň":{"ha":1072,"x_min":49,"x_max":1088,"o":"m 453 972 l 776 186 l 800 317 l 942 972 l 1088 972 l 882 0 l 706 0 l 368 821 l 343 696 l 196 0 l 49 0 l 256 972 l 453 972 m 657 1219 q 668 1199 657 1218 q 678 1181 674 1189 q 688 1165 682 1172 l 796 1269 l 938 1269 l 763 1086 l 599 1086 l 506 1269 l 626 1269 l 657 1219 z "},"ň":{"ha":765,"x_min":26,"x_max":732,"o":"m 306 672 l 288 599 q 494 694 372 694 q 646 636 592 694 q 699 476 699 576 q 689 389 699 426 l 606 0 l 469 0 l 550 386 q 558 460 558 425 q 442 585 558 585 q 318 535 369 585 q 247 399 267 485 l 163 0 l 26 0 l 168 672 l 306 672 m 421 969 l 451 919 q 463 899 451 918 q 472 881 468 889 q 482 865 476 872 l 590 969 l 732 969 l 557 786 l 393 786 l 300 969 l 421 969 z "},"Ŋ":{"ha":1069,"x_min":49,"x_max":1085,"o":"m 449 972 l 782 229 l 800 329 l 938 972 l 1085 972 l 850 -132 q 618 -312 811 -312 q 522 -299 558 -312 l 547 -178 q 604 -187 568 -187 q 725 -78 704 -187 l 739 -10 l 367 819 q 342 692 358 765 l 196 0 l 49 0 l 256 972 l 449 972 z "},"ŋ":{"ha":765,"x_min":26,"x_max":699,"o":"m 306 672 l 288 599 q 494 694 372 694 q 646 636 592 694 q 699 476 699 576 q 689 389 699 426 l 581 -117 q 340 -312 536 -312 q 246 -299 283 -312 l 271 -178 q 329 -187 294 -187 q 451 -76 424 -187 l 469 0 l 550 386 q 558 460 558 425 q 442 585 558 585 q 318 535 369 585 q 247 399 267 485 l 163 0 l 26 0 l 168 672 l 306 672 z "},"Ō":{"ha":1064,"x_min":93,"x_max":1035,"o":"m 93 407 q 351 922 93 761 q 617 996 471 996 q 919 875 803 996 q 1035 567 1035 756 q 778 51 1035 208 q 513 -22 658 -22 q 146 182 251 -22 q 93 407 93 281 m 243 407 q 318 183 243 264 q 518 101 393 101 q 779 232 675 101 q 885 567 885 363 q 811 789 885 707 q 611 871 736 871 q 292 647 392 871 q 243 407 243 538 m 881 1224 l 857 1111 l 443 1111 l 467 1224 l 881 1224 z "},"ō":{"ha":785,"x_min":51,"x_max":731,"o":"m 51 275 q 240 642 51 525 q 433 694 331 694 q 649 611 567 694 q 731 394 731 529 q 543 32 731 146 q 350 -22 456 -22 q 89 119 165 -22 q 51 275 51 188 m 190 274 q 233 136 190 185 q 356 86 276 86 q 561 242 493 86 q 593 397 593 317 q 550 535 593 488 q 429 585 506 585 q 222 431 293 585 q 190 274 190 356 m 693 924 l 669 811 l 256 811 l 279 924 l 693 924 z "},"Ŏ":{"ha":1064,"x_min":93,"x_max":1035,"o":"m 93 407 q 351 922 93 761 q 617 996 471 996 q 919 875 803 996 q 1035 567 1035 756 q 778 51 1035 208 q 513 -22 658 -22 q 146 182 251 -22 q 93 407 93 281 m 318 183 q 518 101 393 101 q 779 232 675 101 q 885 567 885 363 q 811 789 885 707 q 611 871 736 871 q 292 647 394 871 q 243 407 243 538 q 318 183 243 264 m 589 1269 q 588 1249 588 1267 q 654 1182 588 1182 q 757 1269 736 1182 l 865 1269 q 647 1078 829 1078 q 526 1118 571 1078 q 481 1229 481 1160 q 485 1269 481 1249 l 589 1269 z "},"ŏ":{"ha":785,"x_min":51,"x_max":731,"o":"m 240 642 q 433 694 331 694 q 649 611 567 694 q 731 394 731 529 q 543 32 731 146 q 350 -22 456 -22 q 133 60 215 -22 q 51 275 51 142 q 240 642 51 525 m 190 274 q 233 136 190 185 q 356 86 276 86 q 561 242 493 86 q 593 397 593 317 q 550 535 593 488 q 429 585 506 585 q 222 431 293 585 q 190 274 190 356 m 403 969 q 401 949 401 967 q 468 882 401 882 q 571 969 550 882 l 679 969 q 461 778 643 778 q 340 818 385 778 q 294 929 294 860 q 299 969 294 949 l 403 969 z "},"Ő":{"ha":1064,"x_min":93,"x_max":1035,"o":"m 93 407 q 351 922 93 761 q 617 996 471 996 q 919 875 803 996 q 1035 567 1035 756 q 778 51 1035 208 q 513 -22 658 -22 q 146 182 251 -22 q 93 407 93 281 m 318 183 q 518 101 393 101 q 779 232 675 101 q 885 567 885 363 q 811 789 885 707 q 611 871 736 871 q 292 647 394 871 q 243 407 243 538 q 318 183 243 264 m 947 1269 l 781 1081 l 676 1081 l 781 1269 l 947 1269 m 565 1269 l 728 1269 l 568 1081 l 467 1081 l 565 1269 z "},"ő":{"ha":785,"x_min":51,"x_max":760,"o":"m 51 275 q 240 642 51 525 q 433 694 331 694 q 649 611 567 694 q 731 394 731 529 q 543 32 731 146 q 350 -22 456 -22 q 89 119 165 -22 q 51 275 51 188 m 233 136 q 356 86 276 86 q 561 242 493 86 q 593 397 593 317 q 550 535 593 488 q 429 585 506 585 q 260 494 331 585 q 190 274 190 401 q 233 136 190 185 m 593 969 l 760 969 l 593 781 l 489 781 l 593 969 m 378 969 l 540 969 l 381 781 l 279 781 l 378 969 z "},"Œ":{"ha":1333,"x_min":90,"x_max":1385,"o":"m 356 901 q 621 972 476 972 l 1385 972 l 1358 849 l 890 849 l 831 568 l 1276 568 l 1250 443 l 804 443 l 736 125 l 1222 125 l 1196 0 l 507 0 q 208 106 319 0 q 90 406 90 214 q 356 901 90 744 m 315 201 q 519 125 390 125 l 589 125 l 743 849 l 621 849 q 293 643 401 849 q 240 414 240 540 q 315 201 240 278 z "},"œ":{"ha":1292,"x_min":53,"x_max":1242,"o":"m 53 278 q 238 642 53 528 q 428 694 324 694 q 686 563 604 694 q 960 694 793 694 q 1167 618 1092 694 q 1242 417 1242 544 q 1240 376 1242 396 q 1235 336 1238 356 l 1231 307 l 726 307 q 725 271 725 301 q 768 138 725 185 q 894 86 814 86 q 1065 193 1025 86 l 1208 193 q 888 -22 1150 -22 q 635 100 711 -22 q 356 -22 533 -22 q 136 58 217 -22 q 53 278 53 138 m 238 138 q 363 86 285 86 q 528 176 461 86 q 593 396 593 267 q 549 535 593 482 q 425 585 504 585 q 260 496 328 585 q 192 276 192 407 q 238 138 192 189 m 1104 406 q 1106 425 1106 415 q 1107 446 1107 435 q 958 589 1107 589 q 822 539 878 589 q 746 406 765 486 l 1104 406 z "},"Ŕ":{"ha":922,"x_min":49,"x_max":924,"o":"m 256 972 l 610 972 q 846 907 764 972 q 924 735 924 844 q 856 560 924 628 q 690 467 786 490 q 814 307 814 435 q 806 232 814 271 l 756 0 l 610 0 l 658 228 q 667 297 667 267 q 511 414 667 414 l 285 414 l 196 0 l 49 0 l 256 972 m 571 539 q 718 586 663 539 q 776 710 776 632 q 589 849 776 849 l 375 849 l 310 539 l 571 539 m 638 1269 l 818 1269 l 626 1081 l 507 1081 l 638 1269 z "},"ŕ":{"ha":488,"x_min":26,"x_max":601,"o":"m 169 672 l 306 672 l 299 635 q 291 600 296 619 q 279 557 286 581 q 490 694 368 694 q 542 688 517 694 l 513 550 q 456 556 492 556 q 236 346 279 556 l 163 0 l 26 0 l 169 672 m 601 969 l 410 781 l 290 781 l 421 969 l 601 969 z "},"Ŗ":{"ha":922,"x_min":49,"x_max":924,"o":"m 256 972 l 610 972 q 846 907 764 972 q 924 735 924 844 q 856 560 924 628 q 690 467 786 490 q 814 307 814 435 q 806 232 814 271 l 756 0 l 610 0 l 658 228 q 667 297 667 267 q 511 414 667 414 l 285 414 l 196 0 l 49 0 l 256 972 m 571 539 q 718 586 663 539 q 776 710 776 632 q 589 849 776 849 l 375 849 l 310 539 l 571 539 m 461 -239 q 269 -412 425 -412 l 285 -340 q 379 -247 361 -333 l 307 -247 l 336 -111 l 488 -111 l 461 -239 z "},"ŗ":{"ha":488,"x_min":-71,"x_max":542,"o":"m 306 672 l 299 635 q 291 600 296 619 q 279 557 286 581 q 490 694 368 694 q 542 688 517 694 l 513 550 q 456 556 492 556 q 236 346 279 556 l 163 0 l 26 0 l 169 672 l 306 672 m 121 -239 q -71 -412 85 -412 l -56 -340 q 39 -247 21 -333 l -33 -247 l -4 -111 l 147 -111 l 121 -239 z "},"Ř":{"ha":922,"x_min":49,"x_max":924,"o":"m 256 972 l 610 972 q 846 907 764 972 q 924 735 924 844 q 856 560 924 628 q 690 467 786 490 q 814 307 814 435 q 806 232 814 271 l 756 0 l 610 0 l 658 228 q 667 297 667 267 q 511 414 667 414 l 285 414 l 196 0 l 49 0 l 256 972 m 571 539 q 718 586 663 539 q 776 710 776 632 q 589 849 776 849 l 375 849 l 310 539 l 571 539 m 528 1269 l 558 1219 q 569 1199 558 1218 q 579 1181 575 1189 q 589 1165 583 1172 l 697 1269 l 839 1269 l 664 1086 l 500 1086 l 407 1269 l 528 1269 z "},"ř":{"ha":488,"x_min":26,"x_max":622,"o":"m 306 672 l 299 635 q 291 600 296 619 q 279 557 286 581 q 490 694 368 694 q 542 688 517 694 l 513 550 q 456 556 492 556 q 236 346 279 556 l 163 0 l 26 0 l 169 672 l 306 672 m 311 969 l 342 919 q 353 899 342 918 q 363 881 358 889 q 372 865 367 872 l 481 969 l 622 969 l 447 786 l 283 786 l 190 969 l 311 969 z "},"Ś":{"ha":892,"x_min":47,"x_max":888,"o":"m 200 349 l 200 343 q 267 164 200 228 q 449 101 331 101 q 608 144 549 101 q 671 265 671 188 q 524 411 671 361 l 386 454 q 158 710 158 528 q 264 915 158 835 q 522 996 365 996 q 789 908 690 996 q 888 665 885 822 l 735 665 q 676 817 733 763 q 514 871 618 871 q 365 829 424 871 q 306 721 306 788 q 444 586 306 629 l 593 536 q 819 281 819 464 q 718 58 819 139 q 444 -22 617 -22 q 153 78 257 -22 q 47 349 47 175 l 200 349 m 793 1269 l 601 1081 l 482 1081 l 613 1269 l 793 1269 z "},"ś":{"ha":678,"x_min":24,"x_max":640,"o":"m 158 243 q 201 126 158 168 q 318 83 244 83 q 421 110 382 83 q 460 182 460 136 q 360 275 460 243 l 271 306 q 99 492 99 361 q 171 636 99 581 q 361 694 243 694 q 564 631 492 694 q 640 453 636 567 l 504 453 q 354 589 497 589 q 233 501 233 589 q 321 414 233 443 l 418 383 q 593 196 593 326 q 518 38 593 97 q 315 -22 442 -22 q 101 49 178 -22 q 24 243 24 119 l 158 243 m 626 969 l 435 781 l 315 781 l 446 969 l 626 969 z "},"Ŝ":{"ha":892,"x_min":47,"x_max":888,"o":"m 200 343 q 267 164 200 228 q 449 101 331 101 q 608 144 549 101 q 671 265 671 188 q 524 411 671 361 l 386 454 q 158 710 158 528 q 264 915 158 835 q 522 996 365 996 q 789 908 690 996 q 888 665 885 822 l 735 665 q 676 817 733 763 q 514 871 618 871 q 365 829 424 871 q 306 721 306 788 q 444 586 306 629 l 593 536 q 819 281 819 464 q 718 58 819 139 q 444 -22 617 -22 q 153 78 257 -22 q 47 349 47 175 l 200 349 l 200 343 m 676 1269 l 769 1086 l 649 1086 l 618 1135 q 607 1156 618 1136 q 597 1174 601 1165 q 588 1189 593 1182 l 536 1138 l 481 1086 l 338 1086 l 513 1269 l 676 1269 z "},"ŝ":{"ha":678,"x_min":24,"x_max":640,"o":"m 158 243 q 201 126 158 168 q 318 83 244 83 q 421 110 382 83 q 460 182 460 136 q 360 275 460 243 l 271 306 q 99 492 99 361 q 171 636 99 581 q 361 694 243 694 q 564 631 492 694 q 640 453 636 567 l 504 453 q 354 589 497 589 q 233 501 233 589 q 321 414 233 443 l 418 383 q 593 196 593 326 q 518 38 593 97 q 315 -22 442 -22 q 101 49 178 -22 q 24 243 24 119 l 158 243 m 510 969 l 603 786 l 482 786 l 451 835 q 440 856 451 836 q 431 874 435 865 q 421 889 426 882 l 369 838 l 314 786 l 171 786 l 346 969 l 510 969 z "},"Ş":{"ha":892,"x_min":47,"x_max":888,"o":"m 200 343 q 267 164 200 228 q 449 101 331 101 q 608 144 549 101 q 671 265 671 188 q 524 411 671 361 l 386 454 q 158 710 158 528 q 264 915 158 835 q 522 996 365 996 q 789 908 690 996 q 888 665 885 822 l 735 665 q 676 817 733 763 q 514 871 618 871 q 365 829 424 871 q 306 721 306 788 q 444 586 306 629 l 593 536 q 819 281 819 464 q 728 67 819 146 q 476 -21 635 -14 l 428 -74 q 538 -176 538 -83 q 493 -264 538 -231 q 381 -299 450 -299 q 219 -225 276 -299 l 282 -167 q 376 -218 319 -218 q 438 -175 438 -218 q 382 -136 438 -136 l 351 -139 l 317 -85 l 375 -18 q 132 97 215 1 q 47 349 47 192 l 200 349 l 200 343 z "},"ş":{"ha":678,"x_min":24,"x_max":640,"o":"m 158 243 q 201 126 158 168 q 318 83 244 83 q 421 110 382 83 q 460 182 460 136 q 360 275 460 243 l 271 306 q 99 492 99 361 q 171 636 99 581 q 361 694 243 694 q 564 631 492 694 q 640 453 636 567 l 504 453 q 354 589 497 589 q 233 501 233 589 q 321 414 233 443 l 418 383 q 593 196 593 326 q 529 47 593 106 q 356 -21 465 -11 l 306 -74 q 415 -176 415 -83 q 371 -264 415 -231 q 258 -299 328 -299 q 97 -225 154 -299 l 160 -167 q 254 -218 197 -218 q 315 -175 315 -218 q 260 -136 315 -136 l 229 -139 l 194 -85 l 254 -18 q 85 67 146 -3 q 24 243 24 136 l 158 243 z "},"Š":{"ha":892,"x_min":47,"x_max":888,"o":"m 200 349 l 200 343 q 267 164 200 228 q 449 101 331 101 q 608 144 549 101 q 671 265 671 188 q 524 411 671 361 l 386 454 q 158 710 158 528 q 264 915 158 835 q 522 996 365 996 q 789 908 690 996 q 888 665 885 822 l 735 665 q 676 817 733 763 q 514 871 618 871 q 365 829 424 871 q 306 721 306 788 q 444 586 306 629 l 593 536 q 819 281 819 464 q 718 58 819 139 q 444 -22 617 -22 q 153 78 257 -22 q 47 349 47 175 l 200 349 m 503 1269 l 533 1219 q 544 1199 533 1218 q 554 1181 550 1189 q 564 1165 558 1172 l 672 1269 l 814 1269 l 639 1086 l 475 1086 l 382 1269 l 503 1269 z "},"š":{"ha":678,"x_min":24,"x_max":649,"o":"m 158 243 q 201 126 158 168 q 318 83 244 83 q 421 110 382 83 q 460 182 460 136 q 360 275 460 243 l 271 306 q 99 492 99 361 q 171 636 99 581 q 361 694 243 694 q 564 631 492 694 q 640 453 636 567 l 504 453 q 354 589 497 589 q 233 501 233 589 q 321 414 233 443 l 418 383 q 593 196 593 326 q 518 38 593 97 q 315 -22 442 -22 q 101 49 178 -22 q 24 243 24 119 l 158 243 m 368 919 q 379 899 368 918 q 389 881 385 889 q 399 865 393 872 l 507 969 l 649 969 l 474 786 l 310 786 l 217 969 l 338 969 l 368 919 z "},"Ţ":{"ha":829,"x_min":118,"x_max":953,"o":"m 181 -167 q 275 -218 218 -218 q 336 -175 336 -218 q 281 -136 336 -136 l 250 -139 l 215 -85 l 290 0 l 269 0 l 450 849 l 119 849 l 146 972 l 953 972 l 926 849 l 596 849 l 417 0 l 394 0 l 326 -74 q 436 -176 436 -83 q 392 -264 436 -231 q 279 -299 349 -299 q 118 -225 175 -299 l 181 -167 z "},"ţ":{"ha":472,"x_min":10,"x_max":507,"o":"m 72 -167 q 167 -218 110 -218 q 228 -175 228 -218 q 172 -136 228 -136 l 142 -139 l 107 -85 l 185 3 q 115 144 115 47 q 124 214 115 176 l 197 561 l 63 561 l 86 672 l 222 672 l 271 903 l 408 903 l 360 672 l 507 672 l 483 561 l 335 561 l 260 203 q 256 164 256 182 q 339 96 256 96 q 388 100 360 96 l 361 -14 q 289 -22 333 -22 q 267 -21 269 -22 l 218 -74 q 328 -176 328 -83 q 283 -264 328 -231 q 171 -299 239 -299 q 10 -225 67 -299 l 72 -167 z "},"Ť":{"ha":829,"x_min":119,"x_max":953,"o":"m 953 972 l 926 849 l 596 849 l 417 0 l 269 0 l 450 849 l 119 849 l 146 972 l 953 972 m 519 1269 l 550 1219 q 561 1199 550 1218 q 571 1181 567 1189 q 581 1165 575 1172 l 689 1269 l 831 1269 l 656 1086 l 492 1086 l 399 1269 l 519 1269 z "},"ť":{"ha":472,"x_min":63,"x_max":640,"o":"m 86 672 l 222 672 l 271 903 l 408 903 l 360 672 l 507 672 l 483 561 l 335 561 l 260 203 q 256 164 256 182 q 339 96 256 96 q 388 100 360 96 l 361 -14 q 289 -22 333 -22 q 115 144 115 -22 q 124 214 115 176 l 197 561 l 63 561 l 86 672 m 450 785 q 539 858 524 794 l 465 858 l 489 972 l 640 972 l 619 869 q 554 765 604 800 q 436 726 503 729 l 450 785 z "},"Ŧ":{"ha":829,"x_min":119,"x_max":953,"o":"m 953 972 l 926 849 l 596 849 l 532 543 l 744 543 l 722 431 l 507 431 l 417 0 l 269 0 l 361 431 l 149 431 l 172 543 l 385 543 l 450 849 l 119 849 l 146 972 l 953 972 z "},"ŧ":{"ha":481,"x_min":38,"x_max":513,"o":"m 174 422 l 203 561 l 68 561 l 92 672 l 228 672 l 276 903 l 414 903 l 365 672 l 513 672 l 489 561 l 340 561 l 311 422 l 426 422 l 403 313 l 289 313 l 265 203 q 261 164 261 182 q 344 96 261 96 q 393 100 365 96 l 367 -14 q 294 -22 339 -22 q 121 144 121 -22 q 129 214 121 176 l 150 313 l 38 313 l 61 422 l 174 422 z "},"Ũ":{"ha":986,"x_min":110,"x_max":1011,"o":"m 243 972 l 392 972 l 269 400 q 261 344 264 368 q 258 300 258 319 q 457 101 258 101 q 742 399 678 101 l 864 972 l 1011 972 l 882 365 q 450 -22 799 -22 q 199 58 288 -22 q 110 282 110 139 q 122 397 110 336 l 243 972 m 417 1115 q 564 1260 436 1260 q 671 1228 607 1260 q 751 1201 722 1201 q 803 1246 796 1201 l 911 1246 q 767 1097 892 1097 q 660 1126 728 1097 q 578 1151 603 1151 q 525 1115 532 1151 l 417 1115 z "},"ũ":{"ha":760,"x_min":68,"x_max":739,"o":"m 68 199 q 78 285 68 247 l 160 672 l 297 672 l 215 283 q 207 215 207 246 q 325 88 207 88 q 517 288 475 88 l 599 672 l 736 672 l 593 0 l 458 0 l 463 21 l 476 72 q 272 -22 399 -22 q 121 39 174 -22 q 68 199 68 100 m 244 815 q 392 960 264 960 q 499 928 435 960 q 579 901 550 901 q 631 946 624 901 l 739 946 q 594 797 719 797 q 488 826 556 797 q 406 851 431 851 q 353 815 360 851 l 244 815 z "},"Ū":{"ha":986,"x_min":110,"x_max":1011,"o":"m 110 282 q 122 397 110 336 l 243 972 l 392 972 l 269 400 q 261 344 264 368 q 258 300 258 319 q 457 101 258 101 q 742 399 678 101 l 864 972 l 1011 972 l 882 365 q 450 -22 799 -22 q 199 58 288 -22 q 110 282 110 139 m 881 1224 l 857 1111 l 443 1111 l 467 1224 l 881 1224 z "},"ū":{"ha":760,"x_min":68,"x_max":736,"o":"m 160 672 l 297 672 l 215 283 q 207 215 207 246 q 325 88 207 88 q 517 288 475 88 l 599 672 l 736 672 l 593 0 l 458 0 l 463 21 l 476 72 q 272 -22 399 -22 q 121 39 175 -22 q 68 199 68 99 q 78 285 68 247 l 160 672 m 294 924 l 708 924 l 685 811 l 271 811 l 294 924 z "},"Ŭ":{"ha":986,"x_min":110,"x_max":1011,"o":"m 110 282 q 122 397 110 336 l 243 972 l 392 972 l 269 400 q 261 344 264 368 q 258 300 258 319 q 457 101 258 101 q 742 399 678 101 l 864 972 l 1011 972 l 882 365 q 450 -22 799 -22 q 199 58 288 -22 q 110 282 110 139 m 589 1269 q 588 1249 588 1267 q 654 1182 588 1182 q 757 1269 736 1182 l 865 1269 q 647 1078 829 1078 q 526 1118 571 1078 q 481 1229 481 1160 q 485 1269 481 1249 l 589 1269 z "},"ŭ":{"ha":760,"x_min":68,"x_max":736,"o":"m 68 199 q 78 285 68 247 l 160 672 l 297 672 l 215 283 q 207 215 207 246 q 325 88 207 88 q 517 288 475 88 l 599 672 l 736 672 l 593 0 l 458 0 l 463 21 l 476 72 q 272 -22 399 -22 q 121 39 174 -22 q 68 199 68 100 m 418 969 q 417 949 417 967 q 483 882 417 882 q 586 969 565 882 l 694 969 q 476 778 658 778 q 356 818 400 778 q 310 929 310 860 q 314 969 310 949 l 418 969 z "},"Ů":{"ha":986,"x_min":110,"x_max":1011,"o":"m 110 282 q 122 397 110 336 l 243 972 l 392 972 l 269 400 q 261 344 264 368 q 258 300 258 319 q 457 101 258 101 q 742 399 678 101 l 864 972 l 1011 972 l 882 365 q 450 -22 799 -22 q 199 58 288 -22 q 110 282 110 139 m 575 1254 q 675 1294 615 1294 q 756 1263 724 1294 q 788 1183 788 1231 q 746 1082 788 1121 q 646 1042 706 1042 q 567 1074 599 1042 q 533 1150 533 1104 q 575 1254 533 1213 m 654 1115 q 708 1178 708 1115 q 667 1219 708 1219 q 613 1157 613 1219 q 654 1115 613 1115 z "},"ů":{"ha":760,"x_min":68,"x_max":736,"o":"m 160 672 l 297 672 l 215 283 q 207 215 207 246 q 325 88 207 88 q 517 288 475 88 l 599 672 l 736 672 l 593 0 l 458 0 l 463 21 l 476 72 q 272 -22 399 -22 q 121 39 175 -22 q 68 199 68 99 q 78 285 68 247 l 160 672 m 361 850 q 403 954 361 913 q 503 994 443 994 q 583 963 551 994 q 615 883 615 931 q 574 782 615 821 q 474 742 533 742 q 394 774 426 742 q 361 850 361 804 m 482 815 q 536 878 536 815 q 494 919 536 919 q 440 857 440 919 q 482 815 440 815 z "},"Ű":{"ha":986,"x_min":110,"x_max":1011,"o":"m 110 282 q 122 397 110 336 l 243 972 l 392 972 l 269 400 q 261 344 264 368 q 258 300 258 319 q 457 101 258 101 q 742 399 678 101 l 864 972 l 1011 972 l 882 365 q 450 -22 799 -22 q 199 58 288 -22 q 110 282 110 139 m 781 1269 l 947 1269 l 781 1081 l 676 1081 l 781 1269 m 565 1269 l 728 1269 l 568 1081 l 467 1081 l 565 1269 z "},"ű":{"ha":760,"x_min":68,"x_max":775,"o":"m 68 199 q 78 285 68 247 l 160 672 l 297 672 l 215 283 q 207 215 207 246 q 325 88 207 88 q 517 288 475 88 l 599 672 l 736 672 l 593 0 l 458 0 l 463 21 l 476 72 q 272 -22 399 -22 q 121 39 174 -22 q 68 199 68 100 m 775 969 l 608 781 l 504 781 l 608 969 l 775 969 m 393 969 l 556 969 l 396 781 l 294 781 l 393 969 z "},"Ų":{"ha":986,"x_min":110,"x_max":1011,"o":"m 243 972 l 392 972 l 269 400 q 261 344 264 368 q 258 300 258 319 q 457 101 258 101 q 742 399 678 101 l 864 972 l 1011 972 l 882 365 q 550 -15 814 43 q 414 -124 414 -44 q 474 -171 414 -171 q 532 -160 499 -171 l 511 -256 q 426 -274 474 -274 q 333 -242 369 -274 q 297 -154 297 -208 q 388 -19 297 -74 q 110 282 110 13 q 122 397 110 336 l 243 972 z "},"ų":{"ha":760,"x_min":68,"x_max":736,"o":"m 160 672 l 297 672 l 215 283 q 207 215 207 246 q 325 88 207 88 q 517 288 475 88 l 599 672 l 736 672 l 593 0 q 460 -124 460 -61 q 521 -171 460 -171 q 578 -160 544 -171 l 557 -256 q 471 -274 517 -274 q 378 -242 414 -274 q 343 -154 343 -208 q 458 3 343 -62 l 463 21 l 476 72 q 272 -22 399 -22 q 121 39 175 -22 q 68 199 68 99 q 78 285 68 247 l 160 672 z "},"Ŵ":{"ha":1357,"x_min":153,"x_max":1475,"o":"m 304 972 l 325 293 q 329 150 329 189 l 349 194 l 378 260 l 710 972 l 913 972 l 939 293 l 943 150 l 1006 293 l 1315 972 l 1475 972 l 1014 0 l 825 0 l 789 850 q 763 788 778 822 q 731 714 749 754 l 396 0 l 201 0 l 153 972 l 304 972 m 951 1269 l 1044 1086 l 924 1086 l 893 1135 q 882 1156 893 1136 q 872 1174 876 1165 q 863 1189 868 1182 l 811 1138 l 756 1086 l 613 1086 l 788 1269 l 951 1269 z "},"ŵ":{"ha":1089,"x_min":86,"x_max":1143,"o":"m 224 672 l 263 131 l 290 194 l 526 672 l 700 672 l 739 133 q 751 160 744 144 q 767 194 757 175 l 1000 672 l 1143 672 l 792 0 l 631 0 l 590 551 q 581 528 588 543 q 563 489 574 513 l 321 0 l 156 0 l 86 672 l 224 672 m 589 969 l 751 969 l 846 786 l 724 786 l 664 889 l 556 786 l 414 786 l 589 969 z "},"Ŷ":{"ha":856,"x_min":149,"x_max":982,"o":"m 301 972 l 463 538 q 501 590 481 564 q 543 643 521 615 l 804 972 l 982 972 l 518 413 l 429 0 l 283 0 l 371 415 l 149 972 l 301 972 m 683 1269 l 776 1086 l 656 1086 l 625 1135 q 614 1156 625 1136 q 604 1174 608 1165 q 594 1189 600 1182 l 543 1138 l 488 1086 l 344 1086 l 519 1269 l 683 1269 z "},"ŷ":{"ha":682,"x_min":19,"x_max":740,"o":"m 206 19 l 88 672 l 228 672 l 308 165 l 351 250 l 588 672 l 740 672 l 175 -289 l 19 -289 l 206 19 m 539 969 l 632 786 l 511 786 l 481 835 q 469 856 481 836 q 460 874 464 865 q 450 889 456 882 l 399 838 l 343 786 l 200 786 l 375 969 l 539 969 z "},"Ÿ":{"ha":856,"x_min":149,"x_max":982,"o":"m 301 972 l 463 538 q 501 590 481 564 q 543 643 521 615 l 804 972 l 982 972 l 518 413 l 429 0 l 283 0 l 371 415 l 149 972 l 301 972 m 535 1246 l 501 1090 l 350 1090 l 383 1246 l 535 1246 m 660 1246 l 811 1246 l 776 1090 l 626 1090 l 660 1246 z "},"Ź":{"ha":839,"x_min":-26,"x_max":914,"o":"m 6 143 l 629 768 q 672 810 651 790 q 713 849 693 831 l 181 849 l 207 972 l 914 972 l 886 839 l 265 215 q 171 125 204 154 l 751 125 l 725 0 l -26 0 l 6 143 m 619 1269 l 800 1269 l 608 1081 l 489 1081 l 619 1269 z "},"ź":{"ha":643,"x_min":-24,"x_max":657,"o":"m 4 128 l 432 521 q 458 543 446 532 q 483 564 471 554 l 111 564 l 135 672 l 657 672 l 631 546 l 206 154 l 153 108 l 547 108 l 525 0 l -24 0 l 4 128 m 476 969 l 657 969 l 465 781 l 346 781 l 476 969 z "},"Ż":{"ha":839,"x_min":-26,"x_max":914,"o":"m 6 143 l 629 768 q 672 810 651 790 q 713 849 693 831 l 181 849 l 207 972 l 914 972 l 886 839 l 265 215 q 171 125 204 154 l 751 125 l 725 0 l -26 0 l 6 143 m 522 1246 l 676 1246 l 642 1090 l 489 1090 l 522 1246 z "},"ż":{"ha":643,"x_min":-24,"x_max":657,"o":"m 4 128 l 432 521 q 458 543 446 532 q 483 564 471 554 l 111 564 l 135 672 l 657 672 l 631 546 l 206 154 l 153 108 l 547 108 l 525 0 l -24 0 l 4 128 m 378 946 l 532 946 l 499 790 l 346 790 l 378 946 z "},"Ž":{"ha":839,"x_min":-26,"x_max":914,"o":"m 6 143 l 629 768 q 672 810 651 790 q 713 849 693 831 l 181 849 l 207 972 l 914 972 l 886 839 l 265 215 q 171 125 204 154 l 751 125 l 725 0 l -26 0 l 6 143 m 510 1269 l 540 1219 q 551 1199 540 1218 q 561 1181 557 1189 q 571 1165 565 1172 l 679 1269 l 821 1269 l 646 1086 l 482 1086 l 389 1269 l 510 1269 z "},"ž":{"ha":643,"x_min":-24,"x_max":678,"o":"m 4 128 l 432 521 q 458 543 446 532 q 483 564 471 554 l 111 564 l 135 672 l 657 672 l 631 546 l 206 154 l 153 108 l 547 108 l 525 0 l -24 0 l 4 128 m 397 919 q 408 899 397 918 q 418 881 414 889 q 428 865 422 872 l 535 969 l 678 969 l 501 786 l 339 786 l 246 969 l 367 969 l 397 919 z "},"ƒ":{"ha":756,"x_min":-57,"x_max":833,"o":"m -32 -46 q 50 -60 6 -60 q 183 56 139 -60 l 350 493 l 142 493 l 164 596 l 390 596 l 465 793 q 725 996 539 996 q 833 978 785 996 l 808 863 q 728 878 765 878 q 593 763 639 878 l 529 596 l 754 596 l 731 493 l 490 493 l 310 24 q 53 -179 236 -179 q -57 -161 -8 -179 l -32 -46 z "},"Ǻ":{"ha":961,"x_min":-71,"x_max":929,"o":"m 533 972 l 700 972 l 886 0 l 733 0 l 686 281 l 261 281 l 96 0 l -71 0 l 533 972 m 667 404 l 593 847 l 544 761 l 335 404 l 667 404 m 531 1150 q 572 1253 531 1213 q 672 1293 613 1293 q 753 1261 721 1293 q 785 1183 785 1229 q 743 1082 785 1121 q 643 1042 703 1042 q 564 1074 596 1042 q 531 1150 531 1104 m 929 1542 l 738 1353 l 618 1353 l 749 1542 l 929 1542 m 610 1157 q 651 1115 610 1115 q 706 1178 706 1115 q 664 1218 706 1218 q 626 1201 640 1218 q 610 1157 610 1185 z "},"ǻ":{"ha":814,"x_min":51,"x_max":789,"o":"m 531 186 q 592 390 592 276 q 551 526 592 474 q 426 585 507 585 q 250 488 317 585 q 190 285 190 401 q 229 149 190 201 q 353 86 272 86 q 531 186 461 86 m 546 878 q 504 919 546 919 q 450 857 450 919 q 463 828 450 838 q 492 815 472 815 q 546 878 546 815 m 118 65 q 51 276 51 146 q 146 563 51 440 q 411 694 250 694 q 629 557 567 694 l 636 604 l 651 672 l 789 672 l 646 0 l 508 0 l 526 72 q 314 -22 453 -22 q 118 65 189 -22 m 404 774 q 371 850 371 804 q 411 953 371 910 q 513 994 450 994 q 593 963 561 994 q 625 883 625 931 q 585 782 625 822 q 483 742 544 742 q 404 774 439 742 m 585 1053 l 465 1053 l 596 1242 l 776 1242 l 585 1053 z "},"Ǽ":{"ha":1286,"x_min":-78,"x_max":1336,"o":"m 1336 972 l 1310 849 l 832 849 l 772 568 l 1228 568 l 1201 443 l 746 443 l 678 125 l 1174 125 l 1147 0 l 506 0 l 564 279 l 290 279 l 96 0 l -78 0 l 618 972 l 1336 972 m 590 403 l 685 850 l 621 754 l 376 403 l 590 403 m 1163 1268 l 971 1081 l 851 1081 l 982 1268 l 1163 1268 z "},"ǽ":{"ha":1199,"x_min":36,"x_max":1146,"o":"m 115 342 q 311 406 194 396 l 440 414 q 525 492 525 419 q 400 589 525 589 q 249 479 267 589 l 104 479 q 199 636 119 579 q 399 694 278 694 q 618 586 556 694 q 867 694 719 694 q 1069 619 992 694 q 1146 417 1146 543 q 1144 377 1146 397 q 1139 338 1142 357 l 1133 307 l 629 307 q 628 271 628 301 q 672 136 628 188 q 800 86 718 86 q 968 193 924 86 l 1111 193 q 1003 36 1086 93 q 794 -22 919 -22 q 532 135 601 -22 q 258 -22 446 -22 q 100 33 164 -22 q 36 179 36 88 q 115 342 36 285 m 342 304 q 175 185 175 285 q 290 83 175 83 q 413 131 361 83 q 482 251 465 178 l 501 339 q 422 314 476 318 l 342 304 m 1008 406 l 1011 443 q 861 589 1011 589 q 726 539 782 589 q 650 406 669 488 l 1008 406 m 707 969 l 888 969 l 696 781 l 576 781 l 707 969 z "},"Ǿ":{"ha":1064,"x_min":32,"x_max":1097,"o":"m 163 153 q 93 407 93 260 q 351 922 93 761 q 617 996 471 996 q 893 901 778 996 l 1017 1029 l 1097 951 l 967 817 q 1035 567 1035 715 q 778 51 1035 208 q 513 -22 658 -22 q 239 68 350 -22 l 118 -57 l 32 18 l 163 153 m 796 803 q 611 871 728 871 q 292 647 394 871 q 243 407 243 538 q 269 261 243 324 l 796 803 m 335 167 q 518 101 408 101 q 779 232 675 101 q 885 567 885 363 q 860 707 885 646 l 335 167 m 879 1269 l 688 1081 l 568 1081 l 699 1269 l 879 1269 z "},"ǿ":{"ha":785,"x_min":0,"x_max":786,"o":"m 96 106 q 51 275 51 179 q 240 642 51 525 q 433 694 331 694 q 615 640 538 694 l 708 736 l 786 665 l 688 563 q 731 394 731 494 q 543 32 731 146 q 350 -22 456 -22 q 169 29 242 -22 l 79 -62 l 0 7 l 96 106 m 531 553 q 429 585 490 585 q 260 494 331 585 q 190 274 190 401 q 192 243 190 258 q 197 210 194 228 l 531 553 m 254 117 q 356 86 293 86 q 561 242 493 86 q 593 397 593 317 q 586 460 593 421 l 254 117 m 692 969 l 500 781 l 381 781 l 511 969 l 692 969 z "},"Ș":{"ha":892,"x_min":47,"x_max":888,"o":"m 200 349 l 200 343 q 267 164 200 228 q 449 101 331 101 q 608 144 549 101 q 671 265 671 188 q 524 411 671 361 l 386 454 q 158 710 158 528 q 264 915 158 835 q 522 996 365 996 q 789 908 690 996 q 888 665 885 822 l 735 665 q 676 817 733 763 q 514 871 618 871 q 365 829 424 871 q 306 721 306 788 q 444 586 306 629 l 593 536 q 819 281 819 464 q 718 58 819 139 q 444 -22 617 -22 q 153 78 257 -22 q 47 349 47 175 l 200 349 m 471 -239 q 279 -412 435 -412 l 294 -340 q 389 -247 371 -333 l 317 -247 l 346 -111 l 497 -111 l 471 -239 z "},"ș":{"ha":678,"x_min":24,"x_max":640,"o":"m 158 243 q 201 126 158 168 q 318 83 244 83 q 421 110 382 83 q 460 182 460 136 q 360 275 460 243 l 271 306 q 99 492 99 361 q 171 636 99 581 q 361 694 243 694 q 564 631 492 694 q 640 453 636 567 l 504 453 q 354 589 497 589 q 233 501 233 589 q 321 414 233 443 l 418 383 q 593 196 593 326 q 518 38 593 97 q 315 -22 442 -22 q 101 49 178 -22 q 24 243 24 119 l 158 243 m 349 -239 q 157 -412 313 -412 l 172 -340 q 267 -247 249 -333 l 194 -247 l 224 -111 l 375 -111 l 349 -239 z "},"Ț":{"ha":829,"x_min":119,"x_max":953,"o":"m 953 972 l 926 849 l 596 849 l 417 0 l 269 0 l 450 849 l 119 849 l 146 972 l 953 972 m 193 -340 q 288 -247 269 -333 l 215 -247 l 244 -111 l 396 -111 l 369 -239 q 178 -412 333 -412 l 193 -340 z "},"ț":{"ha":472,"x_min":57,"x_max":507,"o":"m 222 672 l 271 903 l 408 903 l 360 672 l 507 672 l 483 561 l 335 561 l 260 203 q 256 164 256 182 q 339 96 256 96 q 388 100 360 96 l 361 -14 q 289 -22 333 -22 q 115 144 115 -22 q 124 214 115 176 l 197 561 l 63 561 l 86 672 l 222 672 m 250 -239 q 57 -412 214 -412 l 74 -340 q 167 -247 149 -333 l 94 -247 l 124 -111 l 276 -111 l 250 -239 z "},"Ȧ":{"ha":961,"x_min":-71,"x_max":886,"o":"m 700 972 l 886 0 l 733 0 l 686 281 l 261 281 l 96 0 l -71 0 l 533 972 l 700 972 m 667 404 l 593 847 l 544 761 l 335 404 l 667 404 m 753 1246 l 718 1090 l 565 1090 l 599 1246 l 753 1246 z "},"ȧ":{"ha":814,"x_min":51,"x_max":789,"o":"m 531 186 q 592 390 592 276 q 551 526 592 474 q 426 585 507 585 q 250 488 317 585 q 190 285 190 401 q 229 149 190 201 q 353 86 272 86 q 531 186 461 86 m 118 65 q 51 276 51 146 q 146 563 51 440 q 411 694 250 694 q 629 557 567 694 l 636 604 l 651 672 l 789 672 l 646 0 l 508 0 l 526 72 q 314 -22 453 -22 q 118 65 189 -22 m 558 790 l 406 790 l 439 946 l 593 946 l 558 790 z "},"Ȳ":{"ha":856,"x_min":149,"x_max":982,"o":"m 463 538 q 501 590 481 564 q 543 643 521 615 l 804 972 l 982 972 l 518 413 l 429 0 l 283 0 l 371 415 l 149 972 l 301 972 l 463 538 m 800 1224 l 776 1111 l 363 1111 l 386 1224 l 800 1224 z "},"ȳ":{"ha":682,"x_min":19,"x_max":740,"o":"m 88 672 l 228 672 l 308 165 l 351 250 l 588 672 l 740 672 l 175 -289 l 19 -289 l 206 19 l 88 672 m 242 924 l 656 924 l 632 811 l 218 811 l 242 924 z "},"ȷ":{"ha":342,"x_min":-162,"x_max":315,"o":"m -137 -187 q -100 -193 -125 -193 q 17 -83 -6 -193 l 178 672 l 315 672 l 149 -118 q -85 -312 107 -312 q -162 -304 -129 -312 l -137 -187 z "},"ˆ":{"ha":564,"x_min":185,"x_max":617,"o":"m 360 969 l 524 969 l 617 786 l 496 786 l 465 835 q 454 856 465 836 q 444 874 449 865 q 435 889 440 882 l 383 838 l 328 786 l 185 786 l 360 969 z "},"ˇ":{"ha":564,"x_min":214,"x_max":646,"o":"m 365 919 q 376 899 365 918 q 386 881 382 889 q 396 865 390 872 l 503 969 l 646 969 l 469 786 l 307 786 l 214 969 l 335 969 l 365 919 z "},"˘":{"ha":510,"x_min":200,"x_max":583,"o":"m 200 926 q 204 969 200 946 l 307 969 q 306 949 306 967 q 374 882 306 882 q 476 969 453 882 l 583 969 q 365 778 547 778 q 244 818 289 778 q 200 926 200 858 z "},"˙":{"ha":283,"x_min":151,"x_max":339,"o":"m 151 790 l 185 946 l 339 946 l 304 790 l 151 790 z "},"˚":{"ha":385,"x_min":178,"x_max":432,"o":"m 219 954 q 319 994 260 994 q 400 963 368 994 q 432 883 432 931 q 390 782 432 821 q 290 742 350 742 q 211 774 243 742 q 178 850 178 804 q 219 954 178 913 m 297 815 q 353 878 353 815 q 311 919 353 919 q 257 857 257 919 q 297 815 257 815 z "},"˛":{"ha":368,"x_min":-36,"x_max":215,"o":"m 215 0 q 81 -124 81 -60 q 142 -171 81 -171 q 199 -160 165 -171 l 178 -256 q 92 -274 140 -274 q -1 -242 35 -274 q -36 -154 -36 -208 q 124 25 -36 -46 l 215 0 z "},"˜":{"ha":594,"x_min":165,"x_max":660,"o":"m 165 815 q 313 960 185 960 q 419 928 356 960 q 501 901 471 901 q 553 946 544 901 l 660 946 q 517 797 640 797 q 410 826 478 797 q 326 851 357 851 q 274 815 282 851 l 165 815 z "},"˝":{"ha":567,"x_min":157,"x_max":638,"o":"m 638 969 l 469 781 l 367 781 l 471 969 l 638 969 m 256 969 l 417 969 l 258 781 l 157 781 l 256 969 z "},"Δ":{"ha":982,"x_min":-4,"x_max":871,"o":"m 21 119 l 561 972 l 692 972 l 871 119 l 844 0 l -4 0 l 21 119 m 626 697 q 614 756 619 725 q 603 821 608 786 q 556 742 575 772 q 528 697 538 711 l 165 119 l 743 119 l 626 697 z "},"Ω":{"ha":1122,"x_min":75,"x_max":1072,"o":"m 101 117 l 240 117 q 260 116 250 117 q 283 114 271 115 l 258 133 q 122 440 122 240 q 190 715 122 589 q 378 919 257 842 q 650 996 496 996 q 1018 785 903 996 q 1072 557 1072 685 q 1014 321 1072 433 q 854 140 956 208 q 808 114 844 131 l 860 117 l 957 117 l 929 0 l 565 0 l 590 117 q 881 356 786 147 q 924 550 924 446 q 847 786 924 700 q 651 871 772 871 q 317 644 417 871 q 271 425 271 542 q 467 117 271 168 l 440 0 l 75 0 l 101 117 z "},"μ":{"ha":796,"x_min":-24,"x_max":756,"o":"m 182 672 l 319 672 l 233 267 q 228 235 231 249 q 226 210 226 221 q 349 85 226 85 q 536 288 494 85 l 618 672 l 756 672 l 614 0 l 476 0 l 494 72 q 299 -22 417 -22 q 179 24 222 -22 l 171 -28 l 115 -289 l -24 -289 l 182 672 z "},"π":{"ha":819,"x_min":71,"x_max":838,"o":"m 83 564 l 106 672 l 838 672 l 814 564 l 667 564 l 589 199 q 585 161 585 178 q 668 96 585 96 q 715 100 690 96 l 692 -15 q 653 -20 672 -18 q 617 -22 635 -22 q 443 135 443 -22 q 451 204 443 167 l 531 564 l 328 564 l 208 0 l 71 0 l 190 564 l 83 564 z "},"฿":{"ha":863,"x_min":49,"x_max":860,"o":"m 511 972 l 544 1126 l 653 1126 l 619 969 q 794 906 731 958 q 860 760 860 849 q 799 606 860 675 q 642 511 740 539 q 789 314 789 465 q 686 88 789 169 q 414 0 583 6 l 381 -154 l 272 -154 l 306 0 l 49 0 l 256 972 l 511 972 m 439 118 q 593 176 539 124 q 647 321 647 228 q 508 446 647 432 l 439 118 m 331 118 l 400 449 l 288 449 l 218 118 l 331 118 m 533 568 q 668 618 618 574 q 718 732 718 661 q 594 854 718 839 l 533 568 m 488 856 l 372 856 l 311 567 l 425 567 l 488 856 z "},"Ẁ":{"ha":1357,"x_min":153,"x_max":1475,"o":"m 304 972 l 325 293 q 329 150 329 189 l 349 194 l 378 260 l 710 972 l 913 972 l 939 293 l 943 150 l 1006 293 l 1315 972 l 1475 972 l 1014 0 l 825 0 l 789 850 q 763 788 778 822 q 731 714 749 754 l 396 0 l 201 0 l 153 972 l 304 972 m 889 1081 l 781 1081 l 674 1269 l 835 1269 l 889 1081 z "},"ẁ":{"ha":1089,"x_min":86,"x_max":1143,"o":"m 224 672 l 263 131 l 290 194 l 526 672 l 700 672 l 739 133 q 751 160 744 144 q 767 194 757 175 l 1000 672 l 1143 672 l 792 0 l 631 0 l 590 551 q 581 528 588 543 q 563 489 574 513 l 321 0 l 156 0 l 86 672 l 224 672 m 689 781 l 582 781 l 474 969 l 636 969 l 689 781 z "},"Ẃ":{"ha":1357,"x_min":153,"x_max":1475,"o":"m 304 972 l 325 293 q 329 150 329 189 l 349 194 l 378 260 l 710 972 l 913 972 l 939 293 l 943 150 l 1006 293 l 1315 972 l 1475 972 l 1014 0 l 825 0 l 789 850 q 763 788 778 822 q 731 714 749 754 l 396 0 l 201 0 l 153 972 l 304 972 m 888 1269 l 1068 1269 l 876 1081 l 757 1081 l 888 1269 z "},"ẃ":{"ha":1089,"x_min":86,"x_max":1143,"o":"m 263 131 l 290 194 l 526 672 l 700 672 l 739 133 q 751 160 744 144 q 767 194 757 175 l 1000 672 l 1143 672 l 792 0 l 631 0 l 590 551 q 581 528 588 543 q 563 489 574 513 l 321 0 l 156 0 l 86 672 l 224 672 l 263 131 m 869 969 l 678 781 l 558 781 l 689 969 l 869 969 z "},"Ẅ":{"ha":1357,"x_min":153,"x_max":1475,"o":"m 304 972 l 325 293 q 329 150 329 189 l 349 194 l 378 260 l 710 972 l 913 972 l 939 293 l 943 150 l 1006 293 l 1315 972 l 1475 972 l 1014 0 l 825 0 l 789 850 q 763 788 778 822 q 731 714 749 754 l 396 0 l 201 0 l 153 972 l 304 972 m 653 1246 l 804 1246 l 771 1090 l 619 1090 l 653 1246 m 1081 1246 l 1046 1090 l 896 1090 l 929 1246 l 1081 1246 z "},"ẅ":{"ha":1089,"x_min":86,"x_max":1143,"o":"m 224 672 l 263 131 l 290 194 l 526 672 l 700 672 l 739 133 q 751 160 744 144 q 767 194 757 175 l 1000 672 l 1143 672 l 792 0 l 631 0 l 590 551 q 581 528 588 543 q 563 489 574 513 l 321 0 l 156 0 l 86 672 l 224 672 m 453 946 l 606 946 l 571 790 l 421 790 l 453 946 m 881 946 l 846 790 l 696 790 l 731 946 l 881 946 z "},"ẞ":{"ha":929,"x_min":49,"x_max":918,"o":"m 256 972 l 619 972 q 840 906 758 972 q 918 739 918 840 q 857 582 918 651 q 696 488 796 513 q 847 286 847 440 q 668 17 847 97 q 482 -21 585 -21 q 318 -1 392 -21 l 344 122 q 475 104 404 104 q 642 156 581 104 q 704 296 704 207 q 513 429 704 429 l 433 429 l 461 554 l 556 554 q 715 603 654 554 q 775 724 775 650 q 596 849 775 849 l 375 849 l 194 0 l 49 0 l 256 972 z "},"Ỳ":{"ha":856,"x_min":149,"x_max":982,"o":"m 463 538 q 501 590 481 564 q 543 643 521 615 l 804 972 l 982 972 l 518 413 l 429 0 l 283 0 l 371 415 l 149 972 l 301 972 l 463 538 m 567 1269 l 621 1081 l 513 1081 l 406 1269 l 567 1269 z "},"ỳ":{"ha":682,"x_min":19,"x_max":740,"o":"m 206 19 l 88 672 l 228 672 l 308 165 l 351 250 l 588 672 l 740 672 l 175 -289 l 19 -289 l 206 19 m 476 781 l 368 781 l 261 969 l 422 969 l 476 781 z "}," ":{"ha":636,"x_min":0,"x_max":0,"o":""}," ":{"ha":1269,"x_min":0,"x_max":0,"o":""}," ":{"ha":163,"x_min":0,"x_max":0,"o":""}," ":{"ha":57,"x_min":0,"x_max":0,"o":""},"–":{"ha":776,"x_min":76,"x_max":710,"o":"m 76 296 l 103 424 l 710 424 l 683 296 l 76 296 z "},"—":{"ha":1157,"x_min":76,"x_max":1089,"o":"m 76 296 l 103 424 l 1089 424 l 1063 296 l 76 296 z "},"―":{"ha":1157,"x_min":76,"x_max":1089,"o":"m 76 296 l 103 424 l 1089 424 l 1063 296 l 76 296 z "},"‘":{"ha":326,"x_min":132,"x_max":382,"o":"m 172 783 q 382 981 211 964 l 365 904 q 261 789 285 882 l 257 764 l 333 764 l 297 594 l 132 594 l 172 783 z "},"’":{"ha":319,"x_min":133,"x_max":383,"o":"m 150 663 q 254 778 231 685 l 258 803 l 182 803 l 218 972 l 383 972 l 343 783 q 133 586 304 603 l 150 663 z "},"‚":{"ha":335,"x_min":-26,"x_max":224,"o":"m -10 -140 q 94 -25 71 -118 l 99 0 l 22 0 l 58 169 l 224 169 l 183 -19 q -26 -217 144 -200 l -10 -140 z "},"“":{"ha":585,"x_min":132,"x_max":640,"o":"m 431 783 q 640 981 469 964 l 624 904 q 519 789 539 882 l 515 764 l 592 764 l 554 594 l 390 594 l 431 783 m 172 783 q 381 981 211 964 l 364 904 q 261 789 281 882 l 257 764 l 332 764 l 296 594 l 132 594 l 172 783 z "},"”":{"ha":576,"x_min":133,"x_max":642,"o":"m 408 663 q 513 778 489 685 l 517 803 l 440 803 l 476 972 l 642 972 l 601 783 q 525 642 582 690 q 392 586 465 593 l 408 663 m 150 663 q 254 778 231 685 l 258 803 l 182 803 l 218 972 l 383 972 l 343 783 q 267 642 324 690 q 133 586 207 593 l 150 663 z "},"„":{"ha":593,"x_min":-26,"x_max":482,"o":"m -10 -140 q 94 -25 71 -118 l 99 0 l 22 0 l 58 169 l 224 169 l 183 -19 q 107 -161 164 -112 q -26 -217 47 -210 l -10 -140 m 249 -140 q 353 -25 329 -118 l 357 0 l 281 0 l 317 169 l 482 169 l 442 -19 q 365 -161 422 -112 q 232 -217 306 -210 l 249 -140 z "},"†":{"ha":683,"x_min":96,"x_max":717,"o":"m 121 706 l 353 706 l 410 972 l 540 972 l 483 706 l 717 706 l 692 590 l 458 590 l 333 0 l 204 0 l 329 590 l 96 590 l 121 706 z "},"‡":{"ha":733,"x_min":51,"x_max":744,"o":"m 307 364 l 356 590 l 122 590 l 147 706 l 381 706 l 436 972 l 567 972 l 510 706 l 744 706 l 719 590 l 485 590 l 436 364 l 671 364 l 647 250 l 413 250 l 360 0 l 231 0 l 283 250 l 51 250 l 75 364 l 307 364 z "},"•":{"ha":569,"x_min":83,"x_max":514,"o":"m 146 553 q 299 617 208 617 q 450 551 385 617 q 514 399 514 488 q 450 247 514 311 q 299 183 386 183 q 146 247 208 183 q 83 399 83 310 q 146 553 83 488 z "},"…":{"ha":1022,"x_min":14,"x_max":908,"o":"m 393 178 l 568 178 l 529 0 l 356 0 l 393 178 m 735 178 l 908 178 l 871 0 l 697 0 l 735 178 m 226 178 l 188 0 l 14 0 l 53 178 l 226 178 z "},"‰":{"ha":1503,"x_min":100,"x_max":1407,"o":"m 635 179 q 706 372 635 293 q 882 453 776 453 q 1039 364 988 453 q 1221 453 1107 453 q 1356 400 1303 453 q 1407 260 1407 347 q 1336 67 1407 146 q 1157 -14 1264 -14 q 1003 76 1049 -14 q 819 -14 932 -14 q 686 40 738 -14 q 635 179 635 92 m 179 713 q 250 906 179 826 q 432 986 322 986 q 571 933 518 986 q 624 793 624 878 q 551 600 624 676 q 369 521 478 521 q 232 574 285 521 q 179 713 179 626 m 1015 972 l 1158 972 l 243 0 l 100 0 l 1015 972 m 835 86 q 928 138 890 86 q 965 254 965 189 q 881 358 965 358 q 788 306 825 358 q 750 186 750 253 q 835 86 750 86 m 1078 186 q 1161 86 1078 86 q 1254 138 1217 86 q 1292 254 1292 189 q 1207 358 1292 358 q 1115 307 1150 358 q 1078 186 1078 254 m 379 621 q 472 672 435 621 q 508 789 508 725 q 485 864 508 833 q 424 892 461 892 q 332 840 367 892 q 294 721 294 788 q 379 621 294 621 z "},"‹":{"ha":396,"x_min":47,"x_max":393,"o":"m 393 664 l 353 481 l 158 336 l 292 189 l 260 39 l 47 285 l 76 418 l 393 664 z "},"›":{"ha":408,"x_min":19,"x_max":365,"o":"m 254 367 l 122 515 l 153 665 l 365 419 l 336 285 l 19 40 l 60 222 l 254 367 z "},"⁄":{"ha":288,"x_min":-347,"x_max":700,"o":"m -347 0 l 557 972 l 700 972 l -206 0 l -347 0 z "},"⁰":{"ha":611,"x_min":160,"x_max":672,"o":"m 300 1071 q 461 1129 368 1129 q 617 1061 561 1129 q 672 871 672 993 q 536 517 672 633 q 375 458 469 458 q 217 526 272 458 q 160 714 160 594 q 300 1071 160 947 m 381 557 q 533 733 488 557 q 553 883 553 814 q 456 1032 553 1032 q 301 854 350 1032 q 281 706 281 776 q 381 557 281 557 z "},"⁴":{"ha":606,"x_min":111,"x_max":669,"o":"m 476 1114 l 638 1114 l 554 724 l 669 724 l 649 629 l 535 629 l 501 474 l 381 474 l 414 629 l 111 629 l 131 728 l 476 1114 m 490 989 l 465 958 l 251 724 l 433 724 l 490 989 z "},"⁵":{"ha":568,"x_min":133,"x_max":654,"o":"m 133 674 l 253 674 l 253 669 q 367 556 253 556 q 457 596 421 556 q 493 697 493 636 q 464 779 493 747 q 386 811 435 811 q 283 767 332 811 l 161 767 l 278 1114 l 654 1114 l 632 1006 l 347 1006 l 310 903 q 293 858 307 892 q 428 906 349 906 q 560 850 508 906 q 613 707 613 793 q 542 526 613 594 q 358 458 474 458 q 189 519 250 458 q 133 656 133 574 l 133 674 z "},"⁶":{"ha":597,"x_min":161,"x_max":676,"o":"m 306 1071 q 471 1129 376 1129 q 619 1075 563 1129 q 676 929 674 1022 l 551 929 q 465 1032 551 1032 q 365 986 408 1032 q 301 860 321 940 l 293 831 q 443 893 353 893 q 581 839 528 893 q 633 701 633 782 q 564 528 633 597 q 386 458 494 458 q 219 526 279 458 q 161 715 161 593 q 306 1071 161 950 m 311 585 q 386 556 338 556 q 478 594 443 556 q 515 693 515 633 q 488 768 515 738 q 413 797 458 797 q 321 758 356 797 q 283 663 283 718 q 311 585 283 615 z "},"⁷":{"ha":521,"x_min":183,"x_max":675,"o":"m 675 1114 l 654 1021 q 461 790 536 921 q 358 474 388 657 l 215 474 q 488 981 267 813 q 525 1006 504 994 l 183 1006 l 206 1114 l 675 1114 z "},"⁸":{"ha":592,"x_min":136,"x_max":665,"o":"m 136 632 q 300 813 136 767 q 211 940 211 854 q 279 1076 211 1022 q 451 1129 349 1129 q 606 1083 544 1129 q 665 965 665 1038 q 515 800 665 842 q 618 658 618 760 q 547 513 618 567 q 364 458 478 458 q 197 507 258 458 q 136 632 136 556 m 254 647 q 286 581 254 608 q 364 556 317 556 q 461 589 424 556 q 500 671 500 619 q 469 733 500 708 q 390 758 438 758 q 293 728 328 758 q 254 647 254 697 m 357 874 q 428 851 383 851 q 513 881 479 851 q 547 954 547 910 q 449 1032 547 1032 q 364 1003 397 1032 q 329 929 329 974 q 357 874 329 894 z "},"⁹":{"ha":597,"x_min":147,"x_max":657,"o":"m 265 658 q 363 557 275 557 q 519 735 486 557 l 525 761 q 382 697 467 697 q 246 754 303 697 q 188 894 188 810 q 254 1063 188 996 q 429 1129 321 1129 q 597 1060 536 1129 q 657 868 657 992 q 519 517 657 633 q 356 458 450 458 q 201 513 257 458 q 147 658 147 564 l 265 658 m 335 825 q 408 796 361 796 q 499 831 464 796 q 535 924 535 867 q 506 1001 535 969 q 432 1032 476 1032 q 340 996 376 1032 q 306 900 306 961 q 335 825 306 854 z "},"₦":{"ha":836,"x_min":32,"x_max":861,"o":"m 157 531 l 251 972 l 449 972 l 501 531 l 624 531 l 718 972 l 850 972 l 756 531 l 861 531 l 840 433 l 735 433 l 643 0 l 454 0 l 403 433 l 269 433 l 178 0 l 44 0 l 136 433 l 32 433 l 54 531 l 157 531 m 390 531 l 354 836 l 290 531 l 390 531 m 569 282 l 601 433 l 513 433 l 546 158 l 569 282 z "},"₩":{"ha":1500,"x_min":61,"x_max":1532,"o":"m 82 449 l 253 449 l 247 558 l 104 558 l 125 654 l 243 654 l 226 972 l 368 972 l 381 654 l 638 654 l 788 972 l 968 972 l 981 654 l 1235 654 l 1383 972 l 1532 972 l 1379 654 l 1507 654 l 1488 558 l 1333 558 l 1282 449 l 1464 449 l 1443 351 l 1235 351 l 1067 0 l 889 0 l 876 351 l 624 351 l 457 0 l 276 0 l 258 351 l 61 351 l 82 449 m 540 449 l 593 558 l 385 558 l 390 449 l 540 449 m 1139 449 l 1190 558 l 985 558 l 989 449 l 1139 449 m 868 558 l 721 558 l 669 449 l 872 449 l 868 558 m 996 292 q 997 253 997 281 q 997 183 997 226 l 997 139 l 1093 351 l 993 351 l 996 292 m 396 297 q 400 142 400 203 q 467 292 431 218 l 494 351 l 393 351 l 396 297 m 865 654 l 858 851 l 767 654 l 865 654 z "},"₪":{"ha":946,"x_min":13,"x_max":999,"o":"m 392 744 l 513 744 l 414 281 q 408 235 408 254 q 547 117 408 117 l 683 117 l 867 972 l 999 972 l 792 0 l 540 0 q 358 63 426 0 q 289 226 289 124 q 296 294 289 260 l 392 744 m 471 972 q 654 911 585 972 q 722 744 722 849 q 720 717 722 733 q 715 678 718 700 l 619 228 l 499 228 l 596 692 q 601 739 601 710 q 464 856 601 856 l 326 856 l 144 0 l 13 0 l 219 972 l 471 972 z "},"€":{"ha":900,"x_min":46,"x_max":907,"o":"m 151 431 q 156 477 153 450 q 167 539 160 504 l 90 539 l 111 642 l 194 642 q 354 899 249 801 q 613 996 460 996 q 831 910 753 996 q 907 682 907 828 q 907 652 907 664 q 906 635 907 640 l 765 635 l 768 686 q 607 878 768 878 q 343 642 438 878 l 654 642 l 632 539 l 311 539 q 293 431 297 486 l 610 431 l 588 328 l 288 328 q 474 94 293 94 q 617 151 556 94 q 694 303 676 207 l 840 303 q 714 65 814 153 q 463 -22 615 -22 q 147 328 156 -22 l 46 328 l 67 431 l 151 431 z "},"₴":{"ha":764,"x_min":13,"x_max":813,"o":"m 33 456 l 771 456 l 750 357 l 246 357 q 192 229 192 294 q 232 132 192 168 q 342 96 272 96 q 510 213 482 96 l 658 213 q 556 44 639 110 q 333 -22 469 -22 q 129 46 203 -22 q 58 208 58 110 q 107 357 58 288 l 13 357 l 33 456 m 604 653 q 632 743 632 697 q 592 840 632 804 q 481 876 551 876 q 314 760 340 876 l 164 760 q 268 929 183 861 q 489 996 353 996 q 694 928 621 996 q 767 764 767 864 q 740 653 767 704 l 813 653 l 792 554 l 56 554 l 75 653 l 604 653 z "},"₸":{"ha":810,"x_min":96,"x_max":906,"o":"m 121 725 l 853 725 l 826 603 l 533 603 l 404 0 l 260 0 l 389 603 l 96 603 l 121 725 m 175 972 l 906 972 l 879 850 l 149 850 l 175 972 z "},"₹":{"ha":840,"x_min":96,"x_max":926,"o":"m 347 532 q 569 646 519 532 l 144 646 l 168 749 l 585 749 q 406 869 574 869 l 193 869 l 214 972 l 926 972 l 904 869 l 646 869 q 681 842 665 858 q 726 749 717 800 l 879 749 l 857 646 l 721 646 q 594 479 694 543 q 356 415 497 415 l 257 415 l 303 361 l 593 0 l 426 0 l 96 415 l 121 532 l 347 532 z "},"₺":{"ha":824,"x_min":56,"x_max":786,"o":"m 81 374 l 199 429 l 221 535 l 104 481 l 128 597 l 246 653 l 314 972 l 454 972 l 401 725 l 725 875 l 700 760 l 378 608 l 354 501 l 678 653 l 653 536 l 331 386 l 274 119 q 640 369 586 119 l 786 369 q 247 0 713 0 l 107 0 l 174 314 l 56 258 l 81 374 z "},"₽":{"ha":879,"x_min":44,"x_max":913,"o":"m 168 314 l 192 428 l 90 428 l 113 531 l 214 531 l 308 972 l 599 972 q 824 915 733 972 q 913 735 913 860 q 811 514 913 599 q 544 428 708 428 l 333 428 l 310 314 l 658 314 l 638 213 l 288 213 l 243 0 l 103 0 l 147 213 l 44 213 l 67 314 l 168 314 m 549 531 q 710 585 649 531 q 769 722 769 636 q 593 856 769 856 l 424 856 l 356 531 l 549 531 z "},"₿":{"ha":863,"x_min":49,"x_max":860,"o":"m 510 972 l 542 1126 l 654 1126 l 621 969 q 794 907 732 958 q 860 760 860 850 q 799 606 860 675 q 642 511 740 539 q 789 314 789 465 q 688 88 789 168 q 414 0 585 6 l 382 -154 l 269 -154 l 301 0 l 49 0 l 256 972 l 510 972 m 418 118 q 588 172 526 118 q 647 321 647 226 q 463 449 647 449 l 288 449 l 218 118 l 418 118 m 510 567 q 661 613 604 567 q 718 732 718 658 q 560 856 718 856 l 372 856 l 313 567 l 510 567 z "},"ℓ":{"ha":725,"x_min":-11,"x_max":711,"o":"m 14 364 q 115 376 65 365 q 178 667 125 522 q 322 903 231 810 q 529 996 411 996 q 664 943 615 996 q 711 801 711 892 q 478 413 711 581 q 238 290 369 335 q 351 89 243 89 q 501 315 475 89 l 631 315 q 538 67 607 153 q 353 -22 465 -22 q 117 258 135 -22 q 56 249 88 253 q -11 243 24 246 l 14 364 m 244 413 q 492 569 394 468 q 589 792 589 667 q 515 883 589 883 q 392 811 447 883 q 297 631 332 733 q 244 413 258 524 z "},"№":{"ha":1596,"x_min":50,"x_max":1607,"o":"m 454 972 l 778 186 l 783 217 l 803 317 l 943 972 l 1089 972 l 883 0 l 706 0 l 369 821 l 344 696 l 197 0 l 50 0 l 257 972 l 454 972 m 1136 690 q 1215 900 1136 814 q 1413 988 1296 988 q 1556 932 1504 988 q 1607 790 1607 879 q 1528 581 1607 668 q 1329 492 1447 492 q 1188 549 1240 492 q 1136 690 1136 604 m 1250 690 q 1342 583 1250 583 q 1453 646 1413 583 q 1493 790 1493 711 q 1401 897 1493 897 q 1292 835 1331 897 q 1250 690 1250 769 m 1536 411 l 1514 304 l 1067 304 l 1088 411 l 1536 411 z "},"℗":{"ha":1151,"x_min":101,"x_max":1113,"o":"m 169 742 q 354 928 239 860 q 607 996 468 996 q 861 928 747 996 q 1044 742 976 858 q 1113 488 1113 628 q 1044 231 1113 344 q 860 46 976 113 q 604 -22 746 -22 q 353 47 468 -22 q 169 232 239 115 q 101 488 101 346 q 169 742 101 624 m 206 488 q 406 129 206 246 q 610 75 497 75 q 957 279 840 75 q 1010 488 1010 374 q 810 844 1010 724 q 607 899 715 899 q 260 696 376 899 q 206 488 206 601 m 671 757 q 806 711 756 757 q 857 586 857 665 q 806 460 857 507 q 671 414 756 414 l 533 414 l 533 218 l 432 218 l 432 757 l 671 757 m 653 501 q 756 586 756 501 q 653 671 756 671 l 533 671 l 533 501 l 653 501 z "},"™":{"ha":1282,"x_min":158,"x_max":1315,"o":"m 872 972 l 931 567 q 946 599 938 585 q 964 628 954 614 l 1163 972 l 1315 972 l 1203 440 l 1100 440 l 1168 769 l 1176 803 l 1186 843 l 957 440 l 857 440 l 813 767 l 800 842 q 794 806 797 825 q 786 768 792 788 l 717 440 l 614 440 l 728 972 l 872 972 m 178 972 l 650 972 l 631 875 l 447 875 l 356 440 l 247 440 l 342 875 l 158 875 l 178 972 z "},"Ω":{"ha":1122,"x_min":75,"x_max":1072,"o":"m 101 117 l 240 117 q 260 116 250 117 q 283 114 271 115 l 258 133 q 122 440 122 240 q 190 715 122 589 q 378 919 257 842 q 650 996 496 996 q 1018 785 903 996 q 1072 557 1072 685 q 1014 321 1072 433 q 854 140 956 208 q 808 114 844 131 l 860 117 l 957 117 l 929 0 l 565 0 l 590 117 q 881 356 786 147 q 924 550 924 446 q 847 786 924 700 q 651 871 772 871 q 317 644 417 871 q 271 425 271 542 q 467 117 271 168 l 440 0 l 75 0 l 101 117 z "},"⅓":{"ha":1263,"x_min":78,"x_max":1215,"o":"m 982 972 l 1125 972 l 219 0 l 78 0 l 982 972 m 746 201 l 854 201 l 854 196 q 960 75 854 75 q 1038 104 1006 75 q 1068 178 1068 133 q 975 258 1068 258 l 938 258 l 954 346 l 1003 346 q 1107 432 1107 346 q 1022 508 1107 508 q 917 426 932 508 l 799 426 q 874 550 811 504 q 1028 596 933 596 q 1163 554 1108 596 q 1215 447 1215 513 q 1088 297 1215 333 q 1176 169 1176 260 q 1115 38 1176 90 q 958 -14 1056 -14 q 799 44 854 -14 q 746 188 746 97 l 746 201 m 147 854 q 335 972 279 860 l 432 972 l 307 390 l 197 390 l 275 756 l 290 813 q 133 751 229 751 l 126 751 l 147 854 z "},"⅔":{"ha":1404,"x_min":79,"x_max":1361,"o":"m 1271 972 l 365 0 l 224 0 l 1128 972 l 1271 972 m 79 390 q 265 636 111 556 l 349 681 q 464 814 464 743 q 376 899 464 899 q 271 803 288 899 l 153 803 q 226 938 165 889 q 379 986 288 986 q 519 939 468 986 q 571 817 571 893 q 411 608 571 693 l 313 557 q 235 486 247 519 l 513 486 l 492 390 l 79 390 m 892 201 l 1000 201 l 1000 196 q 1106 75 1000 75 q 1183 104 1151 75 q 1214 178 1214 133 q 1121 258 1214 258 l 1083 258 l 1100 346 l 1149 346 q 1253 432 1253 346 q 1168 508 1253 508 q 1063 426 1078 508 l 944 426 q 1019 550 957 504 q 1174 596 1079 596 q 1308 554 1254 596 q 1361 447 1361 513 q 1233 297 1361 333 q 1322 169 1322 260 q 1261 38 1322 90 q 1104 -14 1201 -14 q 944 44 1000 -14 q 892 188 892 97 l 892 201 z "},"⅕":{"ha":1257,"x_min":78,"x_max":1210,"o":"m 735 182 l 843 182 q 947 75 843 75 q 1031 110 1000 75 q 1063 203 1063 146 q 965 307 1063 307 q 872 267 913 307 l 761 267 l 865 582 l 1210 582 l 1189 483 l 931 483 l 881 350 q 1003 393 932 393 q 1124 342 1076 393 q 1171 213 1171 290 q 1107 49 1171 108 q 940 -14 1042 -14 q 785 42 840 -14 q 735 167 735 92 l 735 182 m 1125 972 l 219 0 l 78 0 l 982 972 l 1125 972 m 147 854 q 335 972 279 860 l 432 972 l 307 390 l 197 390 l 275 756 l 290 813 q 133 751 229 751 l 126 751 l 147 854 z "},"⅖":{"ha":1393,"x_min":78,"x_max":1354,"o":"m 879 182 l 988 182 q 1092 75 988 75 q 1175 110 1144 75 q 1207 203 1207 146 q 1110 307 1207 307 q 1017 267 1057 307 l 906 267 l 1010 582 l 1354 582 l 1333 483 l 1075 483 l 1025 350 q 1147 393 1076 393 q 1268 342 1221 393 q 1315 213 1315 290 q 1251 49 1315 108 q 1085 -14 1186 -14 q 929 42 985 -14 q 879 167 879 92 l 879 182 m 1271 972 l 365 0 l 224 0 l 1128 972 l 1271 972 m 78 390 q 264 636 110 556 l 347 681 q 463 814 463 743 q 375 899 463 899 q 269 803 286 899 l 151 803 q 225 938 164 889 q 378 986 286 986 q 518 939 467 986 q 569 817 569 893 q 410 608 569 693 l 311 557 q 233 486 246 519 l 511 486 l 490 390 l 78 390 z "},"⅗":{"ha":1379,"x_min":97,"x_max":1342,"o":"m 867 182 l 975 182 q 1079 75 975 75 q 1163 110 1132 75 q 1194 203 1194 146 q 1097 307 1194 307 q 1004 267 1044 307 l 893 267 l 997 582 l 1342 582 l 1321 483 l 1063 483 l 1013 350 q 1135 393 1064 393 q 1256 342 1208 393 q 1303 213 1303 290 q 1239 49 1303 108 q 1072 -14 1174 -14 q 917 42 972 -14 q 867 167 867 92 l 867 182 m 1114 972 l 1257 972 l 351 0 l 210 0 l 1114 972 m 97 592 l 206 592 l 206 586 q 311 465 206 465 q 389 494 357 465 q 419 568 419 524 q 326 649 419 649 l 289 649 l 306 736 l 354 736 q 458 822 458 736 q 374 899 458 899 q 268 817 283 899 l 150 817 q 225 940 163 894 q 379 986 285 986 q 514 944 460 986 q 567 838 567 903 q 439 688 567 724 q 528 560 528 650 q 467 428 528 481 q 310 376 407 376 q 150 435 206 376 q 97 578 97 488 l 97 592 z "},"⅘":{"ha":1403,"x_min":79,"x_max":1361,"o":"m 97 621 l 411 972 l 558 972 l 482 618 l 588 618 l 568 532 l 464 532 l 433 390 l 324 390 l 354 532 l 79 532 l 97 621 m 886 182 l 994 182 q 1099 75 994 75 q 1182 110 1151 75 q 1214 203 1214 146 q 1117 307 1214 307 q 1024 267 1064 307 l 913 267 l 1017 582 l 1361 582 l 1340 483 l 1082 483 l 1032 350 q 1154 393 1083 393 q 1275 342 1228 393 q 1322 213 1322 290 q 1258 49 1322 108 q 1092 -14 1193 -14 q 936 42 992 -14 q 886 167 886 92 l 886 182 m 1133 972 l 1276 972 l 371 0 l 229 0 l 1133 972 m 372 618 l 424 858 q 401 832 394 825 l 207 618 l 372 618 z "},"⅙":{"ha":1276,"x_min":78,"x_max":1233,"o":"m 1056 113 q 1088 200 1088 149 q 1061 268 1088 243 q 993 294 1036 294 q 908 258 942 294 q 875 171 875 222 q 901 101 875 128 q 969 75 926 75 q 1056 113 1019 75 m 814 54 q 765 221 765 115 q 833 471 765 365 q 1047 596 910 596 q 1182 547 1131 596 q 1233 414 1232 497 l 1119 414 q 1042 508 1119 508 q 892 350 926 508 l 885 325 q 1021 382 938 382 q 1146 332 1097 382 q 1194 207 1194 283 q 1131 49 1194 111 q 969 -14 1065 -14 q 814 54 868 -14 m 275 756 l 290 813 q 218 768 263 785 q 126 751 172 749 l 147 854 q 335 972 281 858 l 432 972 l 307 390 l 197 390 l 275 756 m 219 0 l 78 0 l 982 972 l 1125 972 l 219 0 z "},"⅚":{"ha":1390,"x_min":92,"x_max":1358,"o":"m 1179 113 q 1213 200 1213 147 q 1186 268 1213 243 q 1118 294 1160 294 q 1032 258 1068 294 q 1000 171 1000 222 q 1025 101 1000 128 q 1094 75 1051 75 q 1179 113 1146 75 m 939 54 q 890 221 890 115 q 957 471 890 364 q 1172 596 1036 596 q 1307 547 1256 596 q 1358 414 1357 497 l 1244 414 q 1167 508 1244 508 q 1017 350 1051 508 l 1010 325 q 1146 382 1063 382 q 1269 332 1221 382 q 1319 207 1319 283 q 1254 49 1319 111 q 1094 -14 1189 -14 q 939 54 990 -14 m 149 432 q 99 572 92 486 l 207 572 q 311 465 207 465 q 396 503 364 465 q 426 593 426 538 q 329 697 426 697 q 236 657 276 697 l 125 657 l 229 972 l 574 972 l 553 874 l 294 874 l 244 740 q 367 783 293 783 q 489 731 440 783 q 535 603 535 678 q 469 438 535 500 q 304 376 406 376 q 149 432 204 376 m 349 0 l 207 0 l 1111 972 l 1254 972 l 349 0 z "},"⅛":{"ha":1260,"x_min":78,"x_max":1215,"o":"m 883 308 q 803 424 803 346 q 865 547 803 499 q 1022 596 931 596 q 1161 554 1107 596 q 1215 447 1215 513 q 1081 297 1215 335 q 1172 168 1172 261 q 1108 36 1172 83 q 942 -14 1046 -14 q 790 31 850 -14 q 735 143 735 74 q 883 308 735 267 m 1125 972 l 219 0 l 78 0 l 982 972 l 1125 972 m 126 751 l 147 854 q 335 972 279 860 l 432 972 l 307 390 l 197 390 l 275 756 l 290 813 q 218 768 263 785 q 133 751 176 751 l 126 751 m 843 158 q 871 99 843 122 q 942 75 899 75 q 1032 104 996 75 q 1067 179 1067 135 q 1038 236 1067 213 q 967 258 1011 258 q 878 231 914 258 q 843 158 843 204 m 910 414 q 935 364 910 382 q 1000 343 960 343 q 1078 369 1047 343 q 1108 438 1108 396 q 1019 508 1108 508 q 942 482 972 508 q 910 414 910 454 z "},"⅜":{"ha":1385,"x_min":96,"x_max":1346,"o":"m 865 143 q 1014 308 865 267 q 933 424 933 346 q 996 547 933 499 q 1153 596 1061 596 q 1292 554 1238 596 q 1346 447 1346 513 q 1211 297 1346 335 q 1303 168 1303 261 q 1239 36 1303 83 q 1072 -14 1176 -14 q 922 31 979 -14 q 865 143 865 75 m 1113 972 l 1256 972 l 350 0 l 208 0 l 1113 972 m 96 592 l 204 592 l 204 586 q 310 465 204 465 q 388 494 356 465 q 418 568 418 524 q 325 649 418 649 l 288 649 l 304 736 l 353 736 q 457 822 457 736 q 372 899 457 899 q 267 817 282 899 l 149 817 q 224 940 161 894 q 378 986 283 986 q 513 944 458 986 q 565 838 565 903 q 438 688 565 724 q 526 560 526 650 q 465 428 526 481 q 308 376 406 376 q 149 435 204 376 q 96 578 96 488 l 96 592 m 1001 99 q 1072 75 1029 75 q 1163 104 1126 75 q 1197 179 1197 135 q 1168 236 1197 213 q 1097 258 1142 258 q 1008 231 1044 258 q 974 158 974 204 q 1001 99 974 122 m 1065 364 q 1131 343 1090 343 q 1208 369 1178 343 q 1239 438 1239 396 q 1150 508 1239 508 q 1072 482 1103 508 q 1040 414 1040 454 q 1065 364 1040 382 z "},"⅝":{"ha":1375,"x_min":88,"x_max":1333,"o":"m 853 143 q 1001 308 853 267 q 921 424 921 346 q 983 547 921 499 q 1140 596 1049 596 q 1279 554 1225 596 q 1333 447 1333 513 q 1199 297 1333 335 q 1290 168 1290 261 q 1226 36 1290 83 q 1060 -14 1164 -14 q 910 31 967 -14 q 853 143 853 75 m 88 572 l 196 572 q 300 465 196 465 q 383 500 353 465 q 415 593 415 536 q 318 697 415 697 q 225 657 265 697 l 114 657 l 218 972 l 563 972 l 542 874 l 283 874 l 233 740 q 356 783 285 783 q 476 732 429 783 q 524 603 524 681 q 460 439 524 499 q 293 376 394 376 q 138 432 193 376 q 88 557 88 482 l 88 572 m 1101 972 l 1244 972 l 339 0 l 197 0 l 1101 972 m 989 99 q 1060 75 1017 75 q 1150 104 1114 75 q 1185 179 1185 135 q 1156 236 1185 213 q 1085 258 1129 258 q 996 231 1032 258 q 961 158 961 204 q 989 99 961 122 m 1053 364 q 1118 343 1078 343 q 1196 369 1165 343 q 1226 438 1226 396 q 1138 508 1226 508 q 1060 482 1090 508 q 1028 414 1028 454 q 1053 364 1028 382 z "},"⅞":{"ha":1300,"x_min":114,"x_max":1250,"o":"m 769 143 q 918 308 769 267 q 838 424 838 346 q 900 547 838 499 q 1057 596 965 596 q 1196 554 1142 596 q 1250 447 1250 513 q 1115 297 1250 335 q 1207 168 1207 261 q 1143 36 1207 83 q 976 -14 1081 -14 q 826 31 883 -14 q 769 143 769 75 m 1018 972 l 1161 972 l 256 0 l 114 0 l 1018 972 m 597 972 l 579 889 q 308 390 357 704 l 179 390 q 426 851 222 692 l 461 874 l 150 874 l 171 972 l 597 972 m 878 158 q 906 99 878 122 q 976 75 933 75 q 1067 104 1031 75 q 1101 179 1101 135 q 1072 236 1101 213 q 1001 258 1046 258 q 913 231 949 258 q 878 158 878 204 m 944 414 q 969 364 944 382 q 1035 343 994 343 q 1113 369 1082 343 q 1143 438 1143 396 q 1054 508 1143 508 q 976 482 1007 508 q 944 414 944 454 z "},"⅟":{"ha":940,"x_min":88,"x_max":1135,"o":"m 992 972 l 1135 972 l 229 0 l 88 0 l 992 972 m 157 854 q 344 972 289 860 l 442 972 l 317 390 l 207 390 l 285 756 l 300 813 q 143 751 239 751 l 136 751 l 157 854 z "},"←":{"ha":1099,"x_min":75,"x_max":1071,"o":"m 683 63 l 507 63 l 75 493 l 507 925 l 683 925 l 321 563 l 1071 563 l 1071 424 l 321 424 l 683 63 z "},"↑":{"ha":1015,"x_min":104,"x_max":967,"o":"m 467 0 l 467 750 l 104 388 l 104 564 l 536 996 l 967 564 l 967 388 l 606 750 l 606 0 l 467 0 z "},"→":{"ha":1100,"x_min":96,"x_max":1092,"o":"m 483 63 l 846 424 l 96 424 l 96 563 l 846 563 l 483 925 l 660 925 l 1092 493 l 660 63 l 483 63 z "},"↓":{"ha":1015,"x_min":111,"x_max":975,"o":"m 474 972 l 613 972 l 613 222 l 975 585 l 975 408 l 543 -24 l 111 408 l 111 585 l 474 222 l 474 972 z "},"↖":{"ha":1004,"x_min":192,"x_max":951,"o":"m 853 213 l 315 750 l 317 238 l 192 363 l 192 972 l 803 972 l 928 849 l 415 849 l 951 311 l 853 213 z "},"↗":{"ha":949,"x_min":132,"x_max":893,"o":"m 231 213 l 132 311 l 668 849 l 157 849 l 282 972 l 893 972 l 893 363 l 768 238 l 768 750 l 231 213 z "},"↘":{"ha":1004,"x_min":115,"x_max":876,"o":"m 214 761 l 751 222 l 751 735 l 876 611 l 876 0 l 265 0 l 140 125 l 651 124 l 115 661 l 214 761 z "},"↙":{"ha":949,"x_min":119,"x_max":879,"o":"m 781 761 l 879 661 l 343 124 l 856 125 l 731 0 l 119 0 l 119 611 l 244 735 l 244 222 l 781 761 z "},"∂":{"ha":801,"x_min":33,"x_max":761,"o":"m 33 293 q 193 590 33 490 q 367 638 269 638 q 626 468 551 638 l 635 582 q 558 799 635 721 q 344 881 481 878 l 344 996 q 650 874 538 996 q 761 542 761 750 q 574 54 761 206 q 347 -22 481 -22 q 75 125 158 -22 q 33 293 33 196 m 174 286 q 222 144 174 197 q 349 90 269 90 q 511 157 450 90 q 572 331 572 226 q 521 471 572 419 q 386 525 468 525 q 232 460 290 525 q 174 286 174 394 z "},"∅":{"ha":847,"x_min":65,"x_max":782,"o":"m 244 647 q 424 694 325 694 q 596 650 514 694 l 661 735 l 746 669 l 682 585 q 782 338 782 481 q 603 25 782 131 q 424 -24 521 -24 q 251 21 329 -24 l 192 -58 l 104 6 l 165 86 q 65 338 65 192 q 244 647 65 544 m 185 338 q 240 183 185 247 l 524 556 q 424 578 479 578 q 218 458 289 578 q 185 338 185 401 m 325 117 q 424 94 369 94 q 629 217 558 94 q 661 338 661 274 q 608 489 661 424 l 325 117 z "},"∆":{"ha":982,"x_min":-4,"x_max":871,"o":"m 21 119 l 561 972 l 692 972 l 871 119 l 844 0 l -4 0 l 21 119 m 626 697 q 614 756 619 725 q 603 821 608 786 q 556 742 575 772 q 528 697 538 711 l 165 119 l 743 119 l 626 697 z "},"∏":{"ha":954,"x_min":169,"x_max":907,"o":"m 169 972 l 907 972 l 907 860 l 783 860 l 783 -179 l 651 -179 l 651 860 l 424 860 l 424 -179 l 292 -179 l 292 860 l 169 860 l 169 972 z "},"∑":{"ha":947,"x_min":168,"x_max":806,"o":"m 806 972 l 806 860 l 315 860 l 376 785 l 649 440 l 649 353 l 372 6 q 344 -31 358 -12 q 313 -67 329 -49 l 806 -67 l 806 -179 l 168 -179 l 168 -51 l 526 396 l 168 842 l 168 972 l 806 972 z "},"−":{"ha":864,"x_min":118,"x_max":778,"o":"m 118 357 l 118 475 l 778 475 l 778 357 l 118 357 z "},"∕":{"ha":610,"x_min":-22,"x_max":692,"o":"m -22 0 l 554 972 l 692 972 l 115 0 l -22 0 z "},"√":{"ha":647,"x_min":13,"x_max":744,"o":"m 226 72 l 254 -51 l 467 972 l 744 972 l 744 860 l 572 860 l 349 -179 l 163 -179 l 13 394 l 144 394 l 226 72 z "},"∞":{"ha":1072,"x_min":78,"x_max":1019,"o":"m 143 596 q 307 665 208 665 q 550 514 436 665 q 793 665 667 665 q 954 596 889 665 q 1019 421 1019 526 q 956 244 1019 313 q 790 175 890 175 q 547 331 657 175 q 304 175 435 175 q 142 244 204 175 q 78 421 78 313 q 143 596 78 526 m 610 421 q 785 285 710 285 q 871 324 838 285 q 903 421 903 363 q 871 517 903 481 q 785 554 838 554 q 699 522 739 554 q 610 421 663 494 m 194 421 q 226 322 194 361 q 313 285 260 285 q 486 418 392 285 q 313 554 392 554 q 228 518 260 554 q 194 421 194 481 z "},"∫":{"ha":429,"x_min":24,"x_max":410,"o":"m 57 -172 q 151 -65 151 -172 l 151 747 q 375 972 151 972 l 410 972 l 410 856 l 375 856 q 282 747 282 856 l 282 -65 q 57 -289 282 -289 l 24 -289 l 24 -172 l 57 -172 z "},"≈":{"ha":819,"x_min":104,"x_max":744,"o":"m 104 175 q 161 315 107 271 q 294 361 217 361 q 439 326 353 361 q 547 299 515 299 q 621 363 613 299 l 744 363 q 692 228 742 275 q 560 179 640 179 q 406 213 501 179 q 299 239 332 239 q 229 175 239 239 l 104 175 m 104 451 q 161 592 107 547 q 294 638 217 638 q 439 603 353 638 q 547 575 515 575 q 621 639 613 575 l 744 639 q 692 504 742 551 q 560 456 640 456 q 406 489 501 456 q 299 515 332 515 q 229 451 239 515 l 104 451 z "},"≠":{"ha":907,"x_min":142,"x_max":801,"o":"m 593 803 l 717 803 l 624 604 l 801 604 l 801 486 l 568 486 l 500 344 l 801 344 l 801 226 l 444 226 l 351 28 l 225 28 l 319 226 l 142 226 l 142 344 l 375 344 l 443 486 l 142 486 l 142 604 l 499 604 l 593 803 z "},"≤":{"ha":874,"x_min":101,"x_max":769,"o":"m 101 571 l 758 808 l 758 668 l 358 540 q 281 515 346 538 l 242 503 q 285 491 256 500 q 358 467 314 482 l 758 336 l 758 196 l 101 433 l 101 571 m 111 118 l 769 118 l 769 0 l 111 0 l 111 118 z "},"≥":{"ha":922,"x_min":144,"x_max":803,"o":"m 146 336 l 661 501 q 546 538 649 503 l 146 668 l 146 808 l 801 571 l 801 432 l 146 196 l 146 336 m 803 118 l 803 0 l 144 0 l 144 118 l 803 118 z "},"〈":{"ha":456,"x_min":47,"x_max":585,"o":"m 585 1015 l 181 403 l 325 -179 l 197 -179 l 47 421 l 439 1015 l 585 1015 z "},"〉":{"ha":456,"x_min":-94,"x_max":443,"o":"m 293 1015 l 443 415 l 51 -179 l -94 -179 l 310 433 l 167 1015 l 293 1015 z "},"①":{"ha":1131,"x_min":93,"x_max":1101,"o":"m 169 711 q 372 919 244 842 q 647 996 499 996 q 1044 779 921 996 q 1101 549 1101 676 q 1026 264 1101 394 q 822 56 949 132 q 546 -22 694 -22 q 151 196 274 -22 q 93 425 93 297 q 169 711 93 581 m 289 169 q 549 71 388 71 q 779 138 672 71 q 944 313 883 201 q 1006 547 1006 424 q 907 804 1006 706 q 646 901 810 901 q 418 838 519 901 q 251 663 311 772 q 190 425 190 551 q 289 169 190 268 m 460 656 q 647 775 592 667 l 735 775 l 613 193 l 511 193 l 599 606 l 606 631 q 444 556 551 556 l 439 556 l 460 656 z "},"②":{"ha":1131,"x_min":93,"x_max":1101,"o":"m 169 711 q 372 919 244 842 q 647 996 499 996 q 1044 779 921 996 q 1101 549 1101 676 q 1026 264 1101 394 q 822 56 949 132 q 546 -22 694 -22 q 151 196 274 -22 q 93 425 93 297 q 169 711 93 581 m 289 169 q 549 71 388 71 q 779 138 672 71 q 944 313 883 201 q 1006 547 1006 424 q 907 804 1006 706 q 646 901 810 901 q 418 838 519 901 q 251 663 311 772 q 190 425 190 551 q 289 169 190 268 m 344 201 q 528 446 376 363 l 611 490 q 725 619 725 554 q 636 703 725 703 q 529 607 547 703 l 411 607 q 639 792 440 792 q 779 744 726 792 q 833 622 833 696 q 672 418 833 506 l 576 367 q 500 297 508 328 l 775 297 l 754 201 l 344 201 z "},"③":{"ha":1131,"x_min":93,"x_max":1101,"o":"m 93 425 q 169 711 93 581 q 372 919 244 842 q 647 996 499 996 q 1044 779 921 996 q 1101 549 1101 676 q 1026 264 1101 394 q 822 56 949 132 q 546 -22 694 -22 q 151 196 272 -22 q 93 425 93 297 m 289 169 q 549 71 388 71 q 779 138 672 71 q 944 313 883 201 q 1006 547 1006 424 q 907 804 1006 706 q 646 901 810 901 q 418 838 519 901 q 251 663 311 772 q 190 425 190 551 q 289 169 190 268 m 356 397 l 456 397 l 456 386 q 564 268 456 268 q 646 297 614 268 q 678 372 678 329 q 581 454 678 454 l 546 454 l 563 540 l 607 540 q 685 565 653 540 q 717 632 717 590 q 625 704 717 704 q 517 622 536 704 l 408 622 q 483 746 424 700 q 632 792 543 792 q 765 751 708 792 q 819 643 819 710 q 689 493 819 528 q 779 365 779 456 q 718 232 779 285 q 564 181 658 181 q 406 239 461 181 q 356 379 356 290 l 356 397 z "},"④":{"ha":1131,"x_min":93,"x_max":1101,"o":"m 93 425 q 169 711 93 581 q 372 919 244 842 q 647 996 499 996 q 1044 779 921 996 q 1101 549 1101 676 q 1026 264 1101 394 q 822 56 949 132 q 546 -22 694 -22 q 151 196 272 -22 q 93 425 93 297 m 289 169 q 549 71 388 71 q 779 138 672 71 q 944 313 883 201 q 1006 547 1006 424 q 907 804 1006 706 q 646 901 810 901 q 418 838 519 901 q 251 663 311 772 q 190 425 190 551 q 289 169 190 268 m 331 425 l 640 775 l 782 775 l 708 421 l 813 421 l 794 336 l 690 336 l 660 193 l 557 193 l 588 336 l 313 336 l 331 425 m 607 421 l 661 675 q 629 638 658 667 l 436 421 l 607 421 z "},"⑤":{"ha":1131,"x_min":93,"x_max":1101,"o":"m 169 711 q 372 919 244 842 q 647 996 499 996 q 1044 779 921 996 q 1101 549 1101 676 q 1026 264 1101 394 q 822 56 949 132 q 546 -22 694 -22 q 151 196 274 -22 q 93 425 93 297 q 169 711 93 581 m 289 169 q 549 71 388 71 q 779 138 672 71 q 944 313 883 201 q 1006 547 1006 424 q 907 804 1006 706 q 646 901 810 901 q 418 838 519 901 q 251 663 311 772 q 190 425 190 551 q 289 169 190 268 m 364 376 l 465 376 q 571 268 465 268 q 658 303 625 268 q 690 396 690 339 q 663 471 690 443 q 590 499 635 499 q 496 460 539 499 l 388 460 l 492 768 l 829 768 l 808 671 l 553 671 l 514 565 q 500 531 501 532 q 631 585 554 585 q 746 535 700 585 q 792 407 792 482 q 728 242 792 301 q 565 181 663 181 q 414 235 465 181 q 364 364 364 285 l 364 376 z "},"⑥":{"ha":1131,"x_min":93,"x_max":1101,"o":"m 93 425 q 169 711 93 581 q 372 919 244 842 q 647 996 499 996 q 1044 779 921 996 q 1101 549 1101 676 q 1026 264 1101 394 q 822 56 949 132 q 546 -22 694 -22 q 151 196 272 -22 q 93 425 93 297 m 289 169 q 549 71 388 71 q 779 138 672 71 q 944 313 883 201 q 1006 547 1006 424 q 907 804 1006 706 q 646 901 810 901 q 418 838 519 901 q 251 663 311 772 q 190 425 190 551 q 289 169 190 268 m 365 417 q 496 739 365 629 q 644 792 561 792 q 776 742 728 792 q 826 608 824 693 l 721 608 q 639 704 721 704 q 486 544 529 704 q 483 530 485 539 q 475 506 481 521 q 618 576 526 576 q 742 526 693 576 q 789 403 789 479 q 726 244 789 308 q 567 181 664 181 q 418 244 469 181 q 365 417 365 310 m 471 367 q 568 268 471 268 q 653 304 619 268 q 688 394 688 339 q 660 463 688 435 q 590 489 633 489 q 506 454 539 489 q 471 367 471 419 z "},"⑦":{"ha":1131,"x_min":93,"x_max":1101,"o":"m 169 711 q 372 919 244 842 q 647 996 499 996 q 1044 779 921 996 q 1101 549 1101 676 q 1026 264 1101 394 q 822 56 949 132 q 546 -22 694 -22 q 151 196 274 -22 q 93 425 93 297 q 169 711 93 581 m 289 169 q 549 71 388 71 q 779 138 672 71 q 944 313 883 201 q 1006 547 1006 424 q 907 804 1006 706 q 646 901 810 901 q 418 838 519 901 q 251 663 311 772 q 190 425 190 551 q 289 169 190 268 m 444 768 l 851 768 l 833 683 q 661 481 721 588 q 607 355 631 426 q 568 193 583 283 l 446 193 q 685 643 493 500 l 726 671 l 426 671 l 444 768 z "},"⑧":{"ha":1131,"x_min":93,"x_max":1101,"o":"m 93 425 q 169 711 93 581 q 372 919 244 842 q 647 996 499 996 q 1044 779 921 996 q 1101 549 1101 676 q 1026 264 1101 394 q 822 56 949 132 q 546 -22 694 -22 q 151 196 272 -22 q 93 425 93 297 m 289 169 q 549 71 388 71 q 779 138 672 71 q 944 313 883 201 q 1006 547 1006 424 q 907 804 1006 706 q 646 901 810 901 q 418 838 519 901 q 251 663 311 772 q 190 425 190 551 q 289 169 190 268 m 356 338 q 506 504 356 460 q 425 619 425 539 q 488 744 425 696 q 640 792 547 792 q 779 750 726 792 q 832 642 832 708 q 696 492 832 528 q 790 364 790 456 q 725 229 790 279 q 560 181 661 181 q 411 225 468 181 q 356 338 356 268 m 488 292 q 560 268 518 268 q 651 299 617 268 q 688 374 688 328 q 660 432 688 408 q 585 454 632 454 q 494 426 531 454 q 458 353 458 397 q 488 292 458 314 m 619 538 q 697 564 667 538 q 729 632 729 592 q 639 704 729 704 q 558 678 589 704 q 526 610 526 650 q 619 538 526 538 z "},"⑨":{"ha":1131,"x_min":93,"x_max":1101,"o":"m 169 711 q 372 919 244 842 q 647 996 499 996 q 1044 779 921 996 q 1101 549 1101 676 q 1026 264 1101 394 q 822 56 949 132 q 546 -22 694 -22 q 151 196 274 -22 q 93 425 93 297 q 169 711 93 581 m 289 169 q 549 71 388 71 q 779 138 672 71 q 944 313 883 201 q 1006 547 1006 424 q 907 804 1006 706 q 646 901 810 901 q 418 838 519 901 q 251 663 311 772 q 190 425 190 551 q 289 169 190 268 m 471 363 q 563 269 479 269 q 710 440 674 269 q 712 447 710 439 q 717 472 714 454 q 581 400 669 400 q 458 450 510 400 q 406 578 406 503 q 467 731 406 669 q 622 792 528 792 q 772 728 717 792 q 826 553 826 663 q 701 233 826 339 q 557 181 640 181 q 419 231 469 181 q 369 363 369 281 l 471 363 m 535 514 q 603 486 563 486 q 689 518 654 486 q 721 604 721 553 q 694 676 721 650 q 626 704 667 704 q 540 671 574 704 q 508 583 508 639 q 535 514 508 540 z "},"⓪":{"ha":1131,"x_min":93,"x_max":1101,"o":"m 169 711 q 372 919 244 842 q 647 996 499 996 q 1044 779 921 996 q 1101 549 1101 676 q 1026 264 1101 394 q 822 56 949 132 q 546 -22 694 -22 q 151 196 274 -22 q 93 425 93 297 q 169 711 93 581 m 289 169 q 549 71 388 71 q 779 138 672 71 q 944 313 883 201 q 1006 547 1006 424 q 907 804 1006 706 q 646 901 810 901 q 418 838 519 901 q 251 663 311 772 q 190 425 190 551 q 289 169 190 268 m 367 413 q 492 738 367 626 q 635 792 551 792 q 774 729 721 792 q 824 557 824 667 q 701 233 824 339 q 557 181 640 181 q 417 243 467 181 q 367 413 367 303 m 563 269 q 704 431 663 269 q 722 567 722 494 q 631 704 722 704 q 488 542 531 704 q 468 407 468 468 q 563 269 468 269 z "},"⓿":{"ha":1131,"x_min":93,"x_max":1101,"o":"m 169 711 q 372 919 244 842 q 649 996 499 996 q 1044 779 921 996 q 1101 549 1101 676 q 1026 264 1101 394 q 822 56 949 132 q 544 -22 694 -22 q 151 194 274 -22 q 93 424 93 296 q 169 711 93 581 m 417 243 q 557 181 467 181 q 793 372 724 181 q 824 557 824 454 q 774 729 824 667 q 635 792 721 792 q 399 596 471 792 q 367 413 367 504 q 417 243 367 303 m 468 407 q 543 658 468 564 q 631 704 578 704 q 722 567 722 704 q 650 315 722 404 q 563 269 614 269 q 493 304 518 269 q 468 407 468 339 z "},"■":{"ha":1299,"x_min":196,"x_max":1168,"o":"m 196 0 l 196 972 l 1168 972 l 1168 0 l 196 0 z "},"□":{"ha":1299,"x_min":196,"x_max":1168,"o":"m 196 0 l 196 972 l 1168 972 l 1168 0 l 196 0 m 318 119 l 1046 119 l 1046 853 l 318 853 l 318 119 z "},"▪":{"ha":779,"x_min":144,"x_max":700,"o":"m 144 208 l 144 764 l 700 764 l 700 208 l 144 208 z "},"▫":{"ha":779,"x_min":144,"x_max":700,"o":"m 144 208 l 144 764 l 700 764 l 700 208 l 144 208 m 261 324 l 583 324 l 583 649 l 261 649 l 261 324 z "},"▲":{"ha":1110,"x_min":-42,"x_max":1008,"o":"m -42 0 l 483 997 l 1008 0 l -42 0 z "},"△":{"ha":1108,"x_min":-42,"x_max":1007,"o":"m -42 0 l 482 997 l 1007 0 l -42 0 m 150 115 l 815 115 l 482 747 l 150 115 z "},"▶":{"ha":1050,"x_min":197,"x_max":1065,"o":"m 197 -11 l 197 983 l 1065 486 l 197 -11 z "},"▷":{"ha":1124,"x_min":257,"x_max":1125,"o":"m 257 -11 l 257 983 l 1125 486 l 257 -11 m 374 188 l 896 486 l 374 785 l 374 188 z "},"▼":{"ha":1110,"x_min":165,"x_max":1215,"o":"m 165 972 l 1215 972 l 690 -25 l 165 972 z "},"▽":{"ha":1108,"x_min":165,"x_max":1214,"o":"m 165 972 l 1214 972 l 689 -25 l 165 972 m 357 857 l 689 225 l 1022 857 l 357 857 z "},"◀":{"ha":1050,"x_min":47,"x_max":915,"o":"m 915 -11 l 47 486 l 915 983 l 915 -11 z "},"◁":{"ha":1050,"x_min":47,"x_max":915,"o":"m 915 -11 l 47 486 l 915 983 l 915 -11 m 800 188 l 800 785 l 278 486 l 800 188 z "},"◆":{"ha":1169,"x_min":57,"x_max":1176,"o":"m 617 -74 l 57 486 l 617 1044 l 1176 486 l 617 -74 z "},"◇":{"ha":1169,"x_min":57,"x_max":1176,"o":"m 617 -74 l 57 486 l 617 1044 l 1176 486 l 617 -74 m 617 90 l 1013 486 l 617 882 l 222 486 l 617 90 z "},"◊":{"ha":713,"x_min":79,"x_max":697,"o":"m 453 972 l 697 486 l 453 0 l 324 0 l 79 486 l 324 972 l 453 972 m 349 217 q 367 181 357 201 q 389 135 378 160 l 564 483 l 428 753 l 386 839 l 346 753 l 211 489 l 349 217 z "},"○":{"ha":1186,"x_min":104,"x_max":1146,"o":"m 175 747 q 365 938 244 867 q 625 1007 485 1007 q 886 938 763 1007 q 1076 747 1006 867 q 1146 486 1146 624 q 1076 226 1146 346 q 886 36 1006 106 q 625 -35 765 -35 q 365 36 483 -35 q 175 226 244 106 q 104 486 104 344 q 175 747 104 626 m 426 136 q 625 82 515 82 q 968 283 854 82 q 1021 486 1021 378 q 825 838 1021 721 q 625 890 731 890 q 282 690 396 890 q 229 486 229 596 q 426 136 229 253 z "},"●":{"ha":1164,"x_min":103,"x_max":1122,"o":"m 172 742 q 358 929 240 860 q 613 997 472 997 q 868 929 750 997 q 1054 742 985 861 q 1122 486 1122 624 q 1054 231 1122 349 q 868 44 988 114 q 613 -25 750 -25 q 358 44 474 -25 q 172 231 240 113 q 103 486 103 350 q 172 742 103 622 z "},"◻":{"ha":1046,"x_min":174,"x_max":938,"o":"m 174 104 l 174 868 l 938 868 l 938 104 l 174 104 m 290 219 l 819 219 l 819 753 l 290 753 l 290 219 z "},"◼":{"ha":1046,"x_min":174,"x_max":938,"o":"m 174 104 l 174 868 l 938 868 l 938 104 l 174 104 z "},"♡":{"ha":1128,"x_min":146,"x_max":1135,"o":"m 218 911 q 407 993 292 993 q 640 840 578 993 q 874 993 703 993 q 1063 911 989 993 q 1135 699 1135 831 q 919 254 1135 499 q 639 -26 803 124 q 481 124 550 56 q 363 251 413 193 q 201 479 257 369 q 146 699 146 589 q 218 911 146 831 m 264 703 q 350 450 264 586 q 465 301 393 383 q 639 118 536 218 q 981 538 908 379 q 1018 701 1018 621 q 976 836 1018 786 q 864 886 935 886 q 699 704 715 886 l 583 704 q 417 886 567 886 q 304 838 344 886 q 264 703 264 785 z "},"♥":{"ha":1128,"x_min":147,"x_max":1136,"o":"m 147 703 q 219 913 147 832 q 406 993 292 993 q 560 939 497 993 q 642 793 624 886 q 724 939 660 886 q 878 993 786 993 q 1064 913 993 993 q 1136 701 1136 832 q 1017 372 1136 542 q 865 192 958 292 q 640 -26 772 93 q 268 371 389 200 q 147 703 147 539 z "},"❶":{"ha":1131,"x_min":93,"x_max":1101,"o":"m 93 424 q 169 711 93 581 q 372 919 244 842 q 649 996 499 996 q 1044 779 921 996 q 1101 549 1101 676 q 1026 264 1101 394 q 822 56 949 132 q 544 -22 694 -22 q 151 194 274 -22 q 93 424 93 296 m 444 556 q 606 631 551 556 l 599 606 l 511 193 l 613 193 l 735 775 l 647 775 q 460 656 592 667 l 439 556 l 444 556 z "},"❷":{"ha":1131,"x_min":93,"x_max":1101,"o":"m 169 711 q 372 919 244 842 q 649 996 499 996 q 1044 779 921 996 q 1101 549 1101 676 q 1026 264 1101 394 q 822 56 949 132 q 544 -22 694 -22 q 151 194 274 -22 q 93 424 93 296 q 169 711 93 581 m 749 204 l 769 299 l 496 299 q 564 371 507 340 l 665 425 q 829 632 829 514 q 775 749 829 704 q 638 794 722 794 q 488 746 547 794 q 415 614 428 699 l 528 614 q 635 708 544 708 q 726 629 726 708 q 608 499 726 563 l 525 454 q 401 349 442 411 q 347 204 363 289 l 749 204 z "},"❸":{"ha":1131,"x_min":93,"x_max":1101,"o":"m 169 711 q 372 919 244 842 q 649 996 499 996 q 1044 779 921 996 q 1101 549 1101 676 q 1026 264 1101 394 q 822 56 949 132 q 544 -22 694 -22 q 151 194 274 -22 q 93 424 93 296 q 169 711 93 581 m 356 379 q 408 236 356 289 q 564 181 464 181 q 718 232 658 181 q 779 365 779 285 q 689 493 779 456 q 819 643 819 528 q 765 751 819 710 q 632 792 708 792 q 483 746 543 792 q 408 622 424 700 l 517 622 q 625 704 536 704 q 717 632 717 704 q 685 565 717 590 q 607 540 653 540 l 563 540 l 546 454 l 581 454 q 678 372 678 454 q 646 297 678 329 q 564 268 614 268 q 456 386 456 268 l 456 397 l 356 397 l 356 379 z "},"❹":{"ha":1131,"x_min":93,"x_max":1101,"o":"m 93 424 q 169 711 93 581 q 372 919 244 842 q 649 996 499 996 q 1044 779 921 996 q 1101 549 1101 676 q 1026 264 1101 394 q 822 56 949 132 q 544 -22 694 -22 q 151 194 274 -22 q 93 424 93 296 m 557 193 l 660 193 l 690 336 l 794 336 l 813 421 l 708 421 l 782 775 l 640 775 l 331 425 l 313 336 l 588 336 l 557 193 m 629 638 q 661 675 658 667 l 607 421 l 436 421 l 629 638 z "},"❺":{"ha":1131,"x_min":93,"x_max":1101,"o":"m 93 424 q 169 711 93 581 q 372 919 244 842 q 649 996 499 996 q 1044 779 921 996 q 1101 549 1101 676 q 1026 264 1101 394 q 822 56 949 132 q 544 -22 694 -22 q 151 194 274 -22 q 93 424 93 296 m 364 364 q 415 233 364 281 q 565 181 471 181 q 728 242 663 181 q 792 407 792 301 q 746 535 792 482 q 631 585 700 585 q 500 531 554 585 q 514 565 501 532 l 553 671 l 808 671 l 829 768 l 492 768 l 388 460 l 496 460 q 590 499 539 499 q 663 471 635 499 q 690 396 690 443 q 658 303 690 339 q 571 268 625 268 q 465 376 465 268 l 364 376 l 364 364 z "},"❻":{"ha":1131,"x_min":93,"x_max":1101,"o":"m 169 711 q 372 919 244 842 q 649 996 499 996 q 1044 779 921 996 q 1101 549 1101 676 q 1026 264 1101 394 q 822 56 949 132 q 544 -22 694 -22 q 151 194 274 -22 q 93 424 93 296 q 169 711 93 581 m 365 417 q 418 244 365 308 q 567 181 469 181 q 726 244 664 181 q 789 403 789 308 q 742 526 789 479 q 618 576 693 576 q 475 506 526 576 q 483 530 481 521 q 486 544 485 539 q 639 704 529 704 q 721 608 721 704 l 826 608 q 776 742 824 693 q 644 792 728 792 q 399 599 474 792 q 365 417 365 511 m 471 367 q 506 454 471 419 q 590 489 539 489 q 660 463 633 489 q 688 394 688 435 q 653 304 688 339 q 568 268 619 268 q 497 294 524 268 q 471 367 471 321 z "},"❼":{"ha":1131,"x_min":93,"x_max":1101,"o":"m 93 424 q 169 711 93 581 q 372 919 244 842 q 649 996 499 996 q 1044 779 921 996 q 1101 549 1101 676 q 1026 264 1101 394 q 822 56 949 132 q 544 -22 694 -22 q 151 194 274 -22 q 93 424 93 296 m 685 643 q 446 193 493 500 l 568 193 q 607 355 583 283 q 661 481 631 426 q 833 683 721 588 l 851 768 l 444 768 l 426 671 l 726 671 l 685 643 z "},"❽":{"ha":1131,"x_min":93,"x_max":1101,"o":"m 169 711 q 372 919 244 842 q 649 996 499 996 q 1044 779 921 996 q 1101 549 1101 676 q 1026 264 1101 394 q 822 56 949 132 q 544 -22 694 -22 q 151 194 274 -22 q 93 424 93 296 q 169 711 93 581 m 356 338 q 410 225 356 268 q 560 181 467 181 q 725 229 661 181 q 790 364 790 279 q 696 492 790 456 q 832 642 832 528 q 779 750 832 708 q 640 792 726 792 q 488 744 547 792 q 425 619 425 696 q 506 504 425 539 q 396 440 436 485 q 356 338 356 396 m 494 426 q 585 454 531 454 q 660 432 632 454 q 688 374 688 408 q 651 299 688 328 q 560 268 617 268 q 488 292 518 268 q 458 353 458 314 q 494 426 458 397 m 558 678 q 639 704 589 704 q 729 632 729 704 q 697 564 729 592 q 619 538 667 538 q 526 610 526 538 q 558 678 526 650 z "},"❾":{"ha":1131,"x_min":93,"x_max":1101,"o":"m 93 424 q 169 711 93 581 q 372 919 244 842 q 649 996 499 996 q 1044 779 921 996 q 1101 549 1101 676 q 1026 264 1101 394 q 822 56 949 132 q 544 -22 694 -22 q 151 194 274 -22 q 93 424 93 296 m 369 363 q 419 231 369 278 q 557 181 469 181 q 794 371 721 181 q 826 553 826 460 q 772 728 826 663 q 622 792 717 792 q 467 731 528 792 q 406 578 406 669 q 458 450 406 503 q 581 400 510 400 q 717 472 669 400 q 712 447 714 454 q 710 440 710 439 q 563 269 674 269 q 471 363 479 269 l 369 363 m 540 671 q 626 704 574 704 q 694 676 667 704 q 721 604 721 650 q 689 518 721 553 q 603 486 654 486 q 535 514 563 486 q 508 583 508 540 q 540 671 508 639 z "},"《":{"ha":746,"x_min":47,"x_max":874,"o":"m 728 1015 l 874 1015 l 469 403 l 614 -179 l 486 -179 l 336 421 l 728 1015 m 585 1015 l 181 403 l 325 -179 l 197 -179 l 47 421 l 439 1015 l 585 1015 z "},"》":{"ha":744,"x_min":-94,"x_max":732,"o":"m 167 1015 l 293 1015 l 443 415 l 51 -179 l -94 -179 l 310 433 l 167 1015 m 456 1015 l 582 1015 l 732 415 l 340 -179 l 196 -179 l 600 435 l 456 1015 z "},"「":{"ha":421,"x_min":115,"x_max":539,"o":"m 115 417 l 242 1014 l 539 1014 l 518 910 l 350 910 l 246 417 l 115 417 z "},"」":{"ha":400,"x_min":-94,"x_max":329,"o":"m 329 417 l 204 -181 l -94 -181 l -74 -76 l 96 -76 l 199 417 l 329 417 z "},"『":{"ha":629,"x_min":97,"x_max":726,"o":"m 97 324 l 243 1015 l 726 1015 l 668 738 l 472 738 l 385 324 l 97 324 m 222 417 l 300 417 l 385 826 l 582 826 l 604 928 l 329 928 l 222 417 z "},"』":{"ha":622,"x_min":-65,"x_max":564,"o":"m 564 513 l 418 -179 l -65 -179 l -7 99 l 190 99 l 276 513 l 564 513 m 439 419 l 361 419 l 276 11 l 79 11 l 57 -92 l 332 -92 l 439 419 z "},"【":{"ha":460,"x_min":11,"x_max":600,"o":"m 600 1015 l 600 1011 q 236 246 236 664 q 346 -176 236 17 l 346 -179 l 11 -179 l 265 1015 l 600 1015 z "},"】":{"ha":451,"x_min":-104,"x_max":485,"o":"m -104 -175 q 260 590 260 172 q 149 1013 260 814 l 149 1015 l 485 1015 l 231 -179 l -104 -179 l -104 -175 z "},"〔":{"ha":386,"x_min":17,"x_max":490,"o":"m 142 -200 l 17 36 l 179 797 l 407 1036 l 490 961 l 303 765 l 147 35 l 239 -139 l 142 -200 z "},"〕":{"ha":386,"x_min":-69,"x_max":404,"o":"m 279 1036 l 404 800 l 242 39 l 14 -200 l -69 -125 l 118 71 l 274 801 l 182 975 l 279 1036 z "},"":{"ha":1258,"x_min":158,"x_max":1160,"o":"m 246 -22 l 158 67 l 572 488 l 163 906 l 251 994 l 660 575 l 1071 994 l 1160 908 l 746 488 l 1160 68 l 1069 -21 l 658 399 l 246 -22 z "},"":{"ha":1169,"x_min":94,"x_max":1247,"o":"m 1144 978 l 1247 894 l 542 -21 l 94 554 l 199 638 l 544 192 l 1144 978 z "},"":{"ha":1475,"x_min":232,"x_max":1307,"o":"m 1307 47 l 232 47 l 232 172 l 1307 172 l 1307 47 m 232 929 l 1307 929 l 1307 804 l 232 804 l 232 929 m 1307 426 l 232 426 l 232 550 l 1307 550 l 1307 426 z "},"":{"ha":1422,"x_min":256,"x_max":1232,"o":"m 256 0 l 256 972 l 1232 972 l 1232 0 l 256 0 m 390 122 l 1097 122 l 1097 851 l 390 851 l 390 122 z "},"":{"ha":1422,"x_min":256,"x_max":1257,"o":"m 601 693 l 756 442 l 1154 992 l 1257 914 l 744 221 l 494 625 l 601 693 m 1097 119 l 1097 456 l 1231 456 l 1231 0 l 256 0 l 256 972 l 886 972 l 886 853 l 388 853 l 388 119 l 1097 119 z "},"":{"ha":1422,"x_min":256,"x_max":1232,"o":"m 256 0 l 256 972 l 1232 972 l 1232 0 l 256 0 m 388 119 l 1099 119 l 1099 853 l 388 853 l 388 119 m 656 401 l 656 579 l 833 579 l 833 401 l 656 401 z "},"":{"ha":976,"x_min":-14,"x_max":872,"o":"m 872 0 l -14 0 l -14 124 l 431 124 l 78 474 l 174 568 l 364 369 l 364 982 l 500 982 l 500 372 l 689 568 l 785 474 l 431 124 l 872 124 l 872 0 z "},"":{"ha":974,"x_min":101,"x_max":935,"o":"m 310 847 q 518 903 403 903 q 879 694 756 903 q 935 486 935 601 q 726 126 935 249 q 518 69 628 69 q 158 278 281 69 q 101 486 101 376 q 310 847 101 724 z "},"":{"ha":803,"x_min":100,"x_max":767,"o":"m 267 775 q 433 819 344 819 q 722 653 622 819 q 767 486 767 575 q 600 199 767 296 q 433 153 522 153 q 146 319 243 153 q 100 486 100 396 q 267 775 100 675 z "},"":{"ha":1015,"x_min":101,"x_max":976,"o":"m 321 865 q 539 924 421 924 q 918 706 789 924 q 976 486 976 603 q 758 108 976 235 q 539 49 657 49 q 161 268 289 49 q 101 486 101 365 q 321 865 101 736 m 383 211 q 539 168 451 168 q 811 328 718 168 q 853 486 853 400 q 696 761 853 667 q 539 804 624 804 q 269 646 358 804 q 226 486 226 574 q 383 211 226 306 z "},"":{"ha":803,"x_min":100,"x_max":767,"o":"m 267 775 q 433 819 344 819 q 722 653 622 819 q 767 486 767 575 q 600 199 767 296 q 433 153 522 153 q 146 319 243 153 q 100 486 100 396 q 267 775 100 675 m 282 332 q 433 268 344 268 q 585 332 522 268 q 647 486 647 396 q 585 640 647 575 q 433 704 522 704 q 282 640 344 704 q 219 486 219 575 q 282 332 219 396 z "},"":{"ha":1186,"x_min":104,"x_max":1146,"o":"m 175 747 q 365 938 244 867 q 625 1007 485 1007 q 886 938 767 1007 q 1076 747 1006 867 q 1146 486 1146 628 q 1076 226 1146 346 q 886 36 1006 106 q 625 -35 767 -35 q 365 36 483 -35 q 175 226 244 106 q 104 486 104 344 q 175 747 104 628 m 418 128 q 625 72 511 72 q 985 279 864 72 q 1040 486 1040 372 q 833 846 1040 722 q 625 901 740 901 q 267 694 388 901 q 211 486 211 601 q 418 128 211 247 m 464 767 q 625 810 536 810 q 906 649 810 810 q 949 486 949 576 q 788 207 949 303 q 625 163 710 163 q 346 325 439 163 q 301 486 301 399 q 464 767 301 672 m 471 332 q 625 268 535 268 q 779 332 715 268 q 843 486 843 396 q 779 640 843 576 q 625 704 715 704 q 471 640 535 704 q 407 486 407 576 q 471 332 407 396 m 504 486 q 540 572 504 536 q 625 607 575 607 q 711 572 676 607 q 746 486 746 538 q 711 401 746 436 q 625 365 675 365 q 540 401 576 365 q 504 486 504 438 z "},"":{"ha":1015,"x_min":101,"x_max":976,"o":"m 101 486 q 321 865 101 736 q 539 924 421 924 q 918 706 789 924 q 976 486 976 603 q 758 108 976 235 q 539 49 657 49 q 161 268 289 49 q 101 486 101 365 m 217 486 q 378 206 217 301 q 539 161 451 161 q 819 324 725 161 q 863 486 863 396 q 701 768 863 672 q 539 811 629 811 q 261 649 354 811 q 217 486 217 571 m 376 649 q 539 715 444 715 q 701 649 632 715 q 768 486 768 579 q 701 324 768 392 q 539 257 632 257 q 376 324 444 257 q 310 486 310 392 q 376 649 310 579 m 422 486 q 457 404 422 439 q 539 369 492 369 q 622 403 586 369 q 657 486 657 438 q 622 569 657 535 q 539 603 586 603 q 457 569 490 603 q 422 486 422 535 z "},"":{"ha":803,"x_min":100,"x_max":767,"o":"m 100 486 q 267 775 100 675 q 433 819 344 819 q 722 653 622 819 q 767 486 767 575 q 600 199 767 296 q 433 153 522 153 q 146 319 243 153 q 100 486 100 396 m 213 486 q 278 329 213 397 q 433 264 343 264 q 589 329 524 264 q 654 486 654 397 q 589 643 654 575 q 433 708 524 708 q 243 597 308 708 q 213 486 213 546 m 310 486 q 347 574 310 538 q 433 610 383 610 q 521 574 485 610 q 557 486 557 538 q 521 400 557 436 q 433 363 485 363 q 347 400 382 363 q 310 486 310 435 z "},"":{"ha":1299,"x_min":196,"x_max":1168,"o":"m 196 0 l 196 972 l 1168 972 l 1168 0 l 196 0 m 313 115 l 1051 115 l 1051 857 l 313 857 l 313 115 m 406 211 l 406 763 l 957 763 l 957 211 l 406 211 m 518 322 l 846 322 l 846 650 l 518 650 l 518 322 m 613 417 l 613 556 l 751 556 l 751 417 l 613 417 z "},"":{"ha":1046,"x_min":174,"x_max":938,"o":"m 174 104 l 174 868 l 938 868 l 938 104 l 174 104 m 285 215 l 825 215 l 825 757 l 285 757 l 285 215 m 375 306 l 375 667 l 735 667 l 735 306 l 375 306 m 483 413 l 628 413 l 628 560 l 483 560 l 483 413 z "},"":{"ha":779,"x_min":144,"x_max":700,"o":"m 144 208 l 144 764 l 700 764 l 700 208 l 144 208 m 258 321 l 586 321 l 586 651 l 258 651 l 258 321 m 353 417 l 353 556 l 492 556 l 492 417 l 353 417 z "},"":{"ha":1381,"x_min":106,"x_max":1218,"o":"m 124 461 q 159 598 138 536 q 208 708 181 660 q 356 871 297 871 q 397 832 397 871 q 354 733 397 785 q 294 569 294 656 q 407 421 294 421 l 418 421 q 443 422 425 422 q 489 422 461 422 q 610 418 551 422 q 657 416 635 417 q 699 415 679 415 q 792 424 746 415 q 883 494 851 436 q 965 569 926 569 q 999 521 996 569 q 1039 482 1000 482 q 1104 496 1078 482 q 1126 524 1110 500 q 1168 560 1150 560 q 1213 446 1204 560 q 1217 404 1215 426 q 1218 358 1218 382 q 1206 244 1218 307 q 1199 214 1203 229 q 1190 183 1196 199 l 1179 135 q 1171 78 1171 103 l 1172 54 q 1174 35 1174 44 q 1174 19 1174 26 q 1158 -36 1174 -24 q 1132 -47 1147 -47 q 1108 -42 1125 -47 q 1085 -36 1092 -36 l 1082 -36 q 1039 -72 1057 -43 q 969 -96 1024 -96 q 929 -92 950 -96 q 760 -36 868 -79 q 722 -23 740 -29 q 685 -14 703 -17 q 651 -10 674 -11 q 597 -7 629 -8 l 506 -4 l 443 -4 q 381 -10 413 -4 q 314 -17 346 -17 q 185 50 249 -17 q 131 129 144 89 q 110 233 115 168 q 106 300 106 268 q 110 376 106 336 q 124 461 114 417 m 933 308 q 974 331 954 331 l 979 331 q 1003 307 1003 326 q 975 281 1003 281 q 963 278 968 279 q 954 275 957 276 q 942 258 942 264 q 958 250 942 251 q 992 246 981 246 q 1007 272 994 260 q 1025 297 1019 285 q 1031 314 1031 307 q 975 356 1031 333 q 964 358 964 358 q 946 347 954 358 q 933 308 933 328 m 1110 249 q 1117 250 1115 249 q 1144 286 1144 254 q 1133 318 1144 303 q 1111 332 1124 332 q 1100 325 1104 332 q 1126 297 1124 322 q 1128 290 1128 296 q 1097 260 1128 260 q 1110 249 1101 249 m 953 479 q 963 457 953 467 l 976 510 q 954 485 956 499 l 953 479 m 1153 460 q 1157 443 1153 447 q 1168 465 1168 458 l 1171 476 q 1163 494 1171 488 q 1153 460 1153 476 z "},"ﬁ":{"ha":785,"x_min":71,"x_max":828,"o":"m 229 672 l 257 800 q 478 996 296 996 q 571 978 539 996 l 547 865 q 494 875 528 875 q 389 781 408 875 l 367 672 l 758 672 l 615 0 l 478 0 l 597 561 l 343 561 l 224 0 l 86 0 l 204 561 l 71 561 l 93 672 l 229 672 m 828 946 l 793 790 l 640 790 l 674 946 l 828 946 z "},"ﬂ":{"ha":785,"x_min":71,"x_max":822,"o":"m 93 672 l 229 672 l 257 800 q 478 996 296 996 q 571 978 539 996 l 547 865 q 494 875 528 875 q 389 781 408 875 l 367 672 l 507 672 l 483 561 l 343 561 l 224 0 l 86 0 l 204 561 l 71 561 l 93 672 m 822 972 l 615 0 l 479 0 l 685 972 l 822 972 z "}}}
